{
.appVersion = "1342";
copyright = "Copyright 2012 Google Inc. All Rights Reserved.";
customParameters = (
{
name = vendorID;
value = MONO;
},
{
name = panose;
value = (
2,
2,
6,
0,
6,
5,
0,
2,
2,
0
);
},
{
name = unicodeRanges;
value = (
0,
1,
2,
3,
4,
5,
6,
7,
9,
29,
30,
31,
32,
33,
34,
35,
36,
37,
38,
39,
43,
44,
45,
46,
60,
62,
64,
67,
69
);
},
{
name = glyphOrder;
value = (
.notdef,
CR,
space,
uni0000,
exclam,
quotedbl,
numbersign,
dollar,
percent,
ampersand,
quotesingle,
parenleft,
parenright,
asterisk,
plus,
comma,
hyphen,
period,
slash,
zero,
one,
two,
three,
four,
five,
six,
seven,
eight,
nine,
colon,
semicolon,
less,
equal,
greater,
question,
at,
A,
B,
C,
D,
E,
F,
G,
H,
I,
J,
K,
L,
M,
N,
O,
P,
Q,
R,
S,
T,
U,
V,
W,
X,
Y,
Z,
bracketleft,
backslash,
bracketright,
asciicircum,
underscore,
grave,
a,
b,
c,
d,
e,
f,
g,
h,
i,
j,
k,
l,
m,
n,
o,
p,
q,
r,
s,
t,
u,
v,
w,
x,
y,
z,
braceleft,
bar,
braceright,
asciitilde,
guillemotleft,
guillemotright,
uni1780,
uni1781,
uni1782,
uni1783,
uni1784,
uni1785,
uni1786,
uni1787,
uni1788,
uni1789,
uni178A,
uni178B,
uni178C,
uni178D,
uni178E,
uni178F,
uni1790,
uni1791,
uni1792,
uni1793,
uni1794,
uni1795,
uni1796,
uni1797,
uni1798,
uni1799,
uni179A,
uni179B,
uni179C,
uni179D,
uni179E,
uni179F,
uni17A0,
uni17A1,
uni17A2,
uni17A3,
uni17A4,
uni17A5,
uni17A6,
uni17A7,
uni17A8,
uni17A9,
uni17AA,
uni17AB,
uni17AC,
uni17AD,
uni17AE,
uni17AF,
uni17B0,
uni17B1,
uni17B2,
uni17B3,
uni17B4,
uni17B5,
uni17B6,
uni17B7,
uni17B8,
uni17B9,
uni17BA,
uni17BB,
uni17BC,
uni17BD,
uni17BE,
uni17BF,
uni17C0,
uni17C1,
uni17C2,
uni17C3,
uni17C4,
uni17C5,
uni17C6,
uni17C7,
uni17C8,
uni17C9,
uni17CA,
uni17CB,
uni17CC,
uni17CD,
uni17CE,
uni17CF,
uni17D0,
uni17D1,
uni17D2,
uni17D3,
uni17D4,
uni17D5,
uni17D6,
uni17D7,
uni17D8,
uni17D9,
uni17DA,
uni17DB,
uni17DC,
uni17DD,
uni17E0,
uni17E1,
uni17E2,
uni17E3,
uni17E4,
uni17E5,
uni17E6,
uni17E7,
uni17E8,
uni17E9,
uni17D2_1780,
uni17D2_1781,
uni17D2_1782,
uni17D21783,
uni17D2_1784,
uni17D2_1785,
uni17D2_1786,

glyphs = (
{
glyphname = .notdef;
lastChange = "2020-10-12 02:38:09 +0000";
layers = (
{
layerId = "89D8C5C7-992A-4B79-A2F2-D8D3CE0BA992";
paths = (
{
closed = 1;
nodes = (
"922 1462 LINE",
"102 1462 LINE",
"102 0 LINE",
"922 0 LINE"
);
},
{
closed = 1;
nodes = (
"823 1364 LINE",
"823 98 LINE",
"201 98 LINE",
"201 1364 LINE"
);
}
);
userData = {
assembly = "NPUSHB[ ]	/* 39 values pushed */\0120 0 0 3 2 0 3 103 0 2 1 1 2 87 0 2 2 1 95 4 1 1 2 1 79 0 0 7 6 5 4 0 3 0 3 17 5 6 23 \012CALL[ ]	/* CallFunction */";
};
width = 1024;
},
{
layerId = "963BFE9B-9129-4C18-A3F3-46AD815B745B";
paths = (
{
closed = 1;
nodes = (
"922 1462 LINE",
"102 1462 LINE",
"102 0 LINE",
"922 0 LINE"
);
},
{
closed = 1;
nodes = (
"823 1364 LINE",
"823 98 LINE",
"201 98 LINE",
"201 1364 LINE"
);
}
);
userData = {
assembly = "NPUSHB[ ]	/* 39 values pushed */\0120 0 0 3 2 0 3 103 0 2 1 1 2 87 0 2 2 1 95 4 1 1 2 1 79 0 0 7 6 5 4 0 3 0 3 17 5 6 23 \012CALL[ ]	/* CallFunction */";
};
width = 1024;
},
{
layerId = "A10A3B8F-5047-4E3E-80F3-6554B53DC79D";
paths = (
{
closed = 1;
nodes = (
"922 1462 LINE",
"102 1462 LINE",
"102 0 LINE",
"922 0 LINE"
);
},
{
closed = 1;
nodes = (
"823 1364 LINE",
"823 98 LINE",
"201 98 LINE",
"201 1364 LINE"
);
}
);
userData = {
assembly = "NPUSHB[ ]	/* 39 values pushed */\0120 0 0 3 2 0 3 103 0 2 1 1 2 87 0 2 2 1 95 4 1 1 2 1 79 0 0 7 6 5 4 0 3 0 3 17 5 6 23 \012CALL[ ]	/* CallFunction */";
};
width = 1024;
},
{
layerId = "742C6D49-27A7-4CE6-BB95-CE3E85DCFAA1";
paths = (
{
closed = 1;
nodes = (
"922 1462 LINE",
"102 1462 LINE",
"102 0 LINE",
"922 0 LINE"
);
},
{
closed = 1;
nodes = (
"823 1364 LINE",
"823 98 LINE",
"201 98 LINE",
"201 1364 LINE"
);
}
);
userData = {
assembly = "NPUSHB[ ]	/* 39 values pushed */\0120 0 0 3 2 0 3 103 0 2 1 1 2 87 0 2 2 1 95 4 1 1 2 1 79 0 0 7 6 5 4 0 3 0 3 17 5 6 23 \012CALL[ ]	/* CallFunction */";
};
width = 1024;
},
{
layerId = "1AE80326-82F5-491E-9ED8-F639C1D819D6";
paths = (
{
closed = 1;
nodes = (
"922 1462 LINE",
"102 1462 LINE",
"102 0 LINE",
"922 0 LINE"
);
},
{
closed = 1;
nodes = (
"823 1364 LINE",
"823 98 LINE",
"201 98 LINE",
"201 1364 LINE"
);
}
);
userData = {
assembly = "NPUSHB[ ]	/* 39 values pushed */\0120 0 0 3 2 0 3 103 0 2 1 1 2 87 0 2 2 1 95 4 1 1 2 1 79 0 0 7 6 5 4 0 3 0 3 17 5 6 23 \012CALL[ ]	/* CallFunction */";
};
width = 1024;
}
);
note = .notdef;
},
{
glyphname = exclam;
lastChange = "2020-10-12 02:38:09 +0000";
layers = (
{
layerId = "89D8C5C7-992A-4B79-A2F2-D8D3CE0BA992";
paths = (
{
closed = 1;
nodes = (
"201 1462 LINE",
"205 356 LINE",
"256 356 LINE",
"260 1462 LINE"
);
},
{
closed = 1;
nodes = (
"194 -16 OFFCURVE",
"225 -16 QCURVE SMOOTH",
"262 -16 OFFCURVE",
"280 20 OFFCURVE",
"280 47 QCURVE SMOOTH",
"280 72 OFFCURVE",
"262 111 OFFCURVE",
"225 111 QCURVE SMOOTH",
"194 111 OFFCURVE",
"174 72 OFFCURVE",
"174 47 QCURVE SMOOTH",
"174 20 OFFCURVE"
);
}
);
width = 456;
},
{
layerId = "963BFE9B-9129-4C18-A3F3-46AD815B745B";
paths = (
{
closed = 1;
nodes = (
"184 1462 LINE",
"210 385 LINE",
"294 385 LINE",
"323 1462 LINE"
);
},
{
closed = 1;
nodes = (
"249 -23 QCURVE SMOOTH",
"339 -23 OFFCURVE",
"339 78 QCURVE SMOOTH",
"339 178 OFFCURVE",
"249 178 QCURVE SMOOTH",
"159 178 OFFCURVE",
"159 78 QCURVE SMOOTH",
"159 -23 OFFCURVE"
);
}
);
width = 503;
},
{
layerId = "A10A3B8F-5047-4E3E-80F3-6554B53DC79D";
paths = (
{
closed = 1;
nodes = (
"221 -29 OFFCURVE",
"274 -29 QCURVE SMOOTH",
"325 -29 OFFCURVE",
"401 37 OFFCURVE",
"401 111 QCURVE SMOOTH",
"401 186 OFFCURVE",
"325 248 OFFCURVE",
"274 248 QCURVE SMOOTH",
"221 248 OFFCURVE",
"147 186 OFFCURVE",
"147 111 QCURVE SMOOTH",
"147 37 OFFCURVE"
);
},
{
closed = 1;
nodes = (
"333 412 LINE",
"385 1462 LINE",
"165 1462 LINE",
"217 412 LINE"
);
}
);
userData = {
assembly = "NPUSHB[ ]	/* 28 values pushed */\0120 3 3 2 95 0 2 2 31 77 0 0 0 1 97 0 1 1 38 1 78 17 18 36 34 4 8 26 \012CALL[ ]	/* CallFunction */";
};
width = 550;
},
{
layerId = "742C6D49-27A7-4CE6-BB95-CE3E85DCFAA1";
paths = (
{
closed = 1;
nodes = (
"120 1462 LINE",
"171 485 LINE",
"415 485 LINE",
"466 1462 LINE"
);
},
{
closed = 1;
nodes = (
"218 -27 OFFCURVE",
"292 -27 QCURVE SMOOTH",
"364 -27 OFFCURVE",
"466 53 OFFCURVE",
"466 143 QCURVE SMOOTH",
"466 238 OFFCURVE",
"364 313 OFFCURVE",
"292 313 QCURVE SMOOTH",
"218 313 OFFCURVE",
"116 238 OFFCURVE",
"116 143 QCURVE SMOOTH",
"116 53 OFFCURVE"
);
}
);
width = 585;
},
{
layerId = "1AE80326-82F5-491E-9ED8-F639C1D819D6";
paths = (
{
closed = 1;
nodes = (
"81 1462 LINE",
"132 516 LINE",
"462 516 LINE",
"513 1462 LINE"
);
},
{
closed = 1;
nodes = (
"210 -25 OFFCURVE",
"296 -25 QCURVE SMOOTH",
"380 -25 OFFCURVE",
"503 66 OFFCURVE",
"503 166 QCURVE SMOOTH",
"503 272 OFFCURVE",
"380 358 OFFCURVE",
"296 358 QCURVE SMOOTH",
"210 358 OFFCURVE",
"85 272 OFFCURVE",
"85 166 QCURVE SMOOTH",
"85 66 OFFCURVE"
);
}
);
width = 593;
}
);
note = exclam;
unicode = 0021;
},
{
glyphname = quotedbl;
lastChange = "2020-10-12 02:38:09 +0000";
layers = (
{
layerId = "89D8C5C7-992A-4B79-A2F2-D8D3CE0BA992";
paths = (
{
closed = 1;
nodes = (
"157 934 LINE",
"198 934 LINE",
"206 1462 LINE",
"149 1462 LINE"
);
},
{
closed = 1;
nodes = (
"456 934 LINE",
"497 934 LINE",
"505 1462 LINE",
"448 1462 LINE"
);
}
);
width = 655;
},
{
layerId = "963BFE9B-9129-4C18-A3F3-46AD815B745B";
paths = (
{
closed = 1;
nodes = (
"166 934 LINE",
"241 934 LINE",
"266 1462 LINE",
"141 1462 LINE"
);
},
{
closed = 1;
nodes = (
"503 934 LINE",
"579 934 LINE",
"604 1462 LINE",
"479 1462 LINE"
);
}
);
width = 745;
},
{
layerId = "A10A3B8F-5047-4E3E-80F3-6554B53DC79D";
paths = (
{
closed = 1;
nodes = (
"328 1462 LINE",
"133 1462 LINE",
"174 934 LINE",
"287 934 LINE"
);
},
{
closed = 1;
nodes = (
"702 1462 LINE",
"508 1462 LINE",
"549 934 LINE",
"661 934 LINE"
);
}
);
userData = {
assembly = "NPUSHB[ ]	/* 33 values pushed */\0125 3 4 3 1 1 0 95 2 1 0 0 31 1 78 4 4 0 0 4 7 4 7 6 5 0 3 0 3 17 6 8 23 \012CALL[ ]	/* CallFunction */";
};
width = 835;
},
{
layerId = "742C6D49-27A7-4CE6-BB95-CE3E85DCFAA1";
paths = (
{
closed = 1;
nodes = (
"174 934 LINE",
"371 934 LINE",
"412 1462 LINE",
"133 1462 LINE"
);
},
{
closed = 1;
nodes = (
"596 934 LINE",
"792 934 LINE",
"833 1462 LINE",
"555 1462 LINE"
);
}
);
width = 966;
},
{
layerId = "1AE80326-82F5-491E-9ED8-F639C1D819D6";
paths = (
{
closed = 1;
nodes = (
"161 934 LINE",
"435 934 LINE",
"476 1462 LINE",
"120 1462 LINE"
);
},
{
closed = 1;
nodes = (
"636 934 LINE",
"911 934 LINE",
"951 1462 LINE",
"595 1462 LINE"
);
}
);
width = 1073;
}
);
note = quotedbl;
unicode = 0022;
},
{
glyphname = numbersign;
lastChange = "2020-10-12 02:38:09 +0000";
layers = (
{
layerId = "89D8C5C7-992A-4B79-A2F2-D8D3CE0BA992";
paths = (
{
closed = 1;
nodes = (
"1265 995 LINE",
"964 995 LINE",
"1054 1462 LINE",
"1003 1462 LINE",
"913 995 LINE",
"506 995 LINE",
"596 1462 LINE",
"544 1462 LINE",
"454 995 LINE",
"137 995 LINE",
"137 946 LINE",
"446 946 LINE",
"362 514 LINE",
"57 514 LINE",
"57 465 LINE",
"354 465 LINE",
"264 0 LINE",
"315 0 LINE",
"405 465 LINE",
"813 465 LINE",
"723 0 LINE",
"774 0 LINE",
"864 465 LINE",
"1185 465 LINE",
"1185 514 LINE",
"872 514 LINE",
"956 946 LINE",
"1265 946 LINE"
);
},
{
closed = 1;
nodes = (
"905 946 LINE",
"821 514 LINE",
"413 514 LINE",
"497 946 LINE"
);
}
);
width = 1323;
},
{
layerId = "963BFE9B-9129-4C18-A3F3-46AD815B745B";
paths = (
{
closed = 1;
nodes = (
"1267 1012 LINE",
"987 1012 LINE",
"1073 1462 LINE",
"977 1462 LINE",
"891 1012 LINE",
"540 1012 LINE",
"626 1462 LINE",
"526 1462 LINE",
"440 1012 LINE",
"131 1012 LINE",
"131 920 LINE",
"424 920 LINE",
"348 541 LINE",
"53 541 LINE",
"53 446 LINE",
"332 446 LINE",
"248 0 LINE",
"344 0 LINE",
"430 446 LINE",
"780 446 LINE",
"692 0 LINE",
"790 0 LINE",
"878 446 LINE",
"1192 446 LINE",
"1192 541 LINE",
"897 541 LINE",
"971 920 LINE",
"1267 920 LINE"
);
},
{
closed = 1;
nodes = (
"872 920 LINE",
"798 541 LINE",
"446 541 LINE",
"520 920 LINE"
);
}
);
width = 1323;
},
{
layerId = "A10A3B8F-5047-4E3E-80F3-6554B53DC79D";
paths = (
{
closed = 1;
nodes = (
"1091 1462 LINE",
"950 1462 LINE",
"868 1028 LINE",
"573 1028 LINE",
"655 1462 LINE",
"508 1462 LINE",
"426 1028 LINE",
"127 1028 LINE",
"127 893 LINE",
"401 893 LINE",
"336 565 LINE",
"51 565 LINE",
"51 428 LINE",
"309 428 LINE",
"231 0 LINE",
"375 0 LINE",
"454 428 LINE",
"747 428 LINE",
"663 0 LINE",
"809 0 LINE",
"893 428 LINE",
"1200 428 LINE",
"1200 565 LINE",
"919 565 LINE",
"983 893 LINE",
"1270 893 LINE",
"1270 1028 LINE",
"1009 1028 LINE"
);
},
{
closed = 1;
nodes = (
"481 565 LINE",
"545 893 LINE",
"837 893 LINE",
"774 565 LINE"
);
}
);
userData = {
assembly = "NPUSHB[ ]	/* 68 values pushed */\01216 13 11 3 9 14 8 2 0 1 9 0 104 15 7 2 1 6 4 2 2 3 1 2 103 12 1 10 10 31 77 5 1 3 3 32 3 78 0 0 31 30 29 28 0 27 0 27 26 25 24 23 22 21 20 19 17 17 17 17 17 17 17 17 17 17 8 31 \012CALL[ ]	/* CallFunction */";
};
width = 1323;
},
{
layerId = "742C6D49-27A7-4CE6-BB95-CE3E85DCFAA1";
paths = (
{
closed = 1;
nodes = (
"1278 1053 LINE",
"1038 1053 LINE",
"1116 1460 LINE",
"901 1460 LINE",
"823 1053 LINE",
"625 1053 LINE",
"702 1460 LINE",
"483 1460 LINE",
"405 1053 LINE",
"117 1053 LINE",
"117 844 LINE",
"369 844 LINE",
"321 612 LINE",
"45 612 LINE",
"45 406 LINE",
"283 406 LINE",
"209 0 LINE",
"424 0 LINE",
"500 406 LINE",
"694 406 LINE",
"616 0 LINE",
"836 0 LINE",
"913 406 LINE",
"1210 406 LINE",
"1210 612 LINE",
"952 612 LINE",
"999 844 LINE",
"1278 844 LINE"
);
},
{
closed = 1;
nodes = (
"782 844 LINE",
"735 612 LINE",
"539 612 LINE",
"586 844 LINE"
);
}
);
width = 1323;
},
{
layerId = "1AE80326-82F5-491E-9ED8-F639C1D819D6";
paths = (
{
closed = 1;
nodes = (
"1318 1073 LINE",
"1089 1073 LINE",
"1162 1462 LINE",
"894 1462 LINE",
"822 1073 LINE",
"657 1073 LINE",
"730 1462 LINE",
"462 1462 LINE",
"390 1073 LINE",
"104 1073 LINE",
"104 813 LINE",
"341 813 LINE",
"310 645 LINE",
"36 645 LINE",
"36 391 LINE",
"261 391 LINE",
"190 0 LINE",
"456 0 LINE",
"528 391 LINE",
"695 391 LINE",
"622 0 LINE",
"890 0 LINE",
"964 391 LINE",
"1255 391 LINE",
"1255 645 LINE",
"1011 645 LINE",
"1042 813 LINE",
"1318 813 LINE"
);
},
{
closed = 1;
nodes = (
"773 813 LINE",
"743 645 LINE",
"577 645 LINE",
"607 813 LINE"
);
}
);
width = 1355;
}
);
note = numbersign;
unicode = 0023;
},
{
glyphname = dollar;
lastChange = "2020-10-12 02:38:09 +0000";
layers = (
{
layerId = "89D8C5C7-992A-4B79-A2F2-D8D3CE0BA992";
paths = (
{
closed = 1;
nodes = (
"567 20 LINE",
"737 29 OFFCURVE",
"960 207 OFFCURVE",
"960 381 QCURVE SMOOTH",
"960 489 OFFCURVE",
"860 625 OFFCURVE",
"682 717 OFFCURVE",
"567 758 QCURVE",
"567 1391 LINE",
"633 1389 OFFCURVE",
"790 1358 OFFCURVE",
"876 1319 QCURVE",
"899 1366 LINE",
"815 1405 OFFCURVE",
"649 1440 OFFCURVE",
"567 1442 QCURVE",
"567 1554 LINE",
"518 1554 LINE",
"518 1442 LINE",
"407 1436 OFFCURVE",
"233 1354 OFFCURVE",
"131 1204 OFFCURVE",
"131 1098 QCURVE SMOOTH",
"131 987 OFFCURVE",
"237 852 OFFCURVE",
"414 762 OFFCURVE",
"518 723 QCURVE",
"518 72 LINE",
"405 74 OFFCURVE",
"209 111 OFFCURVE",
"137 139 QCURVE",
"137 80 LINE",
"201 57 OFFCURVE",
"389 23 OFFCURVE",
"518 20 QCURVE",
"518 -119 LINE",
"567 -119 LINE"
);
},
{
closed = 1;
nodes = (
"281 887 OFFCURVE",
"186 1008 OFFCURVE",
"186 1102 QCURVE SMOOTH",
"186 1196 OFFCURVE",
"274 1321 OFFCURVE",
"426 1386 OFFCURVE",
"518 1391 QCURVE",
"518 776 LINE",
"430 809 OFFCURVE"
);
},
{
closed = 1;
nodes = (
"672 664 OFFCURVE",
"823 582 OFFCURVE",
"905 469 OFFCURVE",
"905 383 QCURVE SMOOTH",
"905 229 OFFCURVE",
"713 80 OFFCURVE",
"567 72 QCURVE",
"567 702 LINE"
);
}
);
width = 1167;
},
{
layerId = "963BFE9B-9129-4C18-A3F3-46AD815B745B";
paths = (
{
closed = 1;
nodes = (
"608 63 LINE",
"791 78 OFFCURVE",
"1008 258 OFFCURVE",
"1008 416 QCURVE SMOOTH",
"1008 520 OFFCURVE",
"911 653 OFFCURVE",
"733 741 OFFCURVE",
"608 782 QCURVE",
"608 1307 LINE",
"682 1303 OFFCURVE",
"840 1266 OFFCURVE",
"915 1233 QCURVE",
"954 1333 LINE",
"801 1403 OFFCURVE",
"608 1409 QCURVE",
"608 1554 LINE",
"518 1554 LINE",
"518 1409 LINE",
"344 1399 OFFCURVE",
"129 1225 OFFCURVE",
"129 1069 QCURVE SMOOTH",
"129 965 OFFCURVE",
"223 827 OFFCURVE",
"397 735 OFFCURVE",
"518 696 QCURVE",
"518 164 LINE",
"410 166 OFFCURVE",
"201 211 OFFCURVE",
"131 240 QCURVE",
"131 123 LINE",
"197 96 OFFCURVE",
"397 61 OFFCURVE",
"518 59 QCURVE",
"518 -119 LINE",
"608 -119 LINE"
);
},
{
closed = 1;
nodes = (
"244 967 OFFCURVE",
"244 1077 QCURVE SMOOTH",
"244 1182 OFFCURVE",
"393 1296 OFFCURVE",
"518 1303 QCURVE",
"518 815 LINE",
"391 856 OFFCURVE"
);
},
{
closed = 1;
nodes = (
"754 618 OFFCURVE",
"893 514 OFFCURVE",
"893 410 QCURVE SMOOTH",
"893 299 OFFCURVE",
"741 180 OFFCURVE",
"608 170 QCURVE",
"608 666 LINE"
);
}
);
width = 1169;
},
{
layerId = "A10A3B8F-5047-4E3E-80F3-6554B53DC79D";
paths = (
{
closed = 1;
nodes = (
"843 129 OFFCURVE",
"1056 307 OFFCURVE",
"1056 451 QCURVE SMOOTH",
"1056 553 OFFCURVE",
"964 682 OFFCURVE",
"783 770 OFFCURVE",
"648 809 QCURVE",
"648 1221 LINE",
"730 1214 OFFCURVE",
"888 1176 OFFCURVE",
"953 1149 QCURVE",
"1009 1300 LINE",
"935 1331 OFFCURVE",
"757 1372 OFFCURVE",
"648 1376 QCURVE",
"648 1554 LINE",
"517 1554 LINE",
"517 1374 LINE",
"337 1364 OFFCURVE",
"126 1192 OFFCURVE",
"126 1040 QCURVE SMOOTH",
"126 895 OFFCURVE",
"314 727 OFFCURVE",
"517 672 QCURVE",
"517 258 LINE",
"413 260 OFFCURVE",
"196 309 OFFCURVE",
"126 342 QCURVE",
"126 168 LINE",
"192 137 OFFCURVE",
"405 102 OFFCURVE",
"517 100 QCURVE",
"517 -119 LINE",
"648 -119 LINE",
"648 109 LINE"
);
},
{
closed = 1;
nodes = (
"302 973 OFFCURVE",
"302 1055 QCURVE SMOOTH",
"302 1122 OFFCURVE",
"407 1208 OFFCURVE",
"517 1217 QCURVE",
"517 854 LINE",
"394 885 OFFCURVE"
);
},
{
closed = 1;
nodes = (
"880 516 OFFCURVE",
"880 438 QCURVE SMOOTH",
"880 369 OFFCURVE",
"769 281 OFFCURVE",
"648 268 QCURVE",
"648 629 LINE",
"781 594 OFFCURVE"
);
}
);
userData = {
assembly = "NPUSHB[ ]	/* 20 values pushed */\01243 42 36 35 27 26 23 22 10 6 10 2 3 34 5 2 1 2 2 76 \012MPPEM[ ]	/* MeasurePixelPerEm */\012PUSHB[ ]	/* 1 value pushed */\01247 \012LT[ ]	/* LessThan */\012IF[ ]	/* If */\012NPUSHB[ ]	/* 28 values pushed */\0125 1 3 4 2 4 3 2 128 0 0 1 0 134 0 2 0 1 0 2 1 106 0 4 4 33 4 78 \012ELSE[ ]	/* Else */\012NPUSHB[ ]	/* 32 values pushed */\0120 4 3 4 133 5 1 3 2 3 133 0 0 1 0 134 0 2 1 1 2 89 0 2 2 1 98 0 1 2 1 82 \012EIF[ ]	/* EndIf */\012NPUSHB[ ]	/* 9 values pushed */\01217 17 22 21 17 16 6 8 28 \012CALL[ ]	/* CallFunction */";
};
width = 1171;
},
{
layerId = "742C6D49-27A7-4CE6-BB95-CE3E85DCFAA1";
paths = (
{
closed = 1;
nodes = (
"655 86 LINE",
"874 106 OFFCURVE",
"1092 307 OFFCURVE",
"1092 457 QCURVE SMOOTH",
"1092 578 OFFCURVE",
"967 725 OFFCURVE",
"766 821 OFFCURVE",
"655 862 QCURVE",
"655 1157 LINE",
"727 1151 OFFCURVE",
"893 1114 OFFCURVE",
"975 1079 QCURVE",
"1069 1313 LINE",
"883 1397 OFFCURVE",
"655 1405 QCURVE",
"655 1554 LINE",
"518 1554 LINE",
"518 1401 LINE",
"328 1384 OFFCURVE",
"88 1202 OFFCURVE",
"88 1049 QCURVE SMOOTH",
"88 948 OFFCURVE",
"170 805 OFFCURVE",
"360 688 OFFCURVE",
"518 627 QCURVE",
"518 317 LINE",
"410 324 OFFCURVE",
"174 391 OFFCURVE",
"90 432 QCURVE",
"90 168 LINE",
"176 129 OFFCURVE",
"385 86 OFFCURVE",
"518 82 QCURVE",
"518 -119 LINE",
"655 -119 LINE"
);
},
{
closed = 1;
nodes = (
"389 1006 OFFCURVE",
"389 1049 QCURVE SMOOTH",
"389 1135 OFFCURVE",
"518 1153 QCURVE",
"518 918 LINE",
"450 948 OFFCURVE"
);
},
{
closed = 1;
nodes = (
"723 543 OFFCURVE",
"790 483 OFFCURVE",
"790 442 QCURVE SMOOTH",
"790 348 OFFCURVE",
"655 324 QCURVE",
"655 573 LINE"
);
}
);
width = 1171;
},
{
layerId = "1AE80326-82F5-491E-9ED8-F639C1D819D6";
paths = (
{
closed = 1;
nodes = (
"684 49 LINE",
"917 74 OFFCURVE",
"1134 305 OFFCURVE",
"1134 471 QCURVE SMOOTH",
"1134 592 OFFCURVE",
"1028 741 OFFCURVE",
"827 838 OFFCURVE",
"684 881 QCURVE",
"684 1128 LINE",
"766 1120 OFFCURVE",
"932 1081 OFFCURVE",
"1007 1049 QCURVE",
"1095 1323 LINE",
"1011 1356 OFFCURVE",
"809 1411 OFFCURVE",
"684 1417 QCURVE",
"684 1556 LINE",
"495 1556 LINE",
"495 1415 LINE",
"295 1401 OFFCURVE",
"53 1214 OFFCURVE",
"53 1028 QCURVE SMOOTH",
"53 897 OFFCURVE",
"168 731 OFFCURVE",
"368 629 OFFCURVE",
"495 592 QCURVE",
"495 340 LINE",
"401 348 OFFCURVE",
"182 399 OFFCURVE",
"86 442 QCURVE",
"86 129 LINE",
"172 92 OFFCURVE",
"364 49 OFFCURVE",
"495 45 QCURVE",
"495 -119 LINE",
"684 -119 LINE"
);
},
{
closed = 1;
nodes = (
"383 1004 OFFCURVE",
"383 1042 QCURVE SMOOTH",
"383 1116 OFFCURVE",
"495 1126 QCURVE",
"495 936 LINE",
"434 956 OFFCURVE"
);
},
{
closed = 1;
nodes = (
"751 524 OFFCURVE",
"801 477 OFFCURVE",
"801 438 QCURVE SMOOTH",
"801 362 OFFCURVE",
"684 344 QCURVE",
"684 545 LINE"
);
}
);
width = 1181;
}
);
note = dollar;
unicode = 0024;
},
{
glyphname = percent;
lastChange = "2020-10-12 02:38:09 +0000";
layers = (
{
layerId = "89D8C5C7-992A-4B79-A2F2-D8D3CE0BA992";
paths = (
{
closed = 1;
nodes = (
"120 1253 OFFCURVE",
"120 1026 QCURVE SMOOTH",
"120 799 OFFCURVE",
"263 565 OFFCURVE",
"399 565 QCURVE SMOOTH",
"532 565 OFFCURVE",
"681 795 OFFCURVE",
"681 1026 QCURVE SMOOTH",
"681 1249 OFFCURVE",
"544 1483 OFFCURVE",
"403 1483 QCURVE SMOOTH",
"272 1483 OFFCURVE"
);
},
{
closed = 1;
nodes = (
"378 0 LINE",
"435 0 LINE",
"1246 1462 LINE",
"1189 1462 LINE"
);
},
{
closed = 1;
nodes = (
"626 1223 OFFCURVE",
"626 1026 QCURVE SMOOTH",
"626 827 OFFCURVE",
"511 616 OFFCURVE",
"399 616 QCURVE SMOOTH",
"290 616 OFFCURVE",
"175 823 OFFCURVE",
"175 1026 QCURVE SMOOTH",
"175 1231 OFFCURVE",
"294 1432 OFFCURVE",
"403 1432 QCURVE SMOOTH",
"519 1432 OFFCURVE"
);
},
{
closed = 1;
nodes = (
"941 668 OFFCURVE",
"941 440 QCURVE SMOOTH",
"941 213 OFFCURVE",
"1085 -20 OFFCURVE",
"1220 -20 QCURVE SMOOTH",
"1351 -20 OFFCURVE",
"1502 209 OFFCURVE",
"1502 440 QCURVE SMOOTH",
"1502 664 OFFCURVE",
"1365 897 OFFCURVE",
"1224 897 QCURVE SMOOTH",
"1093 897 OFFCURVE"
);
},
{
closed = 1;
nodes = (
"1447 637 OFFCURVE",
"1447 440 QCURVE SMOOTH",
"1447 242 OFFCURVE",
"1334 31 OFFCURVE",
"1220 31 QCURVE SMOOTH",
"1113 31 OFFCURVE",
"997 238 OFFCURVE",
"997 440 QCURVE SMOOTH",
"997 645 OFFCURVE",
"1117 846 OFFCURVE",
"1224 846 QCURVE SMOOTH",
"1341 846 OFFCURVE"
);
}
);
width = 1624;
},
{
layerId = "963BFE9B-9129-4C18-A3F3-46AD815B745B";
paths = (
{
closed = 1;
nodes = (
"110 1249 OFFCURVE",
"110 1026 QCURVE SMOOTH",
"110 803 OFFCURVE",
"260 565 OFFCURVE",
"399 565 QCURVE SMOOTH",
"544 565 OFFCURVE",
"694 803 OFFCURVE",
"694 1026 QCURVE SMOOTH",
"694 1245 OFFCURVE",
"546 1483 OFFCURVE",
"401 1483 QCURVE SMOOTH",
"257 1483 OFFCURVE"
);
},
{
closed = 1;
nodes = (
"372 0 LINE",
"479 0 LINE",
"1290 1462 LINE",
"1183 1462 LINE"
);
},
{
closed = 1;
nodes = (
"591 1206 OFFCURVE",
"591 1026 QCURVE SMOOTH",
"591 655 OFFCURVE",
"399 655 QCURVE SMOOTH",
"212 655 OFFCURVE",
"212 1026 QCURVE SMOOTH",
"212 1393 OFFCURVE",
"401 1393 QCURVE SMOOTH",
"499 1393 OFFCURVE"
);
},
{
closed = 1;
nodes = (
"968 664 OFFCURVE",
"968 440 QCURVE SMOOTH",
"968 217 OFFCURVE",
"1116 -20 OFFCURVE",
"1257 -20 QCURVE SMOOTH",
"1400 -20 OFFCURVE",
"1552 217 OFFCURVE",
"1552 440 QCURVE SMOOTH",
"1552 659 OFFCURVE",
"1404 897 OFFCURVE",
"1259 897 QCURVE SMOOTH",
"1116 897 OFFCURVE"
);
},
{
closed = 1;
nodes = (
"1449 621 OFFCURVE",
"1449 440 QCURVE SMOOTH",
"1449 70 OFFCURVE",
"1257 70 QCURVE SMOOTH",
"1071 70 OFFCURVE",
"1071 440 QCURVE SMOOTH",
"1071 807 OFFCURVE",
"1259 807 QCURVE SMOOTH",
"1357 807 OFFCURVE"
);
}
);
width = 1662;
},
{
layerId = "A10A3B8F-5047-4E3E-80F3-6554B53DC79D";
paths = (
{
closed = 1;
nodes = (
"100 1243 OFFCURVE",
"100 1026 QCURVE SMOOTH",
"100 809 OFFCURVE",
"254 565 OFFCURVE",
"399 565 QCURVE SMOOTH",
"557 565 OFFCURVE",
"706 809 OFFCURVE",
"706 1026 QCURVE SMOOTH",
"706 1243 OFFCURVE",
"549 1483 OFFCURVE",
"399 1483 QCURVE SMOOTH",
"243 1483 OFFCURVE"
);
},
{
closed = 1;
nodes = (
"557 1026 QCURVE SMOOTH",
"557 694 OFFCURVE",
"399 694 QCURVE SMOOTH",
"321 694 OFFCURVE",
"250 862 OFFCURVE",
"250 1026 QCURVE SMOOTH",
"250 1190 OFFCURVE",
"321 1356 OFFCURVE",
"399 1356 QCURVE SMOOTH",
"557 1356 OFFCURVE"
);
},
{
closed = 1;
nodes = (
"995 657 OFFCURVE",
"995 440 QCURVE SMOOTH",
"995 223 OFFCURVE",
"1149 -20 OFFCURVE",
"1294 -20 QCURVE SMOOTH",
"1452 -20 OFFCURVE",
"1601 223 OFFCURVE",
"1601 440 QCURVE SMOOTH",
"1601 657 OFFCURVE",
"1443 897 OFFCURVE",
"1294 897 QCURVE SMOOTH",
"1138 897 OFFCURVE"
);
},
{
closed = 1;
nodes = (
"1452 440 QCURVE SMOOTH",
"1452 109 OFFCURVE",
"1294 109 QCURVE SMOOTH",
"1216 109 OFFCURVE",
"1144 274 OFFCURVE",
"1144 440 QCURVE SMOOTH",
"1144 604 OFFCURVE",
"1216 768 OFFCURVE",
"1294 768 QCURVE SMOOTH",
"1452 768 OFFCURVE"
);
},
{
closed = 1;
nodes = (
"1335 1462 LINE",
"1177 1462 LINE",
"366 0 LINE",
"524 0 LINE"
);
}
);
userData = {
assembly = "MPPEM[ ]	/* MeasurePixelPerEm */\012PUSHB[ ]	/* 1 value pushed */\01225 \012LT[ ]	/* LessThan */\012IF[ ]	/* If */\012NPUSHB[ ]	/* 44 values pushed */\01212 1 4 13 1 6 3 4 6 106 0 3 0 1 7 3 1 105 11 1 2 2 0 97 8 10 2 0 0 37 77 0 7 7 5 97 14 9 2 5 5 38 5 78 \012ELSE[ ]	/* Else */\012NPUSHB[ ]	/* 52 values pushed */\01212 1 4 13 1 6 3 4 6 106 0 3 0 1 7 3 1 105 0 8 8 31 77 11 1 2 2 0 97 10 1 0 0 37 77 14 1 9 9 32 77 0 7 7 5 97 0 5 5 38 5 78 \012EIF[ ]	/* EndIf */\012NPUSHB[ ]	/* 43 values pushed */\01244 44 35 34 23 22 13 12 1 0 44 47 44 47 46 45 41 39 34 43 35 43 29 27 22 33 23 33 19 17 12 21 13 21 7 5 0 11 1 11 15 8 22 \012CALL[ ]	/* CallFunction */";
};
width = 1701;
},
{
layerId = "742C6D49-27A7-4CE6-BB95-CE3E85DCFAA1";
paths = (
{
closed = 1;
nodes = (
"63 1243 OFFCURVE",
"63 1026 QCURVE SMOOTH",
"63 809 OFFCURVE",
"237 565 OFFCURVE",
"407 565 QCURVE SMOOTH",
"589 565 OFFCURVE",
"757 809 OFFCURVE",
"757 1026 QCURVE SMOOTH",
"757 1243 OFFCURVE",
"579 1483 OFFCURVE",
"407 1483 QCURVE SMOOTH",
"227 1483 OFFCURVE"
);
},
{
closed = 1;
nodes = (
"395 0 LINE",
"634 0 LINE",
"1445 1462 LINE",
"1206 1462 LINE"
);
},
{
closed = 1;
nodes = (
"505 1024 QCURVE SMOOTH",
"505 772 OFFCURVE",
"409 772 QCURVE SMOOTH",
"315 772 OFFCURVE",
"315 1024 QCURVE SMOOTH",
"315 1274 OFFCURVE",
"409 1274 QCURVE SMOOTH",
"505 1274 OFFCURVE"
);
},
{
closed = 1;
nodes = (
"1087 659 OFFCURVE",
"1087 442 QCURVE SMOOTH",
"1087 225 OFFCURVE",
"1261 -18 OFFCURVE",
"1431 -18 QCURVE SMOOTH",
"1613 -18 OFFCURVE",
"1781 225 OFFCURVE",
"1781 442 QCURVE SMOOTH",
"1781 659 OFFCURVE",
"1603 899 OFFCURVE",
"1431 899 QCURVE SMOOTH",
"1251 899 OFFCURVE"
);
},
{
closed = 1;
nodes = (
"1529 440 QCURVE SMOOTH",
"1529 188 OFFCURVE",
"1433 188 QCURVE SMOOTH",
"1339 188 OFFCURVE",
"1339 440 QCURVE SMOOTH",
"1339 690 OFFCURVE",
"1433 690 QCURVE SMOOTH",
"1529 690 OFFCURVE"
);
}
);
width = 1845;
},
{
layerId = "1AE80326-82F5-491E-9ED8-F639C1D819D6";
paths = (
{
closed = 1;
nodes = (
"36 1243 OFFCURVE",
"36 1026 QCURVE SMOOTH",
"36 809 OFFCURVE",
"241 565 OFFCURVE",
"409 565 QCURVE SMOOTH",
"595 565 OFFCURVE",
"790 809 OFFCURVE",
"790 1026 QCURVE SMOOTH",
"790 1243 OFFCURVE",
"581 1483 OFFCURVE",
"409 1483 QCURVE SMOOTH",
"229 1483 OFFCURVE"
);
},
{
closed = 1;
nodes = (
"411 0 LINE",
"708 0 LINE",
"1519 1462 LINE",
"1222 1462 LINE"
);
},
{
closed = 1;
nodes = (
"489 1122 OFFCURVE",
"489 1022 QCURVE SMOOTH",
"489 922 OFFCURVE",
"456 805 OFFCURVE",
"413 805 QCURVE SMOOTH",
"370 805 OFFCURVE",
"337 924 OFFCURVE",
"337 1022 QCURVE SMOOTH",
"337 1122 OFFCURVE",
"370 1239 OFFCURVE",
"413 1239 QCURVE SMOOTH",
"456 1239 OFFCURVE"
);
},
{
closed = 1;
nodes = (
"1148 662 OFFCURVE",
"1148 444 QCURVE SMOOTH",
"1148 227 OFFCURVE",
"1353 -16 OFFCURVE",
"1521 -16 QCURVE SMOOTH",
"1707 -16 OFFCURVE",
"1902 227 OFFCURVE",
"1902 444 QCURVE SMOOTH",
"1902 662 OFFCURVE",
"1693 901 OFFCURVE",
"1521 901 QCURVE SMOOTH",
"1341 901 OFFCURVE"
);
},
{
closed = 1;
nodes = (
"1601 543 OFFCURVE",
"1601 440 QCURVE SMOOTH",
"1601 340 OFFCURVE",
"1568 223 OFFCURVE",
"1525 223 QCURVE SMOOTH",
"1482 223 OFFCURVE",
"1449 342 OFFCURVE",
"1449 440 QCURVE SMOOTH",
"1449 541 OFFCURVE",
"1482 657 OFFCURVE",
"1525 657 QCURVE SMOOTH",
"1568 657 OFFCURVE"
);
}
);
width = 1941;
}
);
note = percent;
unicode = 0025;
},
{
glyphname = ampersand;
lastChange = "2020-10-12 02:38:09 +0000";
layers = (
{
layerId = "89D8C5C7-992A-4B79-A2F2-D8D3CE0BA992";
paths = (
{
closed = 1;
nodes = (
"285 1319 OFFCURVE",
"285 1180 QCURVE SMOOTH",
"285 1110 OFFCURVE",
"334 995 OFFCURVE",
"432 881 OFFCURVE",
"504 809 QCURVE",
"385 752 OFFCURVE",
"217 635 OFFCURVE",
"129 481 OFFCURVE",
"129 367 QCURVE SMOOTH",
"129 180 OFFCURVE",
"379 -20 OFFCURVE",
"575 -20 QCURVE SMOOTH",
"758 -20 OFFCURVE",
"995 113 OFFCURVE",
"1092 215 QCURVE",
"1294 0 LINE",
"1366 0 LINE",
"1124 250 LINE",
"1194 340 OFFCURVE",
"1300 545 OFFCURVE",
"1329 672 QCURVE",
"1274 672 LINE",
"1249 557 OFFCURVE",
"1151 362 OFFCURVE",
"1090 289 QCURVE",
"592 795 LINE",
"752 872 OFFCURVE",
"942 1049 OFFCURVE",
"942 1190 QCURVE SMOOTH",
"942 1327 OFFCURVE",
"762 1485 OFFCURVE",
"623 1485 QCURVE SMOOTH",
"471 1485 OFFCURVE"
);
},
{
closed = 1;
nodes = (
"887 1303 OFFCURVE",
"887 1190 QCURVE SMOOTH",
"887 1065 OFFCURVE",
"707 899 OFFCURVE",
"551 831 QCURVE",
"451 934 OFFCURVE",
"340 1085 OFFCURVE",
"340 1180 QCURVE SMOOTH",
"340 1296 OFFCURVE",
"491 1434 OFFCURVE",
"623 1434 QCURVE SMOOTH",
"741 1434 OFFCURVE"
);
},
{
closed = 1;
nodes = (
"963 147 OFFCURVE",
"745 31 OFFCURVE",
"575 31 QCURVE SMOOTH",
"401 31 OFFCURVE",
"184 205 OFFCURVE",
"184 367 QCURVE SMOOTH",
"184 471 OFFCURVE",
"266 612 OFFCURVE",
"426 717 OFFCURVE",
"541 772 QCURVE",
"1057 250 LINE"
);
}
);
width = 1437;
},
{
layerId = "963BFE9B-9129-4C18-A3F3-46AD815B745B";
paths = (
{
closed = 1;
nodes = (
"265 1315 OFFCURVE",
"265 1171 QCURVE SMOOTH",
"265 1065 OFFCURVE",
"376 901 OFFCURVE",
"462 811 QCURVE",
"354 754 OFFCURVE",
"200 637 OFFCURVE",
"118 483 OFFCURVE",
"118 373 QCURVE SMOOTH",
"118 182 OFFCURVE",
"368 -20 OFFCURVE",
"573 -20 QCURVE SMOOTH",
"749 -20 OFFCURVE",
"986 98 OFFCURVE",
"1081 193 QCURVE",
"1273 0 LINE",
"1429 0 LINE",
"1158 270 LINE",
"1306 442 OFFCURVE",
"1367 700 QCURVE",
"1248 700 LINE",
"1224 596 OFFCURVE",
"1142 416 OFFCURVE",
"1085 348 QCURVE",
"638 791 LINE",
"780 866 OFFCURVE",
"958 1044 OFFCURVE",
"958 1180 QCURVE SMOOTH",
"958 1323 OFFCURVE",
"773 1485 OFFCURVE",
"622 1485 QCURVE SMOOTH",
"458 1485 OFFCURVE"
);
},
{
closed = 1;
nodes = (
"843 1274 OFFCURVE",
"843 1180 QCURVE SMOOTH",
"843 1075 OFFCURVE",
"700 932 OFFCURVE",
"560 862 QCURVE",
"474 950 OFFCURVE",
"380 1090 OFFCURVE",
"380 1174 QCURVE SMOOTH",
"380 1272 OFFCURVE",
"511 1384 OFFCURVE",
"618 1384 QCURVE SMOOTH",
"720 1384 OFFCURVE"
);
},
{
closed = 1;
nodes = (
"927 186 OFFCURVE",
"724 84 OFFCURVE",
"575 84 QCURVE SMOOTH",
"423 84 OFFCURVE",
"239 240 OFFCURVE",
"239 377 QCURVE SMOOTH",
"239 467 OFFCURVE",
"308 590 OFFCURVE",
"442 686 OFFCURVE",
"536 735 QCURVE",
"1007 266 LINE"
);
}
);
width = 1468;
},
{
layerId = "A10A3B8F-5047-4E3E-80F3-6554B53DC79D";
paths = (
{
closed = 1;
nodes = (
"245 1315 OFFCURVE",
"245 1165 QCURVE SMOOTH",
"245 1053 OFFCURVE",
"358 885 OFFCURVE",
"423 811 QCURVE",
"278 729 OFFCURVE",
"108 537 OFFCURVE",
"108 381 QCURVE SMOOTH",
"108 188 OFFCURVE",
"356 -20 OFFCURVE",
"569 -20 QCURVE SMOOTH",
"739 -20 OFFCURVE",
"976 86 OFFCURVE",
"1073 172 QCURVE",
"1251 0 LINE",
"1494 0 LINE",
"1195 291 LINE",
"1273 375 OFFCURVE",
"1372 598 OFFCURVE",
"1404 731 QCURVE",
"1222 731 LINE",
"1200 635 OFFCURVE",
"1132 469 OFFCURVE",
"1079 406 QCURVE",
"683 786 LINE",
"810 860 OFFCURVE",
"976 1040 OFFCURVE",
"976 1169 QCURVE SMOOTH",
"976 1319 OFFCURVE",
"786 1485 OFFCURVE",
"622 1485 QCURVE SMOOTH",
"446 1485 OFFCURVE"
);
},
{
closed = 1;
nodes = (
"798 1243 OFFCURVE",
"798 1169 QCURVE SMOOTH",
"798 1085 OFFCURVE",
"694 963 OFFCURVE",
"573 893 QCURVE",
"499 969 OFFCURVE",
"421 1094 OFFCURVE",
"421 1167 QCURVE SMOOTH",
"421 1247 OFFCURVE",
"530 1337 OFFCURVE",
"616 1337 QCURVE SMOOTH",
"700 1337 OFFCURVE"
);
},
{
closed = 1;
nodes = (
"706 139 OFFCURVE",
"575 139 QCURVE SMOOTH",
"448 139 OFFCURVE",
"296 274 OFFCURVE",
"296 387 QCURVE SMOOTH",
"296 498 OFFCURVE",
"421 633 OFFCURVE",
"532 698 QCURVE",
"958 285 LINE",
"892 225 OFFCURVE"
);
}
);
userData = {
assembly = "NPUSHB[ ]	/* 15 values pushed */\01238 26 6 3 1 4 45 17 14 7 4 5 1 2 76 \012MPPEM[ ]	/* MeasurePixelPerEm */\012PUSHB[ ]	/* 1 value pushed */\01225 \012LT[ ]	/* LessThan */\012IF[ ]	/* If */\012NPUSHB[ ]	/* 35 values pushed */\0127 1 4 4 0 97 6 1 0 0 37 77 0 1 1 2 97 3 1 2 2 32 77 0 5 5 2 97 3 1 2 2 32 2 78 \012ELSE[ ]	/* Else */\012NPUSHB[ ]	/* 33 values pushed */\0127 1 4 4 0 97 6 1 0 0 37 77 0 1 1 2 95 0 2 2 32 77 0 5 5 3 97 0 3 3 38 3 78 \012EIF[ ]	/* EndIf */\012NPUSHB[ ]	/* 23 values pushed */\01233 32 1 0 52 50 32 43 33 43 21 19 16 15 11 10 0 31 1 31 8 8 22 \012CALL[ ]	/* CallFunction */";
};
width = 1499;
},
{
layerId = "742C6D49-27A7-4CE6-BB95-CE3E85DCFAA1";
paths = (
{
closed = 1;
nodes = (
"314 1401 OFFCURVE",
"206 1249 OFFCURVE",
"206 1145 QCURVE SMOOTH",
"206 1057 OFFCURVE",
"269 901 OFFCURVE",
"349 809 QCURVE",
"224 737 OFFCURVE",
"81 551 OFFCURVE",
"81 395 QCURVE SMOOTH",
"81 209 OFFCURVE",
"362 -20 OFFCURVE",
"611 -20 QCURVE SMOOTH",
"738 -20 OFFCURVE",
"953 51 OFFCURVE",
"1044 113 QCURVE",
"1158 0 LINE",
"1535 0 LINE",
"1234 293 LINE",
"1326 408 OFFCURVE",
"1445 670 OFFCURVE",
"1476 784 QCURVE",
"1158 784 LINE",
"1138 707 OFFCURVE",
"1076 553 OFFCURVE",
"1035 483 QCURVE",
"751 760 LINE",
"876 831 OFFCURVE",
"1044 1024 OFFCURVE",
"1044 1165 QCURVE SMOOTH",
"1044 1266 OFFCURVE",
"937 1409 OFFCURVE",
"753 1483 OFFCURVE",
"634 1483 QCURVE SMOOTH",
"507 1483 OFFCURVE"
);
},
{
closed = 1;
nodes = (
"761 1194 OFFCURVE",
"761 1133 QCURVE SMOOTH",
"761 1071 OFFCURVE",
"669 977 OFFCURVE",
"583 930 QCURVE",
"540 979 OFFCURVE",
"489 1073 OFFCURVE",
"489 1124 QCURVE SMOOTH",
"489 1196 OFFCURVE",
"581 1247 OFFCURVE",
"632 1247 QCURVE SMOOTH",
"679 1247 OFFCURVE"
);
},
{
closed = 1;
nodes = (
"812 268 OFFCURVE",
"697 236 OFFCURVE",
"632 236 QCURVE SMOOTH",
"534 236 OFFCURVE",
"403 336 OFFCURVE",
"403 424 QCURVE SMOOTH",
"403 487 OFFCURVE",
"470 584 OFFCURVE",
"527 627 QCURVE",
"859 297 LINE"
);
}
);
width = 1536;
},
{
layerId = "1AE80326-82F5-491E-9ED8-F639C1D819D6";
paths = (
{
closed = 1;
nodes = (
"212 1284 OFFCURVE",
"212 1133 QCURVE SMOOTH",
"212 1034 OFFCURVE",
"282 877 OFFCURVE",
"343 807 QCURVE",
"212 739 OFFCURVE",
"71 537 OFFCURVE",
"71 406 QCURVE SMOOTH",
"71 287 OFFCURVE",
"194 94 OFFCURVE",
"429 -20 OFFCURVE",
"601 -20 QCURVE SMOOTH",
"724 -20 OFFCURVE",
"878 12 OFFCURVE",
"986 68 OFFCURVE",
"1042 102 QCURVE",
"1140 0 LINE",
"1646 0 LINE",
"1326 307 LINE",
"1402 397 OFFCURVE",
"1533 672 OFFCURVE",
"1566 821 QCURVE",
"1161 821 LINE",
"1130 674 OFFCURVE",
"1056 561 QCURVE",
"857 750 LINE",
"974 819 OFFCURVE",
"1122 1006 OFFCURVE",
"1122 1133 QCURVE SMOOTH",
"1122 1296 OFFCURVE",
"882 1481 OFFCURVE",
"675 1481 QCURVE SMOOTH",
"448 1481 OFFCURVE"
);
},
{
closed = 1;
nodes = (
"769 1182 OFFCURVE",
"769 1133 QCURVE SMOOTH",
"769 1085 OFFCURVE",
"710 997 OFFCURVE",
"653 965 QCURVE",
"618 997 OFFCURVE",
"565 1075 OFFCURVE",
"565 1120 QCURVE SMOOTH",
"565 1176 OFFCURVE",
"628 1225 OFFCURVE",
"669 1225 QCURVE SMOOTH",
"712 1225 OFFCURVE"
);
},
{
closed = 1;
nodes = (
"782 322 OFFCURVE",
"696 291 OFFCURVE",
"638 291 QCURVE SMOOTH",
"565 291 OFFCURVE",
"474 371 OFFCURVE",
"474 434 QCURVE SMOOTH",
"474 479 OFFCURVE",
"513 559 OFFCURVE",
"556 592 QCURVE",
"804 340 LINE"
);
}
);
width = 1636;
}
);
note = ampersand;
unicode = 0026;
},
{
glyphname = quotesingle;
lastChange = "2020-10-12 02:38:09 +0000";
layers = (
{
layerId = "89D8C5C7-992A-4B79-A2F2-D8D3CE0BA992";
paths = (
{
closed = 1;
nodes = (
"157 934 LINE",
"198 934 LINE",
"206 1462 LINE",
"149 1462 LINE"
);
}
);
width = 352;
},
{
layerId = "963BFE9B-9129-4C18-A3F3-46AD815B745B";
paths = (
{
closed = 1;
nodes = (
"166 934 LINE",
"241 934 LINE",
"266 1462 LINE",
"141 1462 LINE"
);
}
);
width = 405;
},
{
layerId = "A10A3B8F-5047-4E3E-80F3-6554B53DC79D";
paths = (
{
closed = 1;
nodes = (
"328 1462 LINE",
"133 1462 LINE",
"174 934 LINE",
"287 934 LINE"
);
}
);
userData = {
assembly = "NPUSHB[ ]	/* 22 values pushed */\0122 1 1 1 0 95 0 0 0 31 1 78 0 0 0 3 0 3 17 3 8 23 \012CALL[ ]	/* CallFunction */";
};
width = 460;
},
{
layerId = "742C6D49-27A7-4CE6-BB95-CE3E85DCFAA1";
paths = (
{
closed = 1;
nodes = (
"174 934 LINE",
"371 934 LINE",
"412 1462 LINE",
"133 1462 LINE"
);
}
);
width = 544;
},
{
layerId = "1AE80326-82F5-491E-9ED8-F639C1D819D6";
paths = (
{
closed = 1;
nodes = (
"161 934 LINE",
"435 934 LINE",
"476 1462 LINE",
"120 1462 LINE"
);
}
);
width = 598;
}
);
note = quotesingle;
unicode = 0027;
},
{
glyphname = parenleft;
lastChange = "2020-10-12 02:38:09 +0000";
layers = (
{
layerId = "89D8C5C7-992A-4B79-A2F2-D8D3CE0BA992";
paths = (
{
closed = 1;
nodes = (
"244 -152 OFFCURVE",
"383 -324 QCURVE",
"451 -324 LINE",
"295 -141 OFFCURVE",
"141 307 OFFCURVE",
"141 563 QCURVE SMOOTH",
"141 821 OFFCURVE",
"293 1282 OFFCURVE",
"451 1462 QCURVE",
"383 1462 LINE",
"244 1296 OFFCURVE",
"86 834 OFFCURVE",
"86 561 QCURVE SMOOTH",
"86 293 OFFCURVE"
);
}
);
width = 522;
},
{
layerId = "963BFE9B-9129-4C18-A3F3-46AD815B745B";
paths = (
{
closed = 1;
nodes = (
"235 -147 OFFCURVE",
"382 -324 QCURVE",
"499 -324 LINE",
"351 -135 OFFCURVE",
"202 315 OFFCURVE",
"202 563 QCURVE SMOOTH",
"202 813 OFFCURVE",
"351 1274 OFFCURVE",
"501 1462 QCURVE",
"382 1462 LINE",
"235 1286 OFFCURVE",
"83 823 OFFCURVE",
"83 561 QCURVE SMOOTH",
"83 303 OFFCURVE"
);
}
);
width = 569;
},
{
layerId = "A10A3B8F-5047-4E3E-80F3-6554B53DC79D";
paths = (
{
closed = 1;
nodes = (
"226 -143 OFFCURVE",
"382 -324 QCURVE",
"550 -324 LINE",
"409 -131 OFFCURVE",
"263 326 OFFCURVE",
"263 563 QCURVE SMOOTH",
"263 807 OFFCURVE",
"409 1270 OFFCURVE",
"552 1462 QCURVE",
"382 1462 LINE",
"226 1276 OFFCURVE",
"81 811 OFFCURVE",
"81 561 QCURVE SMOOTH",
"81 313 OFFCURVE"
);
}
);
userData = {
assembly = "NPUSHB[ ]	/* 16 values pushed */\0120 1 0 1 134 0 0 0 31 0 78 22 19 2 8 24 \012CALL[ ]	/* CallFunction */";
};
width = 614;
},
{
layerId = "742C6D49-27A7-4CE6-BB95-CE3E85DCFAA1";
paths = (
{
closed = 1;
nodes = (
"226 -143 OFFCURVE",
"382 -324 QCURVE",
"630 -324 LINE",
"491 -135 OFFCURVE",
"347 326 OFFCURVE",
"347 563 QCURVE SMOOTH",
"347 807 OFFCURVE",
"493 1270 OFFCURVE",
"632 1462 QCURVE",
"382 1462 LINE",
"226 1276 OFFCURVE",
"81 811 OFFCURVE",
"81 561 QCURVE SMOOTH",
"81 313 OFFCURVE"
);
}
);
width = 694;
},
{
layerId = "1AE80326-82F5-491E-9ED8-F639C1D819D6";
paths = (
{
closed = 1;
nodes = (
"126 92 OFFCURVE",
"251 -205 OFFCURVE",
"354 -324 QCURVE",
"677 -324 LINE",
"585 -199 OFFCURVE",
"470 102 OFFCURVE",
"417 426 OFFCURVE",
"417 584 QCURVE SMOOTH",
"417 827 OFFCURVE",
"540 1311 OFFCURVE",
"679 1503 QCURVE",
"354 1503 LINE",
"251 1380 OFFCURVE",
"126 1077 OFFCURVE",
"73 750 OFFCURVE",
"73 582 QCURVE SMOOTH",
"73 418 OFFCURVE"
);
}
);
width = 735;
}
);
note = parenleft;
unicode = 0028;
},
{
glyphname = parenright;
lastChange = "2020-10-12 02:38:09 +0000";
layers = (
{
layerId = "89D8C5C7-992A-4B79-A2F2-D8D3CE0BA992";
paths = (
{
closed = 1;
nodes = (
"280 1290 OFFCURVE",
"141 1462 QCURVE",
"73 1462 LINE",
"229 1280 OFFCURVE",
"382 831 OFFCURVE",
"382 575 QCURVE SMOOTH",
"382 317 OFFCURVE",
"231 -143 OFFCURVE",
"73 -324 QCURVE",
"141 -324 LINE",
"280 -158 OFFCURVE",
"438 305 OFFCURVE",
"438 578 QCURVE SMOOTH",
"438 846 OFFCURVE"
);
}
);
width = 522;
},
{
layerId = "963BFE9B-9129-4C18-A3F3-46AD815B745B";
paths = (
{
closed = 1;
nodes = (
"333 1284 OFFCURVE",
"186 1462 QCURVE",
"67 1462 LINE",
"217 1274 OFFCURVE",
"366 819 OFFCURVE",
"366 569 QCURVE SMOOTH",
"366 319 OFFCURVE",
"219 -135 OFFCURVE",
"69 -324 QCURVE",
"186 -324 LINE",
"333 -152 OFFCURVE",
"485 309 OFFCURVE",
"485 569 QCURVE SMOOTH",
"485 829 OFFCURVE"
);
}
);
width = 569;
},
{
layerId = "A10A3B8F-5047-4E3E-80F3-6554B53DC79D";
paths = (
{
closed = 1;
nodes = (
"387 1276 OFFCURVE",
"231 1462 QCURVE",
"61 1462 LINE",
"204 1270 OFFCURVE",
"350 807 OFFCURVE",
"350 563 QCURVE SMOOTH",
"350 326 OFFCURVE",
"204 -131 OFFCURVE",
"63 -324 QCURVE",
"231 -324 LINE",
"387 -143 OFFCURVE",
"532 313 OFFCURVE",
"532 561 QCURVE SMOOTH",
"532 811 OFFCURVE"
);
}
);
userData = {
assembly = "NPUSHB[ ]	/* 16 values pushed */\0120 0 1 0 134 0 1 1 31 1 78 22 19 2 8 24 \012CALL[ ]	/* CallFunction */";
};
width = 614;
},
{
layerId = "742C6D49-27A7-4CE6-BB95-CE3E85DCFAA1";
paths = (
{
closed = 1;
nodes = (
"467 1276 OFFCURVE",
"311 1462 QCURVE",
"61 1462 LINE",
"200 1270 OFFCURVE",
"346 807 OFFCURVE",
"346 563 QCURVE SMOOTH",
"346 326 OFFCURVE",
"200 -135 OFFCURVE",
"63 -324 QCURVE",
"311 -324 LINE",
"467 -143 OFFCURVE",
"612 313 OFFCURVE",
"612 561 QCURVE SMOOTH",
"612 811 OFFCURVE"
);
}
);
width = 694;
},
{
layerId = "1AE80326-82F5-491E-9ED8-F639C1D819D6";
paths = (
{
closed = 1;
nodes = (
"608 1077 OFFCURVE",
"483 1380 OFFCURVE",
"381 1503 QCURVE",
"55 1503 LINE",
"192 1311 OFFCURVE",
"317 827 OFFCURVE",
"317 584 QCURVE SMOOTH",
"317 426 OFFCURVE",
"264 102 OFFCURVE",
"147 -199 OFFCURVE",
"57 -324 QCURVE",
"381 -324 LINE",
"483 -205 OFFCURVE",
"608 92 OFFCURVE",
"661 418 OFFCURVE",
"661 582 QCURVE SMOOTH",
"661 750 OFFCURVE"
);
}
);
width = 735;
}
);
note = parenright;
unicode = 0029;
},
{
glyphname = asterisk;
lastChange = "2020-10-12 02:38:09 +0000";
layers = (
{
layerId = "89D8C5C7-992A-4B79-A2F2-D8D3CE0BA992";
paths = (
{
closed = 1;
nodes = (
"542 1130 LINE",
"144 1272 LINE",
"126 1217 LINE",
"532 1100 LINE",
"276 766 LINE",
"323 733 LINE",
"558 1079 LINE",
"796 731 LINE",
"843 766 LINE",
"587 1100 LINE",
"988 1217 LINE",
"972 1272 LINE",
"575 1130 LINE",
"587 1552 LINE",
"529 1552 LINE"
);
}
);
width = 1128;
},
{
layerId = "963BFE9B-9129-4C18-A3F3-46AD815B745B";
paths = (
{
closed = 1;
nodes = (
"522 1147 LINE",
"129 1274 LINE",
"106 1151 LINE",
"495 1077 LINE",
"245 750 LINE",
"360 684 LINE",
"557 1036 LINE",
"763 684 LINE",
"876 750 LINE",
"626 1077 LINE",
"1015 1151 LINE",
"991 1274 LINE",
"598 1147 LINE",
"622 1554 LINE",
"495 1554 LINE"
);
}
);
width = 1128;
},
{
layerId = "A10A3B8F-5047-4E3E-80F3-6554B53DC79D";
paths = (
{
closed = 1;
nodes = (
"83 1085 LINE",
"456 1055 LINE",
"216 731 LINE",
"398 635 LINE",
"556 993 LINE",
"730 635 LINE",
"906 731 LINE",
"663 1055 LINE",
"1039 1085 LINE",
"1011 1274 LINE",
"618 1163 LINE",
"658 1556 LINE",
"458 1556 LINE",
"501 1163 LINE",
"112 1274 LINE"
);
}
);
userData = {
assembly = "NPUSHB[ ]	/* 15 values pushed */\01214 13 12 11 10 9 8 7 6 5 4 3 12 0 73 \012MPPEM[ ]	/* MeasurePixelPerEm */\012PUSHB[ ]	/* 1 value pushed */\01241 \012LT[ ]	/* LessThan */\012IF[ ]	/* If */\012PUSHB[ ]	/* 6 values pushed */\0120 0 0 33 0 78 \012ELSE[ ]	/* Else */\012PUSHB[ ]	/* 4 values pushed */\0120 0 0 118 \012EIF[ ]	/* EndIf */\012PUSHB[ ]	/* 4 values pushed */\01217 1 8 23 \012CALL[ ]	/* CallFunction */";
};
width = 1128;
},
{
layerId = "742C6D49-27A7-4CE6-BB95-CE3E85DCFAA1";
paths = (
{
closed = 1;
nodes = (
"466 1188 LINE",
"102 1292 LINE",
"63 1042 LINE",
"401 1016 LINE",
"180 719 LINE",
"415 600 LINE",
"552 911 LINE",
"708 598 LINE",
"935 719 LINE",
"712 1016 LINE",
"1052 1040 LINE",
"1019 1292 LINE",
"647 1188 LINE",
"688 1556 LINE",
"425 1556 LINE"
);
}
);
width = 1116;
},
{
layerId = "1AE80326-82F5-491E-9ED8-F639C1D819D6";
paths = (
{
closed = 1;
nodes = (
"438 1204 LINE",
"90 1305 LINE",
"45 1014 LINE",
"358 989 LINE",
"151 711 LINE",
"424 575 LINE",
"547 856 LINE",
"690 573 LINE",
"950 711 LINE",
"743 989 LINE",
"1057 1010 LINE",
"1020 1305 LINE",
"663 1204 LINE",
"702 1556 LINE",
"399 1556 LINE"
);
}
);
width = 1099;
}
);
note = asterisk;
unicode = 002A;
},
{
glyphname = plus;
lastChange = "2020-10-12 02:38:09 +0000";
layers = (
{
layerId = "89D8C5C7-992A-4B79-A2F2-D8D3CE0BA992";
paths = (
{
closed = 1;
nodes = (
"558 1194 LINE",
"558 748 LINE",
"112 748 LINE",
"112 698 LINE",
"558 698 LINE",
"558 252 LINE",
"608 252 LINE",
"608 698 LINE",
"1054 698 LINE",
"1054 748 LINE",
"608 748 LINE",
"608 1194 LINE"
);
}
);
width = 1167;
},
{
layerId = "963BFE9B-9129-4C18-A3F3-46AD815B745B";
paths = (
{
closed = 1;
nodes = (
"534 1206 LINE",
"534 770 LINE",
"106 770 LINE",
"106 674 LINE",
"534 674 LINE",
"534 240 LINE",
"632 240 LINE",
"632 674 LINE",
"1060 674 LINE",
"1060 770 LINE",
"632 770 LINE",
"632 1206 LINE"
);
}
);
width = 1169;
},
{
layerId = "A10A3B8F-5047-4E3E-80F3-6554B53DC79D";
paths = (
{
closed = 1;
nodes = (
"102 795 LINE",
"102 649 LINE",
"510 649 LINE",
"510 227 LINE",
"657 227 LINE",
"657 649 LINE",
"1065 649 LINE",
"1065 795 LINE",
"657 795 LINE",
"657 1219 LINE",
"510 1219 LINE",
"510 795 LINE"
);
}
);
userData = {
assembly = "NPUSHB[ ]	/* 35 values pushed */\0120 0 1 3 0 87 5 1 1 4 1 2 3 1 2 103 0 0 0 3 95 0 3 0 3 79 17 17 17 17 17 16 6 8 28 \012CALL[ ]	/* CallFunction */";
};
width = 1171;
},
{
layerId = "742C6D49-27A7-4CE6-BB95-CE3E85DCFAA1";
paths = (
{
closed = 1;
nodes = (
"475 1221 LINE",
"475 831 LINE",
"88 831 LINE",
"88 612 LINE",
"475 612 LINE",
"475 227 LINE",
"694 227 LINE",
"694 612 LINE",
"1081 612 LINE",
"1081 831 LINE",
"694 831 LINE",
"694 1221 LINE"
);
}
);
width = 1171;
},
{
layerId = "1AE80326-82F5-491E-9ED8-F639C1D819D6";
paths = (
{
closed = 1;
nodes = (
"465 1223 LINE",
"465 856 LINE",
"92 856 LINE",
"92 588 LINE",
"465 588 LINE",
"465 227 LINE",
"733 227 LINE",
"733 588 LINE",
"1106 588 LINE",
"1106 856 LINE",
"733 856 LINE",
"733 1223 LINE"
);
}
);
width = 1200;
}
);
note = plus;
unicode = 002B;
},
{
glyphname = comma;
lastChange = "2020-10-12 02:38:09 +0000";
layers = (
{
layerId = "89D8C5C7-992A-4B79-A2F2-D8D3CE0BA992";
paths = (
{
closed = 1;
nodes = (
"175 121 OFFCURVE",
"122 -115 OFFCURVE",
"77 -264 QCURVE",
"122 -264 LINE",
"165 -158 OFFCURVE",
"233 98 OFFCURVE",
"255 213 QCURVE",
"249 238 LINE",
"192 238 LINE"
);
}
);
width = 374;
},
{
layerId = "963BFE9B-9129-4C18-A3F3-46AD815B745B";
paths = (
{
closed = 1;
nodes = (
"157 8 OFFCURVE",
"81 -264 QCURVE",
"169 -264 LINE",
"216 -156 OFFCURVE",
"298 102 OFFCURVE",
"323 213 QCURVE",
"314 238 LINE",
"187 238 LINE"
);
}
);
width = 462;
},
{
layerId = "A10A3B8F-5047-4E3E-80F3-6554B53DC79D";
paths = (
{
closed = 1;
nodes = (
"112 -147 OFFCURVE",
"83 -264 QCURVE",
"216 -264 LINE",
"265 -154 OFFCURVE",
"364 106 OFFCURVE",
"392 215 QCURVE",
"378 238 LINE",
"185 238 LINE",
"171 131 OFFCURVE"
);
}
);
userData = {
assembly = "NPUSHB[ ]	/* 21 values pushed */\0120 0 1 1 0 87 0 0 0 1 95 0 1 0 1 79 20 16 2 8 24 \012CALL[ ]	/* CallFunction */";
};
width = 548;
},
{
layerId = "742C6D49-27A7-4CE6-BB95-CE3E85DCFAA1";
paths = (
{
closed = 1;
nodes = (
"147 131 OFFCURVE",
"92 -143 OFFCURVE",
"63 -264 QCURVE",
"282 -264 LINE",
"333 -152 OFFCURVE",
"430 106 OFFCURVE",
"458 215 QCURVE",
"444 238 LINE",
"163 238 LINE"
);
}
);
width = 583;
},
{
layerId = "1AE80326-82F5-491E-9ED8-F639C1D819D6";
paths = (
{
closed = 1;
nodes = (
"147 217 OFFCURVE",
"114 16 OFFCURVE",
"77 -193 OFFCURVE",
"57 -285 QCURVE",
"336 -285 LINE",
"368 -209 OFFCURVE",
"436 -2 OFFCURVE",
"493 203 OFFCURVE",
"512 276 QCURVE",
"497 299 LINE",
"155 299 LINE"
);
}
);
width = 632;
}
);
note = comma;
unicode = 002C;
},
{
glyphname = hyphen;
lastChange = "2020-10-12 02:38:09 +0000";
layers = (
{
layerId = "89D8C5C7-992A-4B79-A2F2-D8D3CE0BA992";
paths = (
{
closed = 1;
nodes = (
"577 582 LINE",
"81 582 LINE",
"81 530 LINE",
"577 530 LINE"
);
}
);
width = 659;
},
{
layerId = "963BFE9B-9129-4C18-A3F3-46AD815B745B";
paths = (
{
closed = 1;
nodes = (
"577 606 LINE",
"81 606 LINE",
"81 500 LINE",
"577 500 LINE"
);
}
);
width = 659;
},
{
layerId = "A10A3B8F-5047-4E3E-80F3-6554B53DC79D";
paths = (
{
closed = 1;
nodes = (
"81 469 LINE",
"577 469 LINE",
"577 629 LINE",
"81 629 LINE"
);
}
);
userData = {
assembly = "NPUSHB[ ]	/* 28 values pushed */\0122 1 1 0 0 1 87 2 1 1 1 0 95 0 0 1 0 79 0 0 0 3 0 3 17 3 8 23 \012CALL[ ]	/* CallFunction */";
};
width = 659;
},
{
layerId = "742C6D49-27A7-4CE6-BB95-CE3E85DCFAA1";
paths = (
{
closed = 1;
nodes = (
"598 674 LINE",
"61 674 LINE",
"61 424 LINE",
"598 424 LINE"
);
}
);
width = 659;
},
{
layerId = "1AE80326-82F5-491E-9ED8-F639C1D819D6";
paths = (
{
closed = 1;
nodes = (
"608 705 LINE",
"43 705 LINE",
"43 393 LINE",
"608 393 LINE"
);
}
);
width = 651;
}
);
note = hyphen;
unicode = 002D;
},
{
glyphname = period;
lastChange = "2020-10-12 02:38:09 +0000";
layers = (
{
layerId = "89D8C5C7-992A-4B79-A2F2-D8D3CE0BA992";
paths = (
{
closed = 1;
nodes = (
"194 -16 OFFCURVE",
"225 -16 QCURVE SMOOTH",
"262 -16 OFFCURVE",
"280 20 OFFCURVE",
"280 47 QCURVE SMOOTH",
"280 72 OFFCURVE",
"262 111 OFFCURVE",
"225 111 QCURVE SMOOTH",
"194 111 OFFCURVE",
"174 72 OFFCURVE",
"174 47 QCURVE SMOOTH",
"174 20 OFFCURVE"
);
}
);
width = 450;
},
{
layerId = "963BFE9B-9129-4C18-A3F3-46AD815B745B";
paths = (
{
closed = 1;
nodes = (
"249 -23 QCURVE SMOOTH",
"339 -23 OFFCURVE",
"339 78 QCURVE SMOOTH",
"339 178 OFFCURVE",
"249 178 QCURVE SMOOTH",
"159 178 OFFCURVE",
"159 78 QCURVE SMOOTH",
"159 -23 OFFCURVE"
);
}
);
width = 499;
},
{
layerId = "A10A3B8F-5047-4E3E-80F3-6554B53DC79D";
paths = (
{
closed = 1;
nodes = (
"221 -29 OFFCURVE",
"272 -29 QCURVE SMOOTH",
"323 -29 OFFCURVE",
"401 37 OFFCURVE",
"401 111 QCURVE SMOOTH",
"401 186 OFFCURVE",
"323 248 OFFCURVE",
"272 248 QCURVE SMOOTH",
"221 248 OFFCURVE",
"147 186 OFFCURVE",
"147 111 QCURVE SMOOTH",
"147 37 OFFCURVE"
);
}
);
userData = {
assembly = "NPUSHB[ ]	/* 16 values pushed */\0120 0 0 1 97 0 1 1 38 1 78 36 34 2 8 24 \012CALL[ ]	/* CallFunction */";
};
width = 548;
},
{
layerId = "742C6D49-27A7-4CE6-BB95-CE3E85DCFAA1";
paths = (
{
closed = 1;
nodes = (
"218 -27 OFFCURVE",
"292 -27 QCURVE SMOOTH",
"364 -27 OFFCURVE",
"466 53 OFFCURVE",
"466 143 QCURVE SMOOTH",
"466 238 OFFCURVE",
"364 313 OFFCURVE",
"292 313 QCURVE SMOOTH",
"218 313 OFFCURVE",
"116 238 OFFCURVE",
"116 143 QCURVE SMOOTH",
"116 53 OFFCURVE"
);
}
);
width = 583;
},
{
layerId = "1AE80326-82F5-491E-9ED8-F639C1D819D6";
paths = (
{
closed = 1;
nodes = (
"211 -25 OFFCURVE",
"299 -25 QCURVE SMOOTH",
"381 -25 OFFCURVE",
"504 66 OFFCURVE",
"504 166 QCURVE SMOOTH",
"504 272 OFFCURVE",
"381 358 OFFCURVE",
"299 358 QCURVE SMOOTH",
"211 358 OFFCURVE",
"86 272 OFFCURVE",
"86 166 QCURVE SMOOTH",
"86 66 OFFCURVE"
);
}
);
width = 591;
}
);
note = period;
unicode = 002E;
},
{
glyphname = slash;
lastChange = "2020-10-12 02:38:09 +0000";
layers = (
{
layerId = "89D8C5C7-992A-4B79-A2F2-D8D3CE0BA992";
paths = (
{
closed = 1;
nodes = (
"26 0 LINE",
"83 0 LINE",
"632 1462 LINE",
"575 1462 LINE"
);
}
);
width = 659;
},
{
layerId = "963BFE9B-9129-4C18-A3F3-46AD815B745B";
paths = (
{
closed = 1;
nodes = (
"24 0 LINE",
"139 0 LINE",
"688 1462 LINE",
"569 1462 LINE"
);
}
);
width = 710;
},
{
layerId = "A10A3B8F-5047-4E3E-80F3-6554B53DC79D";
paths = (
{
closed = 1;
nodes = (
"741 1462 LINE",
"565 1462 LINE",
"20 0 LINE",
"196 0 LINE"
);
}
);
userData = {
assembly = "NPUSHB[ ]	/* 22 values pushed */\0120 0 0 31 77 2 1 1 1 32 1 78 0 0 0 3 0 3 17 3 8 23 \012CALL[ ]	/* CallFunction */";
};
width = 761;
},
{
layerId = "742C6D49-27A7-4CE6-BB95-CE3E85DCFAA1";
paths = (
{
closed = 1;
nodes = (
"14 0 LINE",
"290 0 LINE",
"835 1462 LINE",
"559 1462 LINE"
);
}
);
width = 845;
},
{
layerId = "1AE80326-82F5-491E-9ED8-F639C1D819D6";
paths = (
{
closed = 1;
nodes = (
"10 -20 LINE",
"356 -20 LINE",
"901 1483 LINE",
"555 1483 LINE"
);
}
);
width = 905;
}
);
note = slash;
unicode = 002F;
},
{
glyphname = zero;
lastChange = "2020-10-12 02:38:09 +0000";
layers = (
{
layerId = "89D8C5C7-992A-4B79-A2F2-D8D3CE0BA992";
paths = (
{
closed = 1;
nodes = (
"955 1294 OFFCURVE",
"759 1485 OFFCURVE",
"585 1485 QCURVE SMOOTH",
"417 1485 OFFCURVE",
"214 1288 OFFCURVE",
"126 950 OFFCURVE",
"126 737 QCURVE SMOOTH",
"126 352 OFFCURVE",
"366 -20 OFFCURVE",
"583 -20 QCURVE SMOOTH",
"1037 -20 OFFCURVE",
"1037 737 QCURVE SMOOTH",
"1037 956 OFFCURVE"
);
},
{
closed = 1;
nodes = (
"255 1253 OFFCURVE",
"431 1434 OFFCURVE",
"585 1434 QCURVE SMOOTH",
"742 1434 OFFCURVE",
"914 1260 OFFCURVE",
"982 946 OFFCURVE",
"982 737 QCURVE SMOOTH",
"982 379 OFFCURVE",
"794 31 OFFCURVE",
"583 31 QCURVE SMOOTH",
"384 31 OFFCURVE",
"181 377 OFFCURVE",
"181 737 QCURVE SMOOTH",
"181 938 OFFCURVE"
);
}
);
width = 1167;
},
{
layerId = "963BFE9B-9129-4C18-A3F3-46AD815B745B";
paths = (
{
closed = 1;
nodes = (
"960 1300 OFFCURVE",
"753 1485 OFFCURVE",
"585 1485 QCURVE SMOOTH",
"413 1485 OFFCURVE",
"206 1296 OFFCURVE",
"114 958 OFFCURVE",
"114 735 QCURVE SMOOTH",
"114 365 OFFCURVE",
"352 -20 OFFCURVE",
"583 -20 QCURVE SMOOTH",
"827 -20 OFFCURVE",
"1054 369 OFFCURVE",
"1054 735 QCURVE SMOOTH",
"1054 963 OFFCURVE"
);
},
{
closed = 1;
nodes = (
"296 1227 OFFCURVE",
"452 1382 OFFCURVE",
"585 1382 QCURVE SMOOTH",
"718 1382 OFFCURVE",
"872 1229 OFFCURVE",
"935 938 OFFCURVE",
"935 735 QCURVE SMOOTH",
"935 406 OFFCURVE",
"769 82 OFFCURVE",
"583 82 QCURVE SMOOTH",
"401 82 OFFCURVE",
"231 406 OFFCURVE",
"231 735 QCURVE SMOOTH",
"231 936 OFFCURVE"
);
}
);
width = 1169;
},
{
layerId = "A10A3B8F-5047-4E3E-80F3-6554B53DC79D";
paths = (
{
closed = 1;
nodes = (
"829 1485 OFFCURVE",
"583 1485 QCURVE SMOOTH",
"409 1485 OFFCURVE",
"196 1307 OFFCURVE",
"100 971 OFFCURVE",
"100 733 QCURVE SMOOTH",
"100 379 OFFCURVE",
"336 -20 OFFCURVE",
"583 -20 QCURVE SMOOTH",
"757 -20 OFFCURVE",
"972 160 OFFCURVE",
"1071 496 OFFCURVE",
"1071 733 QCURVE SMOOTH",
"1071 1090 OFFCURVE"
);
},
{
closed = 1;
nodes = (
"417 1331 OFFCURVE",
"583 1331 QCURVE SMOOTH",
"747 1331 OFFCURVE",
"888 1032 OFFCURVE",
"888 733 QCURVE SMOOTH",
"888 430 OFFCURVE",
"747 133 OFFCURVE",
"583 133 QCURVE SMOOTH",
"417 133 OFFCURVE",
"280 432 OFFCURVE",
"280 733 QCURVE SMOOTH",
"280 1032 OFFCURVE"
);
}
);
userData = {
assembly = "NPUSHB[ ]	/* 28 values pushed */\0120 3 3 1 97 0 1 1 37 77 0 2 2 0 97 0 0 0 38 0 78 36 36 37 35 4 8 26 \012CALL[ ]	/* CallFunction */";
};
width = 1171;
},
{
layerId = "742C6D49-27A7-4CE6-BB95-CE3E85DCFAA1";
paths = (
{
closed = 1;
nodes = (
"845 1485 OFFCURVE",
"583 1485 QCURVE SMOOTH",
"397 1485 OFFCURVE",
"171 1305 OFFCURVE",
"73 967 OFFCURVE",
"73 731 QCURVE SMOOTH",
"73 377 OFFCURVE",
"319 -20 OFFCURVE",
"583 -20 QCURVE SMOOTH",
"769 -20 OFFCURVE",
"995 160 OFFCURVE",
"1095 496 OFFCURVE",
"1095 731 QCURVE SMOOTH",
"1095 1087 OFFCURVE"
);
},
{
closed = 1;
nodes = (
"466 1235 OFFCURVE",
"583 1235 QCURVE SMOOTH",
"698 1235 OFFCURVE",
"788 981 OFFCURVE",
"788 731 QCURVE SMOOTH",
"788 479 OFFCURVE",
"698 229 OFFCURVE",
"583 229 QCURVE SMOOTH",
"466 229 OFFCURVE",
"380 481 OFFCURVE",
"380 731 QCURVE SMOOTH",
"380 981 OFFCURVE"
);
}
);
width = 1171;
},
{
layerId = "1AE80326-82F5-491E-9ED8-F639C1D819D6";
paths = (
{
closed = 1;
nodes = (
"872 1483 OFFCURVE",
"599 1483 QCURVE SMOOTH",
"405 1483 OFFCURVE",
"171 1303 OFFCURVE",
"71 967 OFFCURVE",
"71 729 QCURVE SMOOTH",
"71 377 OFFCURVE",
"325 -20 OFFCURVE",
"599 -20 QCURVE SMOOTH",
"794 -20 OFFCURVE",
"1027 160 OFFCURVE",
"1128 496 OFFCURVE",
"1128 729 QCURVE SMOOTH",
"1128 1085 OFFCURVE"
);
},
{
closed = 1;
nodes = (
"515 1167 OFFCURVE",
"599 1167 QCURVE SMOOTH",
"681 1167 OFFCURVE",
"735 946 OFFCURVE",
"735 729 QCURVE SMOOTH",
"735 512 OFFCURVE",
"681 295 OFFCURVE",
"599 295 QCURVE SMOOTH",
"515 295 OFFCURVE",
"464 514 OFFCURVE",
"464 729 QCURVE SMOOTH",
"464 946 OFFCURVE"
);
}
);
width = 1200;
}
);
note = zero;
unicode = 0030;
},
{
glyphname = one;
lastChange = "2020-10-12 02:38:09 +0000";
layers = (
{
layerId = "89D8C5C7-992A-4B79-A2F2-D8D3CE0BA992";
paths = (
{
closed = 1;
nodes = (
"607 1462 LINE",
"208 1171 LINE",
"241 1128 LINE",
"493 1315 LINE SMOOTH",
"532 1343 OFFCURVE",
"579 1380 OFFCURVE",
"603 1403 QCURVE",
"601 1362 OFFCURVE",
"601 1241 OFFCURVE",
"601 1153 QCURVE SMOOTH",
"601 0 LINE",
"654 0 LINE",
"654 1462 LINE"
);
}
);
width = 1167;
},
{
layerId = "963BFE9B-9129-4C18-A3F3-46AD815B745B";
paths = (
{
closed = 1;
nodes = (
"593 1462 LINE",
"196 1163 LINE",
"257 1081 LINE",
"462 1237 LINE SMOOTH",
"503 1270 OFFCURVE",
"552 1311 OFFCURVE",
"581 1339 QCURVE",
"577 1288 OFFCURVE",
"577 1176 OFFCURVE",
"577 1087 QCURVE SMOOTH",
"577 0 LINE",
"692 0 LINE",
"692 1462 LINE"
);
}
);
width = 1169;
},
{
layerId = "A10A3B8F-5047-4E3E-80F3-6554B53DC79D";
paths = (
{
closed = 1;
nodes = (
"182 1155 LINE",
"276 1034 LINE",
"432 1161 LINE",
"471 1196 OFFCURVE",
"526 1241 OFFCURVE",
"559 1274 QCURVE",
"555 1217 OFFCURVE",
"551 1110 OFFCURVE",
"551 1022 QCURVE SMOOTH",
"551 0 LINE",
"727 0 LINE",
"727 1462 LINE",
"577 1462 LINE"
);
}
);
userData = {
assembly = "NPUSHB[ ]	/* 30 values pushed */\01211 10 6 3 0 1 1 76 2 1 1 1 31 77 0 0 0 32 0 78 0 0 0 12 0 12 17 3 8 23 \012CALL[ ]	/* CallFunction */";
};
width = 1171;
},
{
layerId = "742C6D49-27A7-4CE6-BB95-CE3E85DCFAA1";
paths = (
{
closed = 1;
nodes = (
"591 1462 LINE",
"120 1087 LINE",
"270 901 LINE",
"437 1036 LINE SMOOTH",
"466 1061 OFFCURVE",
"534 1124 OFFCURVE",
"544 1137 QCURVE",
"540 1071 OFFCURVE",
"536 897 OFFCURVE",
"536 846 QCURVE SMOOTH",
"536 0 LINE",
"845 0 LINE",
"845 1462 LINE"
);
}
);
width = 1171;
},
{
layerId = "1AE80326-82F5-491E-9ED8-F639C1D819D6";
paths = (
{
closed = 1;
nodes = (
"585 1462 LINE",
"83 1053 LINE",
"288 801 LINE",
"454 938 LINE SMOOTH",
"474 956 OFFCURVE",
"519 1001 OFFCURVE",
"546 1032 QCURVE",
"544 979 OFFCURVE",
"540 850 OFFCURVE",
"540 741 OFFCURVE",
"540 723 QCURVE SMOOTH",
"540 0 LINE",
"941 0 LINE",
"941 1462 LINE"
);
}
);
width = 1200;
}
);
note = one;
unicode = 0031;
},
{
glyphname = two;
lastChange = "2020-10-12 02:38:09 +0000";
layers = (
{
layerId = "89D8C5C7-992A-4B79-A2F2-D8D3CE0BA992";
paths = (
{
closed = 1;
nodes = (
"194 51 LINE",
"194 53 LINE",
"620 504 LINE SMOOTH",
"720 608 OFFCURVE",
"861 788 OFFCURVE",
"937 981 OFFCURVE",
"937 1104 QCURVE SMOOTH",
"937 1217 OFFCURVE",
"839 1386 OFFCURVE",
"665 1483 OFFCURVE",
"548 1483 QCURVE SMOOTH",
"460 1483 OFFCURVE",
"257 1417 OFFCURVE",
"163 1341 QCURVE",
"194 1300 LINE",
"276 1366 OFFCURVE",
"460 1432 OFFCURVE",
"548 1432 QCURVE SMOOTH",
"704 1432 OFFCURVE",
"882 1257 OFFCURVE",
"882 1104 QCURVE SMOOTH",
"882 991 OFFCURVE",
"812 811 OFFCURVE",
"679 637 OFFCURVE",
"579 532 QCURVE SMOOTH",
"120 47 LINE",
"120 0 LINE",
"1005 0 LINE",
"1005 51 LINE"
);
}
);
width = 1167;
},
{
layerId = "963BFE9B-9129-4C18-A3F3-46AD815B745B";
paths = (
{
closed = 1;
nodes = (
"260 106 LINE",
"260 113 LINE",
"626 487 LINE SMOOTH",
"733 594 OFFCURVE",
"886 782 OFFCURVE",
"970 979 OFFCURVE",
"970 1098 QCURVE SMOOTH",
"970 1274 OFFCURVE",
"745 1483 OFFCURVE",
"556 1483 QCURVE SMOOTH",
"442 1483 OFFCURVE",
"229 1401 OFFCURVE",
"139 1327 QCURVE",
"202 1245 LINE",
"286 1311 OFFCURVE",
"458 1380 OFFCURVE",
"556 1380 QCURVE SMOOTH",
"692 1380 OFFCURVE",
"851 1231 OFFCURVE",
"851 1094 QCURVE SMOOTH",
"851 987 OFFCURVE",
"778 815 OFFCURVE",
"634 643 OFFCURVE",
"530 535 QCURVE SMOOTH",
"110 98 LINE",
"110 0 LINE",
"1036 0 LINE",
"1036 106 LINE"
);
}
);
width = 1169;
},
{
layerId = "A10A3B8F-5047-4E3E-80F3-6554B53DC79D";
paths = (
{
closed = 1;
nodes = (
"325 172 LINE",
"630 473 LINE SMOOTH",
"743 582 OFFCURVE",
"911 778 OFFCURVE",
"1005 979 OFFCURVE",
"1005 1094 QCURVE SMOOTH",
"1005 1274 OFFCURVE",
"768 1483 OFFCURVE",
"563 1483 QCURVE SMOOTH",
"424 1483 OFFCURVE",
"200 1382 OFFCURVE",
"114 1311 QCURVE",
"211 1190 LINE",
"295 1255 OFFCURVE",
"454 1329 OFFCURVE",
"563 1329 QCURVE SMOOTH",
"678 1329 OFFCURVE",
"821 1204 OFFCURVE",
"821 1083 QCURVE SMOOTH",
"821 983 OFFCURVE",
"743 819 OFFCURVE",
"590 647 OFFCURVE",
"481 537 QCURVE SMOOTH",
"98 150 LINE",
"98 0 LINE",
"1065 0 LINE",
"1065 164 LINE",
"325 164 LINE"
);
}
);
userData = {
assembly = "NPUSHB[ ]	/* 45 values pushed */\01215 14 2 3 1 3 1 0 3 2 76 0 1 1 2 97 0 2 2 37 77 4 1 3 3 0 95 0 0 0 32 0 78 0 0 0 27 0 26 37 40 17 5 8 25 \012CALL[ ]	/* CallFunction */";
};
width = 1171;
},
{
layerId = "742C6D49-27A7-4CE6-BB95-CE3E85DCFAA1";
paths = (
{
closed = 1;
nodes = (
"466 260 LINE",
"466 274 LINE",
"655 451 LINE SMOOTH",
"784 569 OFFCURVE",
"966 766 OFFCURVE",
"1062 967 OFFCURVE",
"1062 1087 QCURVE SMOOTH",
"1062 1200 OFFCURVE",
"949 1378 OFFCURVE",
"743 1483 OFFCURVE",
"599 1483 QCURVE SMOOTH",
"468 1483 OFFCURVE",
"282 1423 OFFCURVE",
"138 1327 OFFCURVE",
"77 1274 QCURVE",
"245 1075 LINE",
"333 1147 OFFCURVE",
"493 1225 OFFCURVE",
"577 1225 QCURVE SMOOTH",
"659 1225 OFFCURVE",
"755 1139 OFFCURVE",
"755 1051 QCURVE SMOOTH",
"755 979 OFFCURVE",
"693 854 OFFCURVE",
"558 700 OFFCURVE",
"448 586 QCURVE SMOOTH",
"81 215 LINE",
"81 0 LINE",
"1103 0 LINE",
"1103 260 LINE"
);
}
);
width = 1171;
},
{
layerId = "1AE80326-82F5-491E-9ED8-F639C1D819D6";
paths = (
{
closed = 1;
nodes = (
"569 326 LINE",
"569 336 LINE",
"676 432 LINE SMOOTH",
"815 557 OFFCURVE",
"1001 758 OFFCURVE",
"1094 956 OFFCURVE",
"1094 1083 QCURVE SMOOTH",
"1094 1198 OFFCURVE",
"973 1378 OFFCURVE",
"754 1483 OFFCURVE",
"606 1483 QCURVE SMOOTH",
"461 1483 OFFCURVE",
"258 1415 OFFCURVE",
"111 1307 OFFCURVE",
"45 1249 QCURVE",
"262 995 LINE",
"352 1073 OFFCURVE",
"491 1151 OFFCURVE",
"561 1151 QCURVE SMOOTH",
"618 1151 OFFCURVE",
"702 1094 OFFCURVE",
"702 1028 QCURVE SMOOTH",
"702 975 OFFCURVE",
"651 877 OFFCURVE",
"528 737 OFFCURVE",
"418 621 QCURVE SMOOTH",
"61 260 LINE",
"61 0 LINE",
"1122 0 LINE",
"1122 326 LINE"
);
}
);
width = 1200;
}
);
note = two;
unicode = 0032;
},
{
glyphname = three;
lastChange = "2020-10-12 02:38:09 +0000";
layers = (
{
layerId = "89D8C5C7-992A-4B79-A2F2-D8D3CE0BA992";
paths = (
{
closed = 1;
nodes = (
"739 1483 OFFCURVE",
"559 1483 QCURVE SMOOTH",
"424 1483 OFFCURVE",
"202 1401 OFFCURVE",
"112 1331 QCURVE",
"141 1288 LINE",
"241 1360 OFFCURVE",
"444 1432 OFFCURVE",
"559 1432 QCURVE SMOOTH",
"717 1432 OFFCURVE",
"907 1282 OFFCURVE",
"907 1128 QCURVE SMOOTH",
"907 1010 OFFCURVE",
"788 858 OFFCURVE",
"598 786 OFFCURVE",
"489 786 QCURVE SMOOTH",
"319 786 LINE",
"319 735 LINE",
"489 735 LINE SMOOTH",
"626 735 OFFCURVE",
"833 668 OFFCURVE",
"952 520 OFFCURVE",
"952 397 QCURVE SMOOTH",
"952 229 OFFCURVE",
"727 31 OFFCURVE",
"506 31 QCURVE SMOOTH",
"393 31 OFFCURVE",
"172 84 OFFCURVE",
"96 123 QCURVE",
"96 66 LINE",
"174 29 OFFCURVE",
"385 -20 OFFCURVE",
"506 -20 QCURVE SMOOTH",
"751 -20 OFFCURVE",
"1007 215 OFFCURVE",
"1007 397 QCURVE SMOOTH",
"1007 561 OFFCURVE",
"821 741 OFFCURVE",
"651 764 QCURVE",
"651 768 LINE",
"784 791 OFFCURVE",
"962 983 OFFCURVE",
"962 1128 QCURVE SMOOTH",
"962 1298 OFFCURVE"
);
}
);
width = 1167;
},
{
layerId = "963BFE9B-9129-4C18-A3F3-46AD815B745B";
paths = (
{
closed = 1;
nodes = (
"762 1483 OFFCURVE",
"557 1483 QCURVE SMOOTH",
"416 1483 OFFCURVE",
"190 1397 OFFCURVE",
"106 1331 QCURVE",
"166 1249 LINE",
"256 1311 OFFCURVE",
"442 1380 OFFCURVE",
"559 1380 QCURVE SMOOTH",
"698 1380 OFFCURVE",
"866 1247 OFFCURVE",
"866 1118 QCURVE SMOOTH",
"866 967 OFFCURVE",
"645 809 OFFCURVE",
"475 809 QCURVE SMOOTH",
"317 809 LINE",
"317 707 LINE",
"473 707 LINE SMOOTH",
"672 707 OFFCURVE",
"909 569 OFFCURVE",
"909 410 QCURVE SMOOTH",
"909 258 OFFCURVE",
"708 80 OFFCURVE",
"500 80 QCURVE SMOOTH",
"395 80 OFFCURVE",
"178 133 OFFCURVE",
"94 174 QCURVE",
"94 61 LINE",
"178 20 OFFCURVE",
"381 -20 OFFCURVE",
"500 -20 QCURVE SMOOTH",
"766 -20 OFFCURVE",
"1032 217 OFFCURVE",
"1032 406 QCURVE SMOOTH",
"1032 559 OFFCURVE",
"852 741 OFFCURVE",
"680 762 QCURVE",
"680 770 LINE",
"815 795 OFFCURVE",
"987 979 OFFCURVE",
"987 1124 QCURVE SMOOTH",
"987 1288 OFFCURVE"
);
}
);
width = 1169;
},
{
layerId = "A10A3B8F-5047-4E3E-80F3-6554B53DC79D";
paths = (
{
closed = 1;
nodes = (
"786 1483 OFFCURVE",
"557 1483 QCURVE SMOOTH",
"409 1483 OFFCURVE",
"178 1393 OFFCURVE",
"100 1331 QCURVE",
"190 1208 LINE",
"272 1262 OFFCURVE",
"440 1331 OFFCURVE",
"559 1331 QCURVE SMOOTH",
"682 1331 OFFCURVE",
"825 1214 OFFCURVE",
"825 1108 QCURVE SMOOTH",
"825 983 OFFCURVE",
"639 831 OFFCURVE",
"459 831 QCURVE SMOOTH",
"315 831 LINE",
"315 678 LINE",
"457 678 LINE SMOOTH",
"651 678 OFFCURVE",
"866 557 OFFCURVE",
"866 420 QCURVE SMOOTH",
"866 285 OFFCURVE",
"692 131 OFFCURVE",
"495 131 QCURVE SMOOTH",
"397 131 OFFCURVE",
"184 180 OFFCURVE",
"92 227 QCURVE",
"92 59 LINE",
"182 14 OFFCURVE",
"379 -20 OFFCURVE",
"493 -20 QCURVE SMOOTH",
"688 -20 OFFCURVE",
"936 90 OFFCURVE",
"1055 287 OFFCURVE",
"1055 416 QCURVE SMOOTH",
"1055 561 OFFCURVE",
"880 741 OFFCURVE",
"706 762 QCURVE",
"706 770 LINE",
"844 799 OFFCURVE",
"1010 973 OFFCURVE",
"1010 1120 QCURVE SMOOTH",
"1010 1278 OFFCURVE"
);
}
);
userData = {
assembly = "NPUSHB[ ]	/* 61 values pushed */\01236 1 3 4 3 1 2 3 15 1 1 2 14 1 0 1 4 76 37 1 4 1 75 0 3 0 2 1 3 2 105 0 4 4 5 97 0 5 5 37 77 0 1 1 0 97 0 0 0 38 0 78 37 36 33 36 37 42 6 8 28 \012CALL[ ]	/* CallFunction */";
};
width = 1171;
},
{
layerId = "742C6D49-27A7-4CE6-BB95-CE3E85DCFAA1";
paths = (
{
closed = 1;
nodes = (
"782 1483 OFFCURVE",
"556 1483 QCURVE SMOOTH",
"396 1483 OFFCURVE",
"165 1401 OFFCURVE",
"79 1339 QCURVE",
"222 1126 LINE",
"274 1159 OFFCURVE",
"429 1233 OFFCURVE",
"534 1233 QCURVE SMOOTH",
"646 1233 OFFCURVE",
"743 1145 OFFCURVE",
"743 1067 QCURVE SMOOTH",
"743 1010 OFFCURVE",
"691 922 OFFCURVE",
"550 870 OFFCURVE",
"415 870 QCURVE SMOOTH",
"302 870 LINE",
"302 633 LINE",
"413 633 LINE SMOOTH",
"550 633 OFFCURVE",
"704 590 OFFCURVE",
"765 504 OFFCURVE",
"765 444 QCURVE SMOOTH",
"765 340 OFFCURVE",
"632 225 OFFCURVE",
"466 225 QCURVE SMOOTH",
"376 225 OFFCURVE",
"171 274 OFFCURVE",
"77 322 QCURVE",
"77 59 LINE",
"261 -20 OFFCURVE",
"499 -20 QCURVE SMOOTH",
"704 -20 OFFCURVE",
"964 96 OFFCURVE",
"1089 299 OFFCURVE",
"1089 426 QCURVE SMOOTH",
"1089 569 OFFCURVE",
"904 741 OFFCURVE",
"730 764 QCURVE",
"730 770 LINE",
"863 803 OFFCURVE",
"1046 983 OFFCURVE",
"1046 1135 QCURVE SMOOTH",
"1046 1300 OFFCURVE"
);
}
);
width = 1171;
},
{
layerId = "1AE80326-82F5-491E-9ED8-F639C1D819D6";
paths = (
{
closed = 1;
nodes = (
"812 1483 OFFCURVE",
"587 1483 QCURVE SMOOTH",
"397 1483 OFFCURVE",
"161 1397 OFFCURVE",
"71 1335 QCURVE",
"235 1071 LINE",
"257 1085 OFFCURVE",
"343 1128 OFFCURVE",
"458 1165 OFFCURVE",
"526 1165 QCURVE SMOOTH",
"599 1165 OFFCURVE",
"690 1110 OFFCURVE",
"690 1051 QCURVE SMOOTH",
"690 983 OFFCURVE",
"556 897 OFFCURVE",
"388 897 QCURVE SMOOTH",
"296 897 LINE",
"296 600 LINE",
"386 600 LINE SMOOTH",
"511 600 OFFCURVE",
"647 561 OFFCURVE",
"698 492 OFFCURVE",
"698 442 QCURVE SMOOTH",
"698 373 OFFCURVE",
"593 291 OFFCURVE",
"448 291 QCURVE SMOOTH",
"364 291 OFFCURVE",
"163 338 OFFCURVE",
"69 387 QCURVE",
"69 59 LINE",
"163 23 OFFCURVE",
"364 -20 OFFCURVE",
"505 -20 QCURVE SMOOTH",
"716 -20 OFFCURVE",
"987 98 OFFCURVE",
"1116 299 OFFCURVE",
"1116 418 QCURVE SMOOTH",
"1116 573 OFFCURVE",
"925 741 OFFCURVE",
"749 764 QCURVE",
"749 770 LINE",
"835 795 OFFCURVE",
"982 891 OFFCURVE",
"1073 1040 OFFCURVE",
"1073 1145 QCURVE SMOOTH",
"1073 1303 OFFCURVE"
);
}
);
width = 1200;
}
);
note = three;
unicode = 0033;
},
{
glyphname = four;
lastChange = "2020-10-12 02:38:09 +0000";
layers = (
{
layerId = "89D8C5C7-992A-4B79-A2F2-D8D3CE0BA992";
paths = (
{
closed = 1;
nodes = (
"872 449 LINE",
"872 1470 LINE",
"815 1470 LINE",
"51 434 LINE",
"51 397 LINE",
"819 397 LINE",
"819 0 LINE",
"872 0 LINE",
"872 397 LINE",
"1147 397 LINE",
"1147 449 LINE"
);
},
{
closed = 1;
nodes = (
"686 1212 LINE SMOOTH",
"733 1276 OFFCURVE",
"782 1350 OFFCURVE",
"817 1405 QCURVE",
"821 1405 LINE",
"819 1352 OFFCURVE",
"819 1270 OFFCURVE",
"819 1161 OFFCURVE",
"819 1073 QCURVE SMOOTH",
"819 449 LINE",
"123 449 LINE"
);
}
);
width = 1167;
},
{
layerId = "963BFE9B-9129-4C18-A3F3-46AD815B745B";
paths = (
{
closed = 1;
nodes = (
"895 471 LINE",
"895 1470 LINE",
"774 1470 LINE",
"47 459 LINE",
"47 365 LINE",
"782 365 LINE",
"782 0 LINE",
"895 0 LINE",
"895 365 LINE",
"1139 365 LINE",
"1139 471 LINE"
);
},
{
closed = 1;
nodes = (
"672 1165 LINE SMOOTH",
"704 1212 OFFCURVE",
"754 1294 OFFCURVE",
"782 1341 QCURVE",
"786 1341 LINE",
"784 1270 OFFCURVE",
"782 1133 OFFCURVE",
"782 1014 QCURVE SMOOTH",
"782 471 LINE",
"170 471 LINE"
);
}
);
width = 1169;
},
{
layerId = "A10A3B8F-5047-4E3E-80F3-6554B53DC79D";
paths = (
{
closed = 1;
nodes = (
"680 1149 OFFCURVE",
"729 1239 OFFCURVE",
"745 1278 QCURVE",
"754 1278 LINE",
"750 1210 OFFCURVE",
"743 1061 OFFCURVE",
"743 954 QCURVE SMOOTH",
"743 494 LINE",
"219 494 LINE",
"657 1118 LINE SMOOTH"
);
},
{
closed = 1;
nodes = (
"731 1470 LINE",
"43 485 LINE",
"43 332 LINE",
"743 332 LINE",
"743 0 LINE",
"917 0 LINE",
"917 332 LINE",
"1130 332 LINE",
"1130 494 LINE",
"917 494 LINE",
"917 1470 LINE"
);
}
);
userData = {
assembly = "NPUSHB[ ]	/* 40 values pushed */\0125 1 0 5 18 1 2 0 2 76 1 1 0 4 1 2 3 0 2 104 0 5 5 31 77 0 3 3 32 3 78 18 17 17 17 25 16 6 8 28 \012CALL[ ]	/* CallFunction */";
};
width = 1171;
},
{
layerId = "742C6D49-27A7-4CE6-BB95-CE3E85DCFAA1";
paths = (
{
closed = 1;
nodes = (
"960 543 LINE",
"960 1462 LINE",
"675 1462 LINE",
"34 518 LINE",
"34 303 LINE",
"659 303 LINE",
"659 0 LINE",
"960 0 LINE",
"960 303 LINE",
"1136 303 LINE",
"1136 543 LINE"
);
},
{
closed = 1;
nodes = (
"575 948 LINE SMOOTH",
"601 989 OFFCURVE",
"644 1067 OFFCURVE",
"663 1108 QCURVE",
"671 1108 LINE",
"669 1090 OFFCURVE",
"663 973 OFFCURVE",
"659 838 OFFCURVE",
"659 791 QCURVE SMOOTH",
"659 543 LINE",
"306 543 LINE"
);
}
);
width = 1171;
},
{
layerId = "1AE80326-82F5-491E-9ED8-F639C1D819D6";
paths = (
{
closed = 1;
nodes = (
"1007 578 LINE",
"1007 1462 LINE",
"642 1462 LINE",
"34 573 LINE",
"34 283 LINE",
"618 283 LINE",
"618 0 LINE",
"1007 0 LINE",
"1007 283 LINE",
"1169 283 LINE",
"1169 578 LINE"
);
},
{
closed = 1;
nodes = (
"538 819 LINE SMOOTH",
"564 860 OFFCURVE",
"595 918 OFFCURVE",
"616 963 QCURVE",
"626 963 LINE",
"626 961 OFFCURVE",
"622 879 OFFCURVE",
"618 778 OFFCURVE",
"618 748 QCURVE SMOOTH",
"618 578 LINE",
"376 578 LINE"
);
}
);
width = 1200;
}
);
note = four;
unicode = 0034;
},
{
glyphname = five;
lastChange = "2020-10-12 02:38:09 +0000";
layers = (
{
layerId = "89D8C5C7-992A-4B79-A2F2-D8D3CE0BA992";
paths = (
{
closed = 1;
nodes = (
"309 844 OFFCURVE",
"257 831 QCURVE",
"309 1411 LINE",
"946 1411 LINE",
"946 1462 LINE",
"262 1462 LINE",
"200 805 LINE",
"239 774 LINE",
"315 795 OFFCURVE",
"466 821 OFFCURVE",
"561 821 QCURVE SMOOTH",
"765 821 OFFCURVE",
"978 618 OFFCURVE",
"978 444 QCURVE SMOOTH",
"978 250 OFFCURVE",
"726 31 OFFCURVE",
"518 31 QCURVE SMOOTH",
"405 31 OFFCURVE",
"221 86 OFFCURVE",
"151 127 QCURVE",
"151 66 LINE",
"217 29 OFFCURVE",
"401 -20 OFFCURVE",
"518 -20 QCURVE SMOOTH",
"671 -20 OFFCURVE",
"905 92 OFFCURVE",
"1034 299 OFFCURVE",
"1034 444 QCURVE SMOOTH",
"1034 651 OFFCURVE",
"780 872 OFFCURVE",
"561 872 QCURVE SMOOTH",
"456 872 OFFCURVE"
);
}
);
width = 1167;
},
{
layerId = "963BFE9B-9129-4C18-A3F3-46AD815B745B";
paths = (
{
closed = 1;
nodes = (
"342 860 OFFCURVE",
"299 852 QCURVE",
"340 1356 LINE",
"950 1356 LINE",
"950 1462 LINE",
"241 1462 LINE",
"182 788 LINE",
"245 745 LINE",
"307 762 OFFCURVE",
"454 782 OFFCURVE",
"532 782 QCURVE SMOOTH",
"731 782 OFFCURVE",
"925 606 OFFCURVE",
"925 446 QCURVE SMOOTH",
"925 268 OFFCURVE",
"700 82 OFFCURVE",
"514 82 QCURVE SMOOTH",
"409 82 OFFCURVE",
"211 135 OFFCURVE",
"139 178 QCURVE",
"139 61 LINE",
"207 25 OFFCURVE",
"397 -20 OFFCURVE",
"512 -20 QCURVE SMOOTH",
"757 -20 OFFCURVE",
"1044 233 OFFCURVE",
"1044 455 QCURVE SMOOTH",
"1044 659 OFFCURVE",
"784 885 OFFCURVE",
"561 885 QCURVE SMOOTH",
"473 885 OFFCURVE"
);
}
);
width = 1169;
},
{
layerId = "A10A3B8F-5047-4E3E-80F3-6554B53DC79D";
paths = (
{
closed = 1;
nodes = (
"373 881 OFFCURVE",
"338 874 QCURVE",
"373 1298 LINE",
"952 1298 LINE",
"952 1462 LINE",
"219 1462 LINE",
"164 772 LINE",
"254 715 LINE",
"299 725 OFFCURVE",
"446 745 OFFCURVE",
"504 745 QCURVE SMOOTH",
"694 745 OFFCURVE",
"870 592 OFFCURVE",
"870 449 QCURVE SMOOTH",
"870 287 OFFCURVE",
"672 133 OFFCURVE",
"510 133 QCURVE SMOOTH",
"414 133 OFFCURVE",
"203 184 OFFCURVE",
"129 229 QCURVE",
"129 59 LINE",
"197 20 OFFCURVE",
"393 -20 OFFCURVE",
"508 -20 QCURVE SMOOTH",
"766 -20 OFFCURVE",
"1055 240 OFFCURVE",
"1055 467 QCURVE SMOOTH",
"1055 672 OFFCURVE",
"786 897 OFFCURVE",
"563 897 QCURVE SMOOTH",
"491 897 OFFCURVE"
);
}
);
userData = {
assembly = "NPUSHB[ ]	/* 65 values pushed */\01228 23 2 3 0 22 10 2 2 3 9 1 1 2 3 76 6 1 0 0 3 2 0 3 105 0 5 5 4 95 0 4 4 31 77 0 2 2 1 97 0 1 1 38 1 78 1 0 27 26 25 24 20 18 14 12 7 5 0 30 1 30 7 8 22 \012CALL[ ]	/* CallFunction */";
};
width = 1171;
},
{
layerId = "742C6D49-27A7-4CE6-BB95-CE3E85DCFAA1";
paths = (
{
closed = 1;
nodes = (
"462 920 OFFCURVE",
"428 913 QCURVE",
"454 1200 LINE",
"977 1200 LINE",
"977 1462 LINE",
"184 1462 LINE",
"129 717 LINE",
"252 651 LINE",
"293 662 OFFCURVE",
"415 684 OFFCURVE",
"473 684 QCURVE SMOOTH",
"766 684 OFFCURVE",
"766 463 QCURVE SMOOTH",
"766 344 OFFCURVE",
"620 231 OFFCURVE",
"483 231 QCURVE SMOOTH",
"389 231 OFFCURVE",
"176 287 OFFCURVE",
"100 326 QCURVE",
"100 59 LINE",
"176 20 OFFCURVE",
"379 -20 OFFCURVE",
"493 -20 QCURVE SMOOTH",
"782 -20 OFFCURVE",
"1077 252 OFFCURVE",
"1077 489 QCURVE SMOOTH",
"1077 635 OFFCURVE",
"956 831 OFFCURVE",
"747 934 OFFCURVE",
"614 934 QCURVE SMOOTH",
"542 934 OFFCURVE"
);
}
);
width = 1171;
},
{
layerId = "1AE80326-82F5-491E-9ED8-F639C1D819D6";
paths = (
{
closed = 1;
nodes = (
"524 946 OFFCURVE",
"491 940 QCURVE",
"510 1133 LINE",
"1007 1133 LINE",
"1007 1462 LINE",
"174 1462 LINE",
"119 690 LINE",
"264 618 LINE",
"303 631 OFFCURVE",
"409 653 OFFCURVE",
"465 653 QCURVE SMOOTH",
"586 653 OFFCURVE",
"706 557 OFFCURVE",
"706 475 QCURVE SMOOTH",
"706 385 OFFCURVE",
"588 291 OFFCURVE",
"479 291 QCURVE SMOOTH",
"389 291 OFFCURVE",
"172 348 OFFCURVE",
"94 383 QCURVE",
"94 59 LINE",
"258 -20 OFFCURVE",
"512 -20 QCURVE SMOOTH",
"811 -20 OFFCURVE",
"1106 242 OFFCURVE",
"1106 487 QCURVE SMOOTH",
"1106 639 OFFCURVE",
"987 848 OFFCURVE",
"786 958 OFFCURVE",
"663 958 QCURVE SMOOTH",
"592 958 OFFCURVE"
);
}
);
width = 1200;
}
);
note = five;
unicode = 0035;
},
{
glyphname = six;
lastChange = "2020-10-12 02:38:09 +0000";
layers = (
{
layerId = "89D8C5C7-992A-4B79-A2F2-D8D3CE0BA992";
paths = (
{
closed = 1;
nodes = (
"190 274 OFFCURVE",
"301 90 OFFCURVE",
"483 -20 OFFCURVE",
"612 -20 QCURVE SMOOTH",
"751 -20 OFFCURVE",
"948 102 OFFCURVE",
"1050 319 OFFCURVE",
"1050 461 QCURVE SMOOTH",
"1050 659 OFFCURVE",
"825 899 OFFCURVE",
"622 899 QCURVE SMOOTH",
"506 899 OFFCURVE",
"332 827 OFFCURVE",
"221 717 OFFCURVE",
"194 659 QCURVE",
"190 659 LINE",
"196 938 OFFCURVE",
"342 1278 OFFCURVE",
"590 1436 OFFCURVE",
"751 1436 QCURVE SMOOTH",
"813 1436 OFFCURVE",
"915 1419 OFFCURVE",
"952 1405 QCURVE",
"952 1460 LINE",
"911 1473 OFFCURVE",
"813 1487 OFFCURVE",
"751 1487 QCURVE SMOOTH",
"577 1487 OFFCURVE",
"299 1315 OFFCURVE",
"139 934 OFFCURVE",
"139 621 QCURVE SMOOTH",
"139 504 OFFCURVE"
);
},
{
closed = 1;
nodes = (
"327 137 OFFCURVE",
"239 299 OFFCURVE",
"205 467 OFFCURVE",
"205 528 QCURVE SMOOTH",
"205 598 OFFCURVE",
"305 745 OFFCURVE",
"493 848 OFFCURVE",
"622 848 QCURVE SMOOTH",
"811 848 OFFCURVE",
"995 641 OFFCURVE",
"995 461 QCURVE SMOOTH",
"995 262 OFFCURVE",
"798 31 OFFCURVE",
"612 31 QCURVE SMOOTH",
"487 31 OFFCURVE"
);
}
);
width = 1167;
},
{
layerId = "963BFE9B-9129-4C18-A3F3-46AD815B745B";
paths = (
{
closed = 1;
nodes = (
"239 145 OFFCURVE",
"454 -20 OFFCURVE",
"609 -20 QCURVE SMOOTH",
"822 -20 OFFCURVE",
"1062 246 OFFCURVE",
"1062 467 QCURVE SMOOTH",
"1062 672 OFFCURVE",
"833 907 OFFCURVE",
"636 907 QCURVE SMOOTH",
"480 907 OFFCURVE",
"292 780 OFFCURVE",
"249 700 QCURVE",
"241 700 LINE",
"249 1028 OFFCURVE",
"505 1384 OFFCURVE",
"769 1384 QCURVE SMOOTH",
"822 1384 OFFCURVE",
"921 1372 OFFCURVE",
"957 1358 QCURVE",
"957 1462 LINE",
"878 1485 OFFCURVE",
"765 1485 QCURVE SMOOTH",
"540 1485 OFFCURVE",
"259 1272 OFFCURVE",
"126 885 OFFCURVE",
"126 623 QCURVE SMOOTH",
"126 434 OFFCURVE"
);
},
{
closed = 1;
nodes = (
"370 168 OFFCURVE",
"286 303 OFFCURVE",
"249 453 OFFCURVE",
"249 516 QCURVE SMOOTH",
"249 584 OFFCURVE",
"339 721 OFFCURVE",
"505 811 OFFCURVE",
"618 811 QCURVE SMOOTH",
"781 811 OFFCURVE",
"945 627 OFFCURVE",
"945 467 QCURVE SMOOTH",
"945 279 OFFCURVE",
"765 80 OFFCURVE",
"609 80 QCURVE SMOOTH",
"507 80 OFFCURVE"
);
}
);
width = 1169;
},
{
layerId = "A10A3B8F-5047-4E3E-80F3-6554B53DC79D";
paths = (
{
closed = 1;
nodes = (
"245 119 OFFCURVE",
"470 -20 OFFCURVE",
"610 -20 QCURVE SMOOTH",
"823 -20 OFFCURVE",
"1075 242 OFFCURVE",
"1075 471 QCURVE SMOOTH",
"1075 684 OFFCURVE",
"841 915 OFFCURVE",
"651 915 QCURVE SMOOTH",
"520 915 OFFCURVE",
"352 815 OFFCURVE",
"305 743 QCURVE",
"292 743 LINE",
"298 864 OFFCURVE",
"348 1077 OFFCURVE",
"456 1241 OFFCURVE",
"644 1335 OFFCURVE",
"786 1335 QCURVE SMOOTH",
"831 1335 OFFCURVE",
"925 1323 OFFCURVE",
"962 1311 QCURVE",
"962 1464 LINE",
"929 1475 OFFCURVE",
"825 1483 OFFCURVE",
"782 1483 QCURVE SMOOTH",
"575 1483 OFFCURVE",
"313 1335 OFFCURVE",
"167 1087 OFFCURVE",
"112 782 OFFCURVE",
"112 625 QCURVE SMOOTH",
"112 406 OFFCURVE"
);
},
{
closed = 1;
nodes = (
"364 244 OFFCURVE",
"294 418 OFFCURVE",
"294 506 QCURVE SMOOTH",
"294 569 OFFCURVE",
"374 694 OFFCURVE",
"518 774 OFFCURVE",
"614 774 QCURVE SMOOTH",
"755 774 OFFCURVE",
"896 610 OFFCURVE",
"896 471 QCURVE SMOOTH",
"896 297 OFFCURVE",
"737 131 OFFCURVE",
"608 131 QCURVE SMOOTH",
"503 131 OFFCURVE"
);
}
);
userData = {
assembly = "NPUSHB[ ]	/* 59 values pushed */\0128 1 1 0 9 1 2 1 17 1 4 5 3 76 0 2 0 5 4 2 5 105 0 1 1 0 97 0 0 0 37 77 6 1 4 4 3 97 0 3 3 38 3 78 32 31 38 36 31 44 32 44 36 39 37 36 7 8 26 \012CALL[ ]	/* CallFunction */";
};
width = 1171;
},
{
layerId = "742C6D49-27A7-4CE6-BB95-CE3E85DCFAA1";
paths = (
{
closed = 1;
nodes = (
"214 117 OFFCURVE",
"456 -20 OFFCURVE",
"606 -20 QCURVE SMOOTH",
"835 -20 OFFCURVE",
"1103 250 OFFCURVE",
"1103 487 QCURVE SMOOTH",
"1103 709 OFFCURVE",
"878 950 OFFCURVE",
"685 950 QCURVE SMOOTH",
"563 950 OFFCURVE",
"409 852 OFFCURVE",
"368 780 QCURVE",
"356 780 LINE",
"362 915 OFFCURVE",
"444 1122 OFFCURVE",
"642 1237 OFFCURVE",
"825 1237 QCURVE SMOOTH",
"870 1237 OFFCURVE",
"962 1225 OFFCURVE",
"1001 1217 QCURVE",
"1001 1464 LINE",
"962 1473 OFFCURVE",
"847 1479 OFFCURVE",
"804 1479 QCURVE SMOOTH",
"622 1479 OFFCURVE",
"366 1382 OFFCURVE",
"200 1212 OFFCURVE",
"108 993 OFFCURVE",
"71 745 OFFCURVE",
"71 621 QCURVE SMOOTH",
"71 401 OFFCURVE"
);
},
{
closed = 1;
nodes = (
"427 311 OFFCURVE",
"378 442 OFFCURVE",
"378 510 QCURVE SMOOTH",
"378 559 OFFCURVE",
"436 651 OFFCURVE",
"536 713 OFFCURVE",
"606 713 QCURVE SMOOTH",
"706 713 OFFCURVE",
"804 590 OFFCURVE",
"804 483 QCURVE SMOOTH",
"804 352 OFFCURVE",
"689 227 OFFCURVE",
"599 227 QCURVE SMOOTH",
"528 227 OFFCURVE"
);
}
);
width = 1171;
},
{
layerId = "1AE80326-82F5-491E-9ED8-F639C1D819D6";
paths = (
{
closed = 1;
nodes = (
"214 117 OFFCURVE",
"462 -20 OFFCURVE",
"620 -20 QCURVE SMOOTH",
"860 -20 OFFCURVE",
"1136 254 OFFCURVE",
"1136 500 QCURVE SMOOTH",
"1136 727 OFFCURVE",
"919 975 OFFCURVE",
"726 975 QCURVE SMOOTH",
"610 975 OFFCURVE",
"477 877 OFFCURVE",
"438 805 QCURVE",
"425 805 LINE",
"431 922 OFFCURVE",
"507 1087 OFFCURVE",
"679 1176 OFFCURVE",
"827 1176 QCURVE SMOOTH",
"900 1176 OFFCURVE",
"1003 1165 OFFCURVE",
"1044 1157 QCURVE",
"1044 1466 LINE",
"1003 1473 OFFCURVE",
"878 1483 OFFCURVE",
"835 1483 QCURVE SMOOTH",
"640 1483 OFFCURVE",
"372 1384 OFFCURVE",
"200 1214 OFFCURVE",
"106 993 OFFCURVE",
"69 743 OFFCURVE",
"69 618 QCURVE SMOOTH",
"69 399 OFFCURVE"
);
},
{
closed = 1;
nodes = (
"493 358 OFFCURVE",
"462 459 OFFCURVE",
"462 512 QCURVE SMOOTH",
"462 569 OFFCURVE",
"542 670 OFFCURVE",
"616 670 QCURVE SMOOTH",
"687 670 OFFCURVE",
"753 573 OFFCURVE",
"753 492 QCURVE SMOOTH",
"753 389 OFFCURVE",
"675 293 OFFCURVE",
"612 293 QCURVE SMOOTH",
"561 293 OFFCURVE"
);
}
);
width = 1200;
}
);
note = six;
unicode = 0036;
},
{
glyphname = seven;
lastChange = "2020-10-12 02:38:09 +0000";
layers = (
{
layerId = "89D8C5C7-992A-4B79-A2F2-D8D3CE0BA992";
paths = (
{
closed = 1;
nodes = (
"1044 1427 LINE",
"1044 1462 LINE",
"118 1462 LINE",
"118 1411 LINE",
"982 1411 LINE",
"374 0 LINE",
"433 0 LINE"
);
}
);
width = 1167;
},
{
layerId = "963BFE9B-9129-4C18-A3F3-46AD815B745B";
paths = (
{
closed = 1;
nodes = (
"1056 1376 LINE",
"1056 1462 LINE",
"104 1462 LINE",
"104 1356 LINE",
"929 1356 LINE",
"327 0 LINE",
"454 0 LINE"
);
}
);
width = 1169;
},
{
layerId = "A10A3B8F-5047-4E3E-80F3-6554B53DC79D";
paths = (
{
closed = 1;
nodes = (
"90 1462 LINE",
"90 1298 LINE",
"878 1298 LINE",
"278 0 LINE",
"477 0 LINE",
"1071 1323 LINE",
"1071 1462 LINE"
);
}
);
userData = {
assembly = "NPUSHB[ ]	/* 28 values pushed */\0120 1 1 2 1 76 0 1 1 2 95 0 2 2 31 77 0 0 0 32 0 78 17 17 17 3 8 25 \012CALL[ ]	/* CallFunction */";
};
width = 1171;
},
{
layerId = "742C6D49-27A7-4CE6-BB95-CE3E85DCFAA1";
paths = (
{
closed = 1;
nodes = (
"1104 1268 LINE",
"1104 1462 LINE",
"55 1462 LINE",
"55 1202 LINE",
"776 1202 LINE",
"227 0 LINE",
"551 0 LINE"
);
}
);
width = 1171;
},
{
layerId = "1AE80326-82F5-491E-9ED8-F639C1D819D6";
paths = (
{
closed = 1;
nodes = (
"1132 1229 LINE",
"1132 1462 LINE",
"77 1462 LINE",
"77 1135 LINE",
"710 1135 LINE",
"208 0 LINE",
"618 0 LINE"
);
}
);
width = 1200;
}
);
note = seven;
unicode = 0037;
},
{
glyphname = eight;
lastChange = "2020-10-12 02:38:09 +0000";
layers = (
{
layerId = "89D8C5C7-992A-4B79-A2F2-D8D3CE0BA992";
paths = (
{
closed = 1;
nodes = (
"281 1399 OFFCURVE",
"178 1247 OFFCURVE",
"178 1145 QCURVE SMOOTH",
"178 1044 OFFCURVE",
"270 907 OFFCURVE",
"422 815 OFFCURVE",
"514 780 QCURVE",
"340 721 OFFCURVE",
"131 526 OFFCURVE",
"131 358 QCURVE SMOOTH",
"131 246 OFFCURVE",
"244 76 OFFCURVE",
"442 -20 OFFCURVE",
"571 -20 QCURVE SMOOTH",
"700 -20 OFFCURVE",
"907 72 OFFCURVE",
"1030 246 OFFCURVE",
"1030 371 QCURVE SMOOTH",
"1030 528 OFFCURVE",
"823 721 OFFCURVE",
"643 782 QCURVE",
"799 844 OFFCURVE",
"981 1014 OFFCURVE",
"981 1149 QCURVE SMOOTH",
"981 1307 OFFCURVE",
"764 1483 OFFCURVE",
"580 1483 QCURVE SMOOTH",
"463 1483 OFFCURVE"
);
},
{
closed = 1;
nodes = (
"926 1290 OFFCURVE",
"926 1149 QCURVE SMOOTH",
"926 1028 OFFCURVE",
"754 877 OFFCURVE",
"586 807 QCURVE",
"426 862 OFFCURVE",
"233 1014 OFFCURVE",
"233 1145 QCURVE SMOOTH",
"233 1282 OFFCURVE",
"430 1432 OFFCURVE",
"580 1432 QCURVE SMOOTH",
"741 1432 OFFCURVE"
);
},
{
closed = 1;
nodes = (
"291 618 OFFCURVE",
"467 717 OFFCURVE",
"575 754 QCURVE",
"633 733 LINE SMOOTH",
"801 674 OFFCURVE",
"975 504 OFFCURVE",
"975 371 QCURVE SMOOTH",
"975 203 OFFCURVE",
"745 31 OFFCURVE",
"571 31 QCURVE SMOOTH",
"399 31 OFFCURVE",
"186 207 OFFCURVE",
"186 358 QCURVE SMOOTH",
"186 467 OFFCURVE"
);
}
);
width = 1167;
},
{
layerId = "963BFE9B-9129-4C18-A3F3-46AD815B745B";
paths = (
{
closed = 1;
nodes = (
"272 1401 OFFCURVE",
"163 1245 OFFCURVE",
"163 1139 QCURVE SMOOTH",
"163 1044 OFFCURVE",
"243 907 OFFCURVE",
"376 811 OFFCURVE",
"458 772 QCURVE",
"360 733 OFFCURVE",
"204 625 OFFCURVE",
"114 471 OFFCURVE",
"114 365 QCURVE SMOOTH",
"114 188 OFFCURVE",
"366 -20 OFFCURVE",
"581 -20 QCURVE SMOOTH",
"716 -20 OFFCURVE",
"927 74 OFFCURVE",
"1048 250 OFFCURVE",
"1048 375 QCURVE SMOOTH",
"1048 528 OFFCURVE",
"851 713 OFFCURVE",
"692 778 QCURVE",
"827 838 OFFCURVE",
"1001 1008 OFFCURVE",
"1001 1141 QCURVE SMOOTH",
"1001 1305 OFFCURVE",
"769 1483 OFFCURVE",
"581 1483 QCURVE SMOOTH",
"460 1483 OFFCURVE"
);
},
{
closed = 1;
nodes = (
"884 1257 OFFCURVE",
"884 1139 QCURVE SMOOTH",
"884 1022 OFFCURVE",
"726 883 OFFCURVE",
"589 825 QCURVE",
"452 877 OFFCURVE",
"278 1014 OFFCURVE",
"278 1135 QCURVE SMOOTH",
"278 1253 OFFCURVE",
"450 1384 OFFCURVE",
"581 1384 QCURVE SMOOTH",
"720 1384 OFFCURVE"
);
},
{
closed = 1;
nodes = (
"413 666 OFFCURVE",
"565 721 QCURVE",
"610 705 LINE SMOOTH",
"763 649 OFFCURVE",
"933 492 OFFCURVE",
"933 373 QCURVE SMOOTH",
"933 233 OFFCURVE",
"741 76 OFFCURVE",
"577 76 QCURVE SMOOTH",
"413 76 OFFCURVE",
"231 236 OFFCURVE",
"231 365 QCURVE SMOOTH",
"231 504 OFFCURVE"
);
}
);
width = 1169;
},
{
layerId = "A10A3B8F-5047-4E3E-80F3-6554B53DC79D";
paths = (
{
closed = 1;
nodes = (
"262 1401 OFFCURVE",
"147 1245 OFFCURVE",
"147 1135 QCURVE SMOOTH",
"147 999 OFFCURVE",
"295 825 OFFCURVE",
"403 764 QCURVE",
"323 727 OFFCURVE",
"184 621 OFFCURVE",
"100 471 OFFCURVE",
"100 373 QCURVE SMOOTH",
"100 186 OFFCURVE",
"352 -20 OFFCURVE",
"589 -20 QCURVE SMOOTH",
"807 -20 OFFCURVE",
"1069 195 OFFCURVE",
"1069 379 QCURVE SMOOTH",
"1069 479 OFFCURVE",
"981 623 OFFCURVE",
"833 729 OFFCURVE",
"743 774 QCURVE",
"819 813 OFFCURVE",
"946 913 OFFCURVE",
"1022 1044 OFFCURVE",
"1022 1133 QCURVE SMOOTH",
"1022 1303 OFFCURVE",
"776 1483 OFFCURVE",
"583 1483 QCURVE SMOOTH",
"458 1483 OFFCURVE"
);
},
{
closed = 1;
nodes = (
"843 1229 OFFCURVE",
"843 1126 QCURVE SMOOTH",
"843 1016 OFFCURVE",
"698 889 OFFCURVE",
"592 844 QCURVE",
"518 877 OFFCURVE",
"395 948 OFFCURVE",
"323 1051 OFFCURVE",
"323 1126 QCURVE SMOOTH",
"323 1229 OFFCURVE",
"467 1337 OFFCURVE",
"581 1337 QCURVE SMOOTH",
"700 1337 OFFCURVE"
);
},
{
closed = 1;
nodes = (
"417 631 OFFCURVE",
"553 690 QCURVE",
"585 678 LINE SMOOTH",
"725 625 OFFCURVE",
"893 483 OFFCURVE",
"893 377 QCURVE SMOOTH",
"893 264 OFFCURVE",
"735 123 OFFCURVE",
"585 123 QCURVE SMOOTH",
"428 123 OFFCURVE",
"276 264 OFFCURVE",
"276 371 QCURVE SMOOTH",
"276 483 OFFCURVE"
);
}
);
userData = {
assembly = "NPUSHB[ ]	/* 51 values pushed */\01251 35 21 7 4 3 2 1 76 5 1 2 2 0 97 4 1 0 0 37 77 0 3 3 1 97 0 1 1 38 1 78 29 28 1 0 45 43 28 40 29 40 15 13 0 27 1 27 6 8 22 \012CALL[ ]	/* CallFunction */";
};
width = 1171;
},
{
layerId = "742C6D49-27A7-4CE6-BB95-CE3E85DCFAA1";
paths = (
{
closed = 1;
nodes = (
"247 1403 OFFCURVE",
"116 1245 OFFCURVE",
"116 1130 QCURVE SMOOTH",
"116 999 OFFCURVE",
"253 825 OFFCURVE",
"352 764 QCURVE",
"235 707 OFFCURVE",
"71 520 OFFCURVE",
"71 371 QCURVE SMOOTH",
"71 188 OFFCURVE",
"339 -20 OFFCURVE",
"585 -20 QCURVE SMOOTH",
"737 -20 OFFCURVE",
"968 78 OFFCURVE",
"1097 258 OFFCURVE",
"1097 379 QCURVE SMOOTH",
"1097 475 OFFCURVE",
"1009 623 OFFCURVE",
"868 731 OFFCURVE",
"790 772 QCURVE",
"902 827 OFFCURVE",
"1052 995 OFFCURVE",
"1052 1128 QCURVE SMOOTH",
"1052 1245 OFFCURVE",
"923 1403 OFFCURVE",
"712 1481 OFFCURVE",
"585 1481 QCURVE SMOOTH",
"462 1481 OFFCURVE"
);
},
{
closed = 1;
nodes = (
"761 1176 OFFCURVE",
"761 1106 QCURVE SMOOTH",
"761 1026 OFFCURVE",
"655 934 OFFCURVE",
"585 901 QCURVE",
"513 936 OFFCURVE",
"407 1030 OFFCURVE",
"407 1106 QCURVE SMOOTH",
"407 1176 OFFCURVE",
"507 1255 OFFCURVE",
"583 1255 QCURVE SMOOTH",
"659 1255 OFFCURVE"
);
},
{
closed = 1;
nodes = (
"474 592 OFFCURVE",
"571 637 QCURVE",
"597 623 LINE SMOOTH",
"646 594 OFFCURVE",
"745 526 OFFCURVE",
"810 442 OFFCURVE",
"810 387 QCURVE SMOOTH",
"810 305 OFFCURVE",
"696 207 OFFCURVE",
"581 207 QCURVE SMOOTH",
"470 207 OFFCURVE",
"358 309 OFFCURVE",
"358 389 QCURVE SMOOTH",
"358 473 OFFCURVE"
);
}
);
width = 1171;
},
{
layerId = "1AE80326-82F5-491E-9ED8-F639C1D819D6";
paths = (
{
closed = 1;
nodes = (
"237 1403 OFFCURVE",
"110 1245 OFFCURVE",
"110 1128 QCURVE SMOOTH",
"110 1001 OFFCURVE",
"241 825 OFFCURVE",
"333 764 QCURVE",
"219 705 OFFCURVE",
"67 537 OFFCURVE",
"67 385 QCURVE SMOOTH",
"67 205 OFFCURVE",
"321 -20 OFFCURVE",
"599 -20 QCURVE SMOOTH",
"784 -20 OFFCURVE",
"1019 86 OFFCURVE",
"1134 270 OFFCURVE",
"1134 389 QCURVE SMOOTH",
"1134 485 OFFCURVE",
"1044 627 OFFCURVE",
"909 731 OFFCURVE",
"839 770 QCURVE",
"950 823 OFFCURVE",
"1091 995 OFFCURVE",
"1091 1126 QCURVE SMOOTH",
"1091 1307 OFFCURVE",
"821 1483 OFFCURVE",
"604 1483 QCURVE SMOOTH",
"458 1483 OFFCURVE"
);
},
{
closed = 1;
nodes = (
"720 1141 OFFCURVE",
"720 1092 QCURVE SMOOTH",
"720 1032 OFFCURVE",
"640 965 OFFCURVE",
"597 940 QCURVE",
"548 967 OFFCURVE",
"481 1044 OFFCURVE",
"481 1092 QCURVE SMOOTH",
"481 1141 OFFCURVE",
"552 1198 OFFCURVE",
"602 1198 QCURVE SMOOTH",
"649 1198 OFFCURVE"
);
},
{
closed = 1;
nodes = (
"528 561 OFFCURVE",
"595 596 QCURVE",
"622 580 LINE SMOOTH",
"647 565 OFFCURVE",
"718 512 OFFCURVE",
"772 438 OFFCURVE",
"772 393 QCURVE SMOOTH",
"772 334 OFFCURVE",
"685 264 OFFCURVE",
"595 264 QCURVE SMOOTH",
"518 264 OFFCURVE",
"429 340 OFFCURVE",
"429 401 QCURVE SMOOTH",
"429 467 OFFCURVE"
);
}
);
width = 1200;
}
);
note = eight;
unicode = 0038;
},
{
glyphname = nine;
lastChange = "2020-10-12 02:38:09 +0000";
layers = (
{
layerId = "89D8C5C7-992A-4B79-A2F2-D8D3CE0BA992";
paths = (
{
closed = 1;
nodes = (
"974 1192 OFFCURVE",
"864 1374 OFFCURVE",
"683 1483 OFFCURVE",
"550 1483 QCURVE SMOOTH",
"411 1483 OFFCURVE",
"214 1362 OFFCURVE",
"112 1147 OFFCURVE",
"112 1006 QCURVE SMOOTH",
"112 805 OFFCURVE",
"333 563 OFFCURVE",
"536 563 QCURVE SMOOTH",
"655 563 OFFCURVE",
"829 637 OFFCURVE",
"941 750 OFFCURVE",
"968 807 QCURVE",
"972 807 LINE",
"966 530 OFFCURVE",
"819 186 OFFCURVE",
"571 27 OFFCURVE",
"411 27 QCURVE SMOOTH",
"348 27 OFFCURVE",
"227 45 OFFCURVE",
"190 59 QCURVE",
"190 2 LINE",
"231 -10 OFFCURVE",
"352 -25 OFFCURVE",
"411 -25 QCURVE SMOOTH",
"585 -25 OFFCURVE",
"864 150 OFFCURVE",
"1023 532 OFFCURVE",
"1023 846 QCURVE SMOOTH",
"1023 965 OFFCURVE"
);
},
{
closed = 1;
nodes = (
"835 1325 OFFCURVE",
"923 1165 OFFCURVE",
"958 997 OFFCURVE",
"958 938 QCURVE SMOOTH",
"958 868 OFFCURVE",
"855 719 OFFCURVE",
"669 614 OFFCURVE",
"540 614 QCURVE SMOOTH",
"352 614 OFFCURVE",
"167 823 OFFCURVE",
"167 1006 QCURVE SMOOTH",
"167 1204 OFFCURVE",
"364 1432 OFFCURVE",
"550 1432 QCURVE SMOOTH",
"675 1432 OFFCURVE"
);
}
);
width = 1167;
},
{
layerId = "963BFE9B-9129-4C18-A3F3-46AD815B745B";
paths = (
{
closed = 1;
nodes = (
"933 1319 OFFCURVE",
"718 1483 OFFCURVE",
"561 1483 QCURVE SMOOTH",
"419 1483 OFFCURVE",
"217 1362 OFFCURVE",
"106 1143 OFFCURVE",
"106 997 QCURVE SMOOTH",
"106 791 OFFCURVE",
"333 555 OFFCURVE",
"528 555 QCURVE SMOOTH",
"684 555 OFFCURVE",
"876 682 OFFCURVE",
"919 762 QCURVE",
"927 762 LINE",
"917 434 OFFCURVE",
"663 76 OFFCURVE",
"401 76 QCURVE SMOOTH",
"282 76 OFFCURVE",
"200 106 QCURVE",
"200 2 LINE",
"237 -10 OFFCURVE",
"352 -23 OFFCURVE",
"401 -23 QCURVE SMOOTH",
"626 -23 OFFCURVE",
"911 190 OFFCURVE",
"1044 580 OFFCURVE",
"1044 842 QCURVE SMOOTH",
"1044 1030 OFFCURVE"
);
},
{
closed = 1;
nodes = (
"800 1294 OFFCURVE",
"884 1159 OFFCURVE",
"921 1010 OFFCURVE",
"921 946 QCURVE SMOOTH",
"921 879 OFFCURVE",
"831 741 OFFCURVE",
"663 651 OFFCURVE",
"550 651 QCURVE SMOOTH",
"387 651 OFFCURVE",
"223 836 OFFCURVE",
"223 999 QCURVE SMOOTH",
"223 1184 OFFCURVE",
"405 1380 OFFCURVE",
"561 1380 QCURVE SMOOTH",
"663 1380 OFFCURVE"
);
}
);
width = 1169;
},
{
layerId = "A10A3B8F-5047-4E3E-80F3-6554B53DC79D";
paths = (
{
closed = 1;
nodes = (
"933 1341 OFFCURVE",
"708 1483 OFFCURVE",
"569 1483 QCURVE SMOOTH",
"428 1483 OFFCURVE",
"217 1364 OFFCURVE",
"102 1143 OFFCURVE",
"102 989 QCURVE SMOOTH",
"102 778 OFFCURVE",
"333 547 OFFCURVE",
"522 547 QCURVE SMOOTH",
"655 547 OFFCURVE",
"823 647 OFFCURVE",
"870 717 QCURVE",
"882 717 LINE",
"878 598 OFFCURVE",
"829 383 OFFCURVE",
"718 221 OFFCURVE",
"532 127 OFFCURVE",
"389 127 QCURVE SMOOTH",
"288 127 OFFCURVE",
"208 154 QCURVE",
"208 0 LINE",
"241 -10 OFFCURVE",
"352 -20 OFFCURVE",
"393 -20 QCURVE SMOOTH",
"600 -20 OFFCURVE",
"864 127 OFFCURVE",
"1009 375 OFFCURVE",
"1065 680 OFFCURVE",
"1065 838 QCURVE SMOOTH",
"1065 1057 OFFCURVE"
);
},
{
closed = 1;
nodes = (
"813 1217 OFFCURVE",
"882 1044 OFFCURVE",
"882 956 QCURVE SMOOTH",
"882 891 OFFCURVE",
"802 768 OFFCURVE",
"659 688 OFFCURVE",
"561 688 QCURVE SMOOTH",
"417 688 OFFCURVE",
"280 850 OFFCURVE",
"280 991 QCURVE SMOOTH",
"280 1163 OFFCURVE",
"442 1331 OFFCURVE",
"569 1331 QCURVE SMOOTH",
"673 1331 OFFCURVE"
);
}
);
userData = {
assembly = "NPUSHB[ ]	/* 59 values pushed */\01216 1 5 4 9 1 1 2 8 1 0 1 3 76 0 5 0 2 1 5 2 105 6 1 4 4 3 97 0 3 3 37 77 0 1 1 0 97 0 0 0 38 0 78 32 31 38 36 31 44 32 44 37 39 36 36 7 8 26 \012CALL[ ]	/* CallFunction */";
};
width = 1171;
},
{
layerId = "742C6D49-27A7-4CE6-BB95-CE3E85DCFAA1";
paths = (
{
closed = 1;
nodes = (
"954 1341 OFFCURVE",
"712 1479 OFFCURVE",
"563 1479 QCURVE SMOOTH",
"333 1479 OFFCURVE",
"65 1208 OFFCURVE",
"65 971 QCURVE SMOOTH",
"65 750 OFFCURVE",
"290 508 OFFCURVE",
"477 508 QCURVE SMOOTH",
"616 508 OFFCURVE",
"757 606 OFFCURVE",
"800 678 QCURVE",
"813 678 LINE",
"806 543 OFFCURVE",
"724 336 OFFCURVE",
"526 221 OFFCURVE",
"344 221 QCURVE SMOOTH",
"298 221 OFFCURVE",
"208 233 OFFCURVE",
"167 242 QCURVE",
"167 -6 LINE",
"206 -14 OFFCURVE",
"321 -20 OFFCURVE",
"364 -20 QCURVE SMOOTH",
"546 -20 OFFCURVE",
"802 76 OFFCURVE",
"968 246 OFFCURVE",
"1060 465 OFFCURVE",
"1097 713 OFFCURVE",
"1097 838 QCURVE SMOOTH",
"1097 1057 OFFCURVE"
);
},
{
closed = 1;
nodes = (
"741 1147 OFFCURVE",
"790 1016 OFFCURVE",
"790 948 QCURVE SMOOTH",
"790 899 OFFCURVE",
"733 807 OFFCURVE",
"630 745 OFFCURVE",
"563 745 QCURVE SMOOTH",
"462 745 OFFCURVE",
"364 868 OFFCURVE",
"364 975 QCURVE SMOOTH",
"364 1106 OFFCURVE",
"479 1231 OFFCURVE",
"569 1231 QCURVE SMOOTH",
"643 1231 OFFCURVE"
);
}
);
width = 1171;
},
{
layerId = "1AE80326-82F5-491E-9ED8-F639C1D819D6";
paths = (
{
closed = 1;
nodes = (
"983 1343 OFFCURVE",
"733 1483 OFFCURVE",
"581 1483 QCURVE SMOOTH",
"339 1483 OFFCURVE",
"63 1208 OFFCURVE",
"63 965 QCURVE SMOOTH",
"63 735 OFFCURVE",
"282 487 OFFCURVE",
"466 487 QCURVE SMOOTH",
"591 487 OFFCURVE",
"720 584 OFFCURVE",
"761 657 QCURVE",
"774 657 LINE",
"768 549 OFFCURVE",
"694 381 OFFCURVE",
"512 287 OFFCURVE",
"348 287 QCURVE SMOOTH",
"290 287 OFFCURVE",
"204 295 OFFCURVE",
"161 303 QCURVE",
"161 -10 LINE",
"202 -16 OFFCURVE",
"321 -20 OFFCURVE",
"366 -20 QCURVE SMOOTH",
"638 -20 OFFCURVE",
"974 182 OFFCURVE",
"1130 561 OFFCURVE",
"1130 821 QCURVE SMOOTH",
"1130 1053 OFFCURVE"
);
},
{
closed = 1;
nodes = (
"706 1102 OFFCURVE",
"737 1004 OFFCURVE",
"737 950 QCURVE SMOOTH",
"737 893 OFFCURVE",
"653 791 OFFCURVE",
"587 791 QCURVE SMOOTH",
"516 791 OFFCURVE",
"446 887 OFFCURVE",
"446 969 QCURVE SMOOTH",
"446 1073 OFFCURVE",
"522 1167 OFFCURVE",
"591 1167 QCURVE SMOOTH",
"643 1167 OFFCURVE"
);
}
);
width = 1200;
}
);
note = nine;
unicode = 0039;
},
{
glyphname = colon;
lastChange = "2020-10-12 02:38:09 +0000";
layers = (
{
layerId = "89D8C5C7-992A-4B79-A2F2-D8D3CE0BA992";
paths = (
{
closed = 1;
nodes = (
"194 963 OFFCURVE",
"225 963 QCURVE SMOOTH",
"262 963 OFFCURVE",
"280 999 OFFCURVE",
"280 1026 QCURVE SMOOTH",
"280 1051 OFFCURVE",
"262 1090 OFFCURVE",
"225 1090 QCURVE SMOOTH",
"194 1090 OFFCURVE",
"174 1051 OFFCURVE",
"174 1026 QCURVE SMOOTH",
"174 999 OFFCURVE"
);
},
{
closed = 1;
nodes = (
"194 -16 OFFCURVE",
"225 -16 QCURVE SMOOTH",
"262 -16 OFFCURVE",
"280 20 OFFCURVE",
"280 47 QCURVE SMOOTH",
"280 72 OFFCURVE",
"262 111 OFFCURVE",
"225 111 QCURVE SMOOTH",
"194 111 OFFCURVE",
"174 72 OFFCURVE",
"174 47 QCURVE SMOOTH",
"174 20 OFFCURVE"
);
}
);
width = 450;
},
{
layerId = "963BFE9B-9129-4C18-A3F3-46AD815B745B";
paths = (
{
closed = 1;
nodes = (
"249 905 QCURVE SMOOTH",
"339 905 OFFCURVE",
"339 1008 QCURVE SMOOTH",
"339 1108 OFFCURVE",
"249 1108 QCURVE SMOOTH",
"159 1108 OFFCURVE",
"159 1008 QCURVE SMOOTH",
"159 905 OFFCURVE"
);
},
{
closed = 1;
nodes = (
"249 -23 QCURVE SMOOTH",
"339 -23 OFFCURVE",
"339 78 QCURVE SMOOTH",
"339 178 OFFCURVE",
"249 178 QCURVE SMOOTH",
"159 178 OFFCURVE",
"159 78 QCURVE SMOOTH",
"159 -23 OFFCURVE"
);
}
);
width = 499;
},
{
layerId = "A10A3B8F-5047-4E3E-80F3-6554B53DC79D";
paths = (
{
closed = 1;
nodes = (
"221 848 OFFCURVE",
"272 848 QCURVE SMOOTH",
"323 848 OFFCURVE",
"401 913 OFFCURVE",
"401 987 QCURVE SMOOTH",
"401 1065 OFFCURVE",
"323 1126 OFFCURVE",
"272 1126 QCURVE SMOOTH",
"221 1126 OFFCURVE",
"147 1065 OFFCURVE",
"147 987 QCURVE SMOOTH",
"147 913 OFFCURVE"
);
},
{
closed = 1;
nodes = (
"221 -29 OFFCURVE",
"272 -29 QCURVE SMOOTH",
"323 -29 OFFCURVE",
"401 37 OFFCURVE",
"401 111 QCURVE SMOOTH",
"401 186 OFFCURVE",
"323 248 OFFCURVE",
"272 248 QCURVE SMOOTH",
"221 248 OFFCURVE",
"147 186 OFFCURVE",
"147 111 QCURVE SMOOTH",
"147 37 OFFCURVE"
);
}
);
userData = {
assembly = "NPUSHB[ ]	/* 28 values pushed */\0120 1 1 0 97 0 0 0 40 77 0 2 2 3 97 0 3 3 38 3 78 36 36 36 34 4 8 26 \012CALL[ ]	/* CallFunction */";
};
width = 548;
},
{
layerId = "742C6D49-27A7-4CE6-BB95-CE3E85DCFAA1";
paths = (
{
closed = 1;
nodes = (
"218 799 OFFCURVE",
"292 799 QCURVE SMOOTH",
"364 799 OFFCURVE",
"466 879 OFFCURVE",
"466 969 QCURVE SMOOTH",
"466 1063 OFFCURVE",
"364 1139 OFFCURVE",
"292 1139 QCURVE SMOOTH",
"218 1139 OFFCURVE",
"116 1063 OFFCURVE",
"116 969 QCURVE SMOOTH",
"116 879 OFFCURVE"
);
},
{
closed = 1;
nodes = (
"218 -27 OFFCURVE",
"292 -27 QCURVE SMOOTH",
"364 -27 OFFCURVE",
"466 53 OFFCURVE",
"466 143 QCURVE SMOOTH",
"466 238 OFFCURVE",
"364 313 OFFCURVE",
"292 313 QCURVE SMOOTH",
"218 313 OFFCURVE",
"116 238 OFFCURVE",
"116 143 QCURVE SMOOTH",
"116 53 OFFCURVE"
);
}
);
width = 583;
},
{
layerId = "1AE80326-82F5-491E-9ED8-F639C1D819D6";
paths = (
{
closed = 1;
nodes = (
"211 764 OFFCURVE",
"299 764 QCURVE SMOOTH",
"381 764 OFFCURVE",
"504 854 OFFCURVE",
"504 956 QCURVE SMOOTH",
"504 1061 OFFCURVE",
"381 1147 OFFCURVE",
"299 1147 QCURVE SMOOTH",
"211 1147 OFFCURVE",
"86 1061 OFFCURVE",
"86 956 QCURVE SMOOTH",
"86 854 OFFCURVE"
);
},
{
closed = 1;
nodes = (
"211 -25 OFFCURVE",
"299 -25 QCURVE SMOOTH",
"381 -25 OFFCURVE",
"504 66 OFFCURVE",
"504 166 QCURVE SMOOTH",
"504 272 OFFCURVE",
"381 358 OFFCURVE",
"299 358 QCURVE SMOOTH",
"211 358 OFFCURVE",
"86 272 OFFCURVE",
"86 166 QCURVE SMOOTH",
"86 66 OFFCURVE"
);
}
);
width = 591;
}
);
note = colon;
unicode = 003A;
},
{
glyphname = semicolon;
lastChange = "2020-10-12 02:38:09 +0000";
layers = (
{
layerId = "89D8C5C7-992A-4B79-A2F2-D8D3CE0BA992";
paths = (
{
closed = 1;
nodes = (
"194 963 OFFCURVE",
"224 963 QCURVE SMOOTH",
"261 963 OFFCURVE",
"280 999 OFFCURVE",
"280 1026 QCURVE SMOOTH",
"280 1051 OFFCURVE",
"261 1090 OFFCURVE",
"224 1090 QCURVE SMOOTH",
"194 1090 OFFCURVE",
"173 1051 OFFCURVE",
"173 1026 QCURVE SMOOTH",
"173 999 OFFCURVE"
);
},
{
closed = 1;
nodes = (
"175 121 OFFCURVE",
"122 -115 OFFCURVE",
"77 -264 QCURVE",
"122 -264 LINE",
"165 -158 OFFCURVE",
"233 98 OFFCURVE",
"255 213 QCURVE",
"249 238 LINE",
"192 238 LINE"
);
}
);
width = 450;
},
{
layerId = "963BFE9B-9129-4C18-A3F3-46AD815B745B";
paths = (
{
closed = 1;
nodes = (
"245 905 QCURVE SMOOTH",
"339 905 OFFCURVE",
"339 1008 QCURVE SMOOTH",
"339 1108 OFFCURVE",
"245 1108 QCURVE SMOOTH",
"159 1108 OFFCURVE",
"159 1008 QCURVE SMOOTH",
"159 905 OFFCURVE"
);
},
{
closed = 1;
nodes = (
"163 125 OFFCURVE",
"106 -131 OFFCURVE",
"69 -264 QCURVE",
"159 -264 LINE",
"204 -156 OFFCURVE",
"290 102 OFFCURVE",
"315 213 QCURVE",
"305 238 LINE",
"180 238 LINE"
);
}
);
width = 499;
},
{
layerId = "A10A3B8F-5047-4E3E-80F3-6554B53DC79D";
paths = (
{
closed = 1;
nodes = (
"217 848 OFFCURVE",
"268 848 QCURVE SMOOTH",
"321 848 OFFCURVE",
"397 913 OFFCURVE",
"397 987 QCURVE SMOOTH",
"397 1065 OFFCURVE",
"321 1126 OFFCURVE",
"268 1126 QCURVE SMOOTH",
"217 1126 OFFCURVE",
"143 1065 OFFCURVE",
"143 987 QCURVE SMOOTH",
"143 913 OFFCURVE"
);
},
{
closed = 1;
nodes = (
"122 -8 OFFCURVE",
"81 -188 OFFCURVE",
"63 -264 QCURVE",
"198 -264 LINE",
"247 -156 OFFCURVE",
"348 106 OFFCURVE",
"374 215 QCURVE",
"360 238 LINE",
"167 238 LINE",
"157 166 OFFCURVE"
);
}
);
userData = {
assembly = "NPUSHB[ ]	/* 25 values pushed */\0120 2 0 3 2 3 99 0 1 1 0 97 0 0 0 40 1 78 20 18 36 34 4 8 26 \012CALL[ ]	/* CallFunction */";
};
width = 548;
},
{
layerId = "742C6D49-27A7-4CE6-BB95-CE3E85DCFAA1";
paths = (
{
closed = 1;
nodes = (
"219 799 OFFCURVE",
"292 799 QCURVE SMOOTH",
"364 799 OFFCURVE",
"466 879 OFFCURVE",
"466 969 QCURVE SMOOTH",
"466 1063 OFFCURVE",
"364 1139 OFFCURVE",
"292 1139 QCURVE SMOOTH",
"219 1139 OFFCURVE",
"116 1063 OFFCURVE",
"116 969 QCURVE SMOOTH",
"116 879 OFFCURVE"
);
},
{
closed = 1;
nodes = (
"147 131 OFFCURVE",
"92 -143 OFFCURVE",
"63 -264 QCURVE",
"282 -264 LINE",
"333 -152 OFFCURVE",
"430 106 OFFCURVE",
"458 215 QCURVE",
"444 238 LINE",
"163 238 LINE"
);
}
);
width = 583;
},
{
layerId = "1AE80326-82F5-491E-9ED8-F639C1D819D6";
paths = (
{
closed = 1;
nodes = (
"215 764 OFFCURVE",
"303 764 QCURVE SMOOTH",
"385 764 OFFCURVE",
"510 854 OFFCURVE",
"510 956 QCURVE SMOOTH",
"510 1061 OFFCURVE",
"385 1147 OFFCURVE",
"303 1147 QCURVE SMOOTH",
"215 1147 OFFCURVE",
"92 1061 OFFCURVE",
"92 956 QCURVE SMOOTH",
"92 854 OFFCURVE"
);
},
{
closed = 1;
nodes = (
"147 217 OFFCURVE",
"114 16 OFFCURVE",
"77 -193 OFFCURVE",
"57 -285 QCURVE",
"336 -285 LINE",
"368 -209 OFFCURVE",
"436 -2 OFFCURVE",
"493 203 OFFCURVE",
"512 276 QCURVE",
"497 299 LINE",
"155 299 LINE"
);
}
);
width = 608;
}
);
note = semicolon;
unicode = 003B;
},
{
glyphname = less;
lastChange = "2020-10-12 02:38:09 +0000";
layers = (
{
layerId = "89D8C5C7-992A-4B79-A2F2-D8D3CE0BA992";
paths = (
{
closed = 1;
nodes = (
"186 741 LINE",
"1052 1147 LINE",
"1052 1200 LINE",
"114 760 LINE",
"114 723 LINE",
"1052 283 LINE",
"1052 336 LINE"
);
}
);
width = 1167;
},
{
layerId = "963BFE9B-9129-4C18-A3F3-46AD815B745B";
paths = (
{
closed = 1;
nodes = (
"239 731 LINE",
"1060 1116 LINE",
"1060 1223 LINE",
"108 762 LINE",
"108 692 LINE",
"1060 260 LINE",
"1060 367 LINE"
);
}
);
width = 1169;
},
{
layerId = "A10A3B8F-5047-4E3E-80F3-6554B53DC79D";
paths = (
{
closed = 1;
nodes = (
"1067 1245 LINE",
"102 764 LINE",
"102 662 LINE",
"1067 238 LINE",
"1067 397 LINE",
"295 721 LINE",
"1067 1085 LINE"
);
}
);
userData = {
assembly = "PUSHB[ ]	/* 4 values pushed */\0125 2 1 50 \012CALL[ ]	/* CallFunction */";
};
width = 1171;
},
{
layerId = "742C6D49-27A7-4CE6-BB95-CE3E85DCFAA1";
paths = (
{
closed = 1;
nodes = (
"397 723 LINE",
"1081 1040 LINE",
"1081 1280 LINE",
"88 784 LINE",
"88 641 LINE",
"1081 203 LINE",
"1081 442 LINE"
);
}
);
width = 1171;
},
{
layerId = "1AE80326-82F5-491E-9ED8-F639C1D819D6";
paths = (
{
closed = 1;
nodes = (
"483 725 LINE",
"1104 1008 LINE",
"1104 1305 LINE",
"92 799 LINE",
"92 627 LINE",
"1104 178 LINE",
"1104 473 LINE"
);
}
);
width = 1200;
}
);
note = less;
unicode = 003C;
},
{
glyphname = equal;
lastChange = "2020-10-12 02:38:09 +0000";
layers = (
{
layerId = "89D8C5C7-992A-4B79-A2F2-D8D3CE0BA992";
paths = (
{
closed = 1;
nodes = (
"1054 956 LINE",
"112 956 LINE",
"112 907 LINE",
"1054 907 LINE"
);
},
{
closed = 1;
nodes = (
"1054 539 LINE",
"112 539 LINE",
"112 489 LINE",
"1054 489 LINE"
);
}
);
width = 1167;
},
{
layerId = "963BFE9B-9129-4C18-A3F3-46AD815B745B";
paths = (
{
closed = 1;
nodes = (
"1052 977 LINE",
"114 977 LINE",
"114 881 LINE",
"1052 881 LINE"
);
},
{
closed = 1;
nodes = (
"1052 565 LINE",
"114 565 LINE",
"114 467 LINE",
"1052 467 LINE"
);
}
);
width = 1169;
},
{
layerId = "A10A3B8F-5047-4E3E-80F3-6554B53DC79D";
paths = (
{
closed = 1;
nodes = (
"114 852 LINE",
"1052 852 LINE",
"1052 997 LINE",
"114 997 LINE"
);
},
{
closed = 1;
nodes = (
"114 444 LINE",
"1052 444 LINE",
"1052 590 LINE",
"114 590 LINE"
);
}
);
userData = {
assembly = "NPUSHB[ ]	/* 45 values pushed */\0124 1 1 0 0 3 1 0 103 5 1 3 2 2 3 87 5 1 3 3 2 95 0 2 3 2 79 4 4 0 0 4 7 4 7 6 5 0 3 0 3 17 6 8 23 \012CALL[ ]	/* CallFunction */";
};
width = 1171;
},
{
layerId = "742C6D49-27A7-4CE6-BB95-CE3E85DCFAA1";
paths = (
{
closed = 1;
nodes = (
"1081 1024 LINE",
"88 1024 LINE",
"88 807 LINE",
"1081 807 LINE"
);
},
{
closed = 1;
nodes = (
"1081 637 LINE",
"88 637 LINE",
"88 418 LINE",
"1081 418 LINE"
);
}
);
width = 1171;
},
{
layerId = "1AE80326-82F5-491E-9ED8-F639C1D819D6";
paths = (
{
closed = 1;
nodes = (
"1108 1083 LINE",
"92 1083 LINE",
"92 815 LINE",
"1108 815 LINE"
);
},
{
closed = 1;
nodes = (
"1108 629 LINE",
"92 629 LINE",
"92 358 LINE",
"1108 358 LINE"
);
}
);
width = 1200;
}
);
note = equal;
unicode = 003D;
},
{
glyphname = greater;
lastChange = "2020-10-12 02:38:09 +0000";
layers = (
{
layerId = "89D8C5C7-992A-4B79-A2F2-D8D3CE0BA992";
paths = (
{
closed = 1;
nodes = (
"1052 723 LINE",
"1052 760 LINE",
"114 1200 LINE",
"114 1147 LINE",
"980 741 LINE",
"114 336 LINE",
"114 283 LINE"
);
}
);
width = 1167;
},
{
layerId = "963BFE9B-9129-4C18-A3F3-46AD815B745B";
paths = (
{
closed = 1;
nodes = (
"1060 692 LINE",
"1060 762 LINE",
"108 1223 LINE",
"108 1116 LINE",
"927 729 LINE",
"108 367 LINE",
"108 260 LINE"
);
}
);
width = 1169;
},
{
layerId = "A10A3B8F-5047-4E3E-80F3-6554B53DC79D";
paths = (
{
closed = 1;
nodes = (
"102 1245 LINE",
"102 1085 LINE",
"874 719 LINE",
"102 397 LINE",
"102 238 LINE",
"1067 662 LINE",
"1067 764 LINE"
);
}
);
userData = {
assembly = "PUSHB[ ]	/* 4 values pushed */\0125 1 1 50 \012CALL[ ]	/* CallFunction */";
};
width = 1171;
},
{
layerId = "742C6D49-27A7-4CE6-BB95-CE3E85DCFAA1";
paths = (
{
closed = 1;
nodes = (
"1081 641 LINE",
"1081 784 LINE",
"88 1280 LINE",
"88 1040 LINE",
"772 723 LINE",
"88 442 LINE",
"88 203 LINE"
);
}
);
width = 1171;
},
{
layerId = "1AE80326-82F5-491E-9ED8-F639C1D819D6";
paths = (
{
closed = 1;
nodes = (
"1104 627 LINE",
"1104 799 LINE",
"92 1305 LINE",
"92 1008 LINE",
"713 725 LINE",
"92 473 LINE",
"92 178 LINE"
);
}
);
width = 1200;
}
);
note = greater;
unicode = 003E;
},
{
glyphname = question;
lastChange = "2020-10-12 02:38:09 +0000";
layers = (
{
layerId = "89D8C5C7-992A-4B79-A2F2-D8D3CE0BA992";
paths = (
{
closed = 1;
nodes = (
"345 381 LINE SMOOTH",
"345 520 OFFCURVE",
"415 662 OFFCURVE",
"495 717 QCURVE SMOOTH",
"577 774 OFFCURVE",
"698 887 OFFCURVE",
"765 1032 OFFCURVE",
"765 1135 QCURVE SMOOTH",
"765 1311 OFFCURVE",
"556 1483 OFFCURVE",
"384 1483 QCURVE SMOOTH",
"302 1483 OFFCURVE",
"167 1452 OFFCURVE",
"77 1415 QCURVE",
"97 1362 LINE",
"171 1399 OFFCURVE",
"308 1432 OFFCURVE",
"384 1432 QCURVE SMOOTH",
"528 1432 OFFCURVE",
"710 1288 OFFCURVE",
"710 1135 QCURVE SMOOTH",
"710 1040 OFFCURVE",
"650 913 OFFCURVE",
"542 811 OFFCURVE",
"468 760 QCURVE SMOOTH",
"396 709 OFFCURVE",
"323 612 OFFCURVE",
"294 483 OFFCURVE",
"294 381 QCURVE SMOOTH",
"294 356 LINE",
"345 356 LINE"
);
},
{
closed = 1;
nodes = (
"292 -16 OFFCURVE",
"323 -16 QCURVE SMOOTH",
"360 -16 OFFCURVE",
"378 20 OFFCURVE",
"378 47 QCURVE SMOOTH",
"378 72 OFFCURVE",
"360 111 OFFCURVE",
"323 111 QCURVE SMOOTH",
"292 111 OFFCURVE",
"272 72 OFFCURVE",
"272 47 QCURVE SMOOTH",
"272 20 OFFCURVE"
);
}
);
width = 845;
},
{
layerId = "963BFE9B-9129-4C18-A3F3-46AD815B745B";
paths = (
{
closed = 1;
nodes = (
"389 414 LINE SMOOTH",
"389 489 OFFCURVE",
"416 594 OFFCURVE",
"483 678 OFFCURVE",
"545 725 QCURVE SMOOTH",
"622 784 OFFCURVE",
"737 895 OFFCURVE",
"801 1032 OFFCURVE",
"801 1130 QCURVE SMOOTH",
"801 1298 OFFCURVE",
"590 1483 OFFCURVE",
"405 1483 QCURVE SMOOTH",
"303 1483 OFFCURVE",
"137 1438 OFFCURVE",
"51 1399 QCURVE",
"94 1300 LINE",
"164 1335 OFFCURVE",
"311 1378 OFFCURVE",
"401 1378 QCURVE SMOOTH",
"532 1378 OFFCURVE",
"688 1253 OFFCURVE",
"688 1126 QCURVE SMOOTH",
"688 1049 OFFCURVE",
"639 942 OFFCURVE",
"540 846 OFFCURVE",
"463 786 QCURVE SMOOTH",
"395 733 OFFCURVE",
"319 635 OFFCURVE",
"291 512 OFFCURVE",
"291 424 QCURVE SMOOTH",
"291 385 LINE",
"389 385 LINE"
);
},
{
closed = 1;
nodes = (
"344 -23 QCURVE SMOOTH",
"434 -23 OFFCURVE",
"434 78 QCURVE SMOOTH",
"434 178 OFFCURVE",
"344 178 QCURVE SMOOTH",
"256 178 OFFCURVE",
"256 78 QCURVE SMOOTH",
"256 -23 OFFCURVE"
);
}
);
width = 868;
},
{
layerId = "A10A3B8F-5047-4E3E-80F3-6554B53DC79D";
paths = (
{
closed = 1;
nodes = (
"430 504 OFFCURVE",
"454 590 OFFCURVE",
"524 676 OFFCURVE",
"593 733 QCURVE SMOOTH",
"667 795 OFFCURVE",
"776 903 OFFCURVE",
"835 1032 OFFCURVE",
"835 1124 QCURVE SMOOTH",
"835 1290 OFFCURVE",
"622 1483 OFFCURVE",
"427 1483 QCURVE SMOOTH",
"305 1483 OFFCURVE",
"106 1425 OFFCURVE",
"24 1382 QCURVE",
"87 1239 LINE",
"159 1274 OFFCURVE",
"315 1325 OFFCURVE",
"415 1325 QCURVE SMOOTH",
"536 1325 OFFCURVE",
"663 1219 OFFCURVE",
"663 1120 QCURVE SMOOTH",
"663 1059 OFFCURVE",
"626 973 OFFCURVE",
"536 881 OFFCURVE",
"458 815 QCURVE SMOOTH",
"393 758 OFFCURVE",
"317 657 OFFCURVE",
"286 545 OFFCURVE",
"286 467 QCURVE SMOOTH",
"286 412 LINE",
"430 412 LINE",
"430 446 LINE SMOOTH"
);
},
{
closed = 1;
nodes = (
"311 -29 OFFCURVE",
"366 -29 QCURVE SMOOTH",
"417 -29 OFFCURVE",
"491 37 OFFCURVE",
"491 111 QCURVE SMOOTH",
"491 186 OFFCURVE",
"417 248 OFFCURVE",
"366 248 QCURVE SMOOTH",
"311 248 OFFCURVE",
"239 186 OFFCURVE",
"239 111 QCURVE SMOOTH",
"239 37 OFFCURVE"
);
}
);
userData = {
assembly = "NPUSHB[ ]	/* 47 values pushed */\01217 1 1 2 16 1 0 1 2 76 0 0 1 3 1 0 3 128 0 1 1 2 97 0 2 2 37 77 0 3 3 4 97 0 4 4 38 4 78 36 45 37 43 16 5 8 27 \012CALL[ ]	/* CallFunction */";
};
width = 888;
},
{
layerId = "742C6D49-27A7-4CE6-BB95-CE3E85DCFAA1";
paths = (
{
closed = 1;
nodes = (
"541 545 LINE SMOOTH",
"541 586 OFFCURVE",
"563 645 OFFCURVE",
"627 705 OFFCURVE",
"688 750 QCURVE SMOOTH",
"768 807 OFFCURVE",
"874 913 OFFCURVE",
"928 1036 OFFCURVE",
"928 1120 QCURVE SMOOTH",
"928 1278 OFFCURVE",
"692 1483 OFFCURVE",
"479 1483 QCURVE SMOOTH",
"340 1483 OFFCURVE",
"106 1413 OFFCURVE",
"6 1358 QCURVE",
"115 1139 LINE",
"203 1184 OFFCURVE",
"371 1237 OFFCURVE",
"457 1237 QCURVE SMOOTH",
"543 1237 OFFCURVE",
"639 1167 OFFCURVE",
"639 1104 QCURVE SMOOTH",
"639 1038 OFFCURVE",
"559 942 OFFCURVE",
"467 877 QCURVE SMOOTH",
"362 801 OFFCURVE",
"276 659 OFFCURVE",
"276 559 QCURVE SMOOTH",
"276 485 LINE",
"541 485 LINE"
);
},
{
closed = 1;
nodes = (
"346 -27 OFFCURVE",
"420 -27 QCURVE SMOOTH",
"491 -27 OFFCURVE",
"594 53 OFFCURVE",
"594 143 QCURVE SMOOTH",
"594 238 OFFCURVE",
"491 313 OFFCURVE",
"420 313 QCURVE SMOOTH",
"346 313 OFFCURVE",
"244 238 OFFCURVE",
"244 143 QCURVE SMOOTH",
"244 53 OFFCURVE"
);
}
);
width = 976;
},
{
layerId = "1AE80326-82F5-491E-9ED8-F639C1D819D6";
paths = (
{
closed = 1;
nodes = (
"602 567 LINE SMOOTH",
"602 614 OFFCURVE",
"670 684 OFFCURVE",
"760 741 QCURVE SMOOTH",
"887 823 OFFCURVE",
"997 999 OFFCURVE",
"997 1118 QCURVE SMOOTH",
"997 1282 OFFCURVE",
"748 1483 OFFCURVE",
"520 1483 QCURVE SMOOTH",
"369 1483 OFFCURVE",
"113 1405 OFFCURVE",
"0 1341 QCURVE",
"139 1069 LINE",
"342 1176 OFFCURVE",
"492 1176 QCURVE SMOOTH",
"553 1176 OFFCURVE",
"629 1126 OFFCURVE",
"629 1085 QCURVE SMOOTH",
"629 1057 OFFCURVE",
"610 1006 OFFCURVE",
"545 942 OFFCURVE",
"477 899 QCURVE SMOOTH",
"369 831 OFFCURVE",
"295 694 OFFCURVE",
"295 602 QCURVE SMOOTH",
"295 516 LINE",
"602 516 LINE"
);
},
{
closed = 1;
nodes = (
"375 -25 OFFCURVE",
"463 -25 QCURVE SMOOTH",
"547 -25 OFFCURVE",
"670 66 OFFCURVE",
"670 166 QCURVE SMOOTH",
"670 272 OFFCURVE",
"547 358 OFFCURVE",
"463 358 QCURVE SMOOTH",
"375 358 OFFCURVE",
"252 272 OFFCURVE",
"252 166 QCURVE SMOOTH",
"252 66 OFFCURVE"
);
}
);
width = 1034;
}
);
note = question;
unicode = 003F;
},
{
glyphname = at;
lastChange = "2020-10-12 02:38:09 +0000";
layers = (
{
layerId = "89D8C5C7-992A-4B79-A2F2-D8D3CE0BA992";
paths = (
{
closed = 1;
nodes = (
"1513 1268 OFFCURVE",
"1183 1446 OFFCURVE",
"956 1446 QCURVE SMOOTH",
"704 1446 OFFCURVE",
"321 1245 OFFCURVE",
"106 860 OFFCURVE",
"106 582 QCURVE SMOOTH",
"106 340 OFFCURVE",
"286 -12 OFFCURVE",
"618 -205 OFFCURVE",
"847 -205 QCURVE SMOOTH",
"964 -205 OFFCURVE",
"1171 -164 OFFCURVE",
"1261 -127 QCURVE",
"1261 -70 LINE",
"1163 -111 OFFCURVE",
"950 -154 OFFCURVE",
"847 -154 QCURVE SMOOTH",
"632 -154 OFFCURVE",
"325 25 OFFCURVE",
"161 354 OFFCURVE",
"161 582 QCURVE SMOOTH",
"161 844 OFFCURVE",
"364 1206 OFFCURVE",
"724 1395 OFFCURVE",
"956 1395 QCURVE SMOOTH",
"1177 1395 OFFCURVE",
"1480 1225 OFFCURVE",
"1636 922 OFFCURVE",
"1636 719 QCURVE SMOOTH",
"1636 588 OFFCURVE",
"1581 385 OFFCURVE",
"1462 270 OFFCURVE",
"1372 270 QCURVE SMOOTH",
"1277 270 OFFCURVE",
"1202 393 OFFCURVE",
"1202 504 QCURVE SMOOTH",
"1202 557 OFFCURVE",
"1208 662 OFFCURVE",
"1210 698 QCURVE SMOOTH",
"1224 995 LINE",
"1167 1016 OFFCURVE",
"1036 1036 OFFCURVE",
"962 1036 QCURVE SMOOTH",
"833 1036 OFFCURVE",
"638 918 OFFCURVE",
"528 713 OFFCURVE",
"528 582 QCURVE SMOOTH",
"528 406 OFFCURVE",
"692 219 OFFCURVE",
"841 219 QCURVE SMOOTH",
"940 219 OFFCURVE",
"1112 319 OFFCURVE",
"1159 434 QCURVE",
"1163 330 OFFCURVE",
"1280 219 OFFCURVE",
"1372 219 QCURVE SMOOTH",
"1480 219 OFFCURVE",
"1622 352 OFFCURVE",
"1691 578 OFFCURVE",
"1691 719 QCURVE SMOOTH",
"1691 942 OFFCURVE"
);
},
{
closed = 1;
nodes = (
"794 985 OFFCURVE",
"962 985 QCURVE SMOOTH",
"1081 985 OFFCURVE",
"1171 954 QCURVE",
"1155 647 LINE SMOOTH",
"1144 453 OFFCURVE",
"985 270 OFFCURVE",
"841 270 QCURVE SMOOTH",
"710 270 OFFCURVE",
"583 434 OFFCURVE",
"583 582 QCURVE SMOOTH",
"583 768 OFFCURVE"
);
}
);
width = 1798;
},
{
layerId = "963BFE9B-9129-4C18-A3F3-46AD815B745B";
paths = (
{
closed = 1;
nodes = (
"1523 1278 OFFCURVE",
"1191 1454 OFFCURVE",
"970 1454 QCURVE SMOOTH",
"710 1454 OFFCURVE",
"325 1237 OFFCURVE",
"112 844 OFFCURVE",
"112 578 QCURVE SMOOTH",
"112 338 OFFCURVE",
"294 -8 OFFCURVE",
"632 -193 OFFCURVE",
"868 -193 QCURVE SMOOTH",
"991 -193 OFFCURVE",
"1204 -150 OFFCURVE",
"1294 -113 QCURVE",
"1294 -14 LINE",
"1202 -53 OFFCURVE",
"982 -100 OFFCURVE",
"868 -100 QCURVE SMOOTH",
"554 -100 OFFCURVE",
"212 258 OFFCURVE",
"212 582 QCURVE SMOOTH",
"212 819 OFFCURVE",
"397 1169 OFFCURVE",
"737 1360 OFFCURVE",
"970 1360 QCURVE SMOOTH",
"1167 1360 OFFCURVE",
"1451 1206 OFFCURVE",
"1607 922 OFFCURVE",
"1607 725 QCURVE SMOOTH",
"1607 606 OFFCURVE",
"1556 420 OFFCURVE",
"1453 311 OFFCURVE",
"1376 311 QCURVE SMOOTH",
"1304 311 OFFCURVE",
"1228 406 OFFCURVE",
"1228 516 QCURVE SMOOTH",
"1228 545 OFFCURVE",
"1230 612 OFFCURVE",
"1232 649 QCURVE SMOOTH",
"1249 1006 LINE",
"1195 1026 OFFCURVE",
"1044 1051 OFFCURVE",
"962 1051 QCURVE SMOOTH",
"831 1051 OFFCURVE",
"636 932 OFFCURVE",
"528 725 OFFCURVE",
"528 594 QCURVE SMOOTH",
"528 418 OFFCURVE",
"694 221 OFFCURVE",
"847 221 QCURVE SMOOTH",
"1062 221 OFFCURVE",
"1150 418 QCURVE",
"1154 418 LINE",
"1163 330 OFFCURVE",
"1275 221 OFFCURVE",
"1369 221 QCURVE SMOOTH",
"1482 221 OFFCURVE",
"1634 362 OFFCURVE",
"1707 592 OFFCURVE",
"1707 725 QCURVE SMOOTH",
"1707 950 OFFCURVE"
);
},
{
closed = 1;
nodes = (
"710 862 OFFCURVE",
"855 961 OFFCURVE",
"962 961 QCURVE SMOOTH",
"1015 961 OFFCURVE",
"1107 946 OFFCURVE",
"1142 934 QCURVE",
"1130 653 LINE SMOOTH",
"1122 487 OFFCURVE",
"989 311 OFFCURVE",
"860 311 QCURVE SMOOTH",
"751 311 OFFCURVE",
"634 451 OFFCURVE",
"634 590 QCURVE SMOOTH",
"634 694 OFFCURVE"
);
}
);
width = 1818;
},
{
layerId = "A10A3B8F-5047-4E3E-80F3-6554B53DC79D";
paths = (
{
closed = 1;
nodes = (
"1531 1286 OFFCURVE",
"1199 1462 OFFCURVE",
"986 1462 QCURVE SMOOTH",
"784 1462 OFFCURVE",
"462 1329 OFFCURVE",
"237 1090 OFFCURVE",
"118 764 OFFCURVE",
"118 573 QCURVE SMOOTH",
"118 336 OFFCURVE",
"300 -2 OFFCURVE",
"644 -182 OFFCURVE",
"886 -182 QCURVE SMOOTH",
"1019 -182 OFFCURVE",
"1238 -135 OFFCURVE",
"1326 -98 QCURVE",
"1326 41 LINE",
"1238 8 OFFCURVE",
"1011 -47 OFFCURVE",
"886 -47 QCURVE SMOOTH",
"585 -47 OFFCURVE",
"265 276 OFFCURVE",
"265 580 QCURVE SMOOTH",
"265 797 OFFCURVE",
"431 1135 OFFCURVE",
"753 1327 OFFCURVE",
"986 1327 QCURVE SMOOTH",
"1156 1327 OFFCURVE",
"1425 1188 OFFCURVE",
"1578 922 OFFCURVE",
"1578 733 QCURVE SMOOTH",
"1578 627 OFFCURVE",
"1531 455 OFFCURVE",
"1443 350 OFFCURVE",
"1380 350 QCURVE SMOOTH",
"1328 350 OFFCURVE",
"1253 418 OFFCURVE",
"1253 526 QCURVE SMOOTH",
"1253 532 OFFCURVE",
"1253 563 OFFCURVE",
"1255 600 QCURVE SMOOTH",
"1275 1016 LINE",
"1226 1034 OFFCURVE",
"1052 1065 OFFCURVE",
"962 1065 QCURVE SMOOTH",
"829 1065 OFFCURVE",
"634 946 OFFCURVE",
"528 737 OFFCURVE",
"528 604 QCURVE SMOOTH",
"528 432 OFFCURVE",
"696 223 OFFCURVE",
"853 223 QCURVE SMOOTH",
"962 223 OFFCURVE",
"1105 326 OFFCURVE",
"1142 401 QCURVE",
"1152 401 LINE",
"1165 332 OFFCURVE",
"1273 223 OFFCURVE",
"1367 223 QCURVE SMOOTH",
"1457 223 OFFCURVE",
"1588 311 OFFCURVE",
"1679 457 OFFCURVE",
"1722 637 OFFCURVE",
"1722 731 QCURVE SMOOTH",
"1722 958 OFFCURVE"
);
},
{
closed = 1;
nodes = (
"741 838 OFFCURVE",
"863 936 OFFCURVE",
"964 936 QCURVE SMOOTH",
"1007 936 OFFCURVE",
"1089 924 OFFCURVE",
"1115 915 QCURVE",
"1103 659 LINE SMOOTH",
"1095 522 OFFCURVE",
"995 350 OFFCURVE",
"880 350 QCURVE SMOOTH",
"790 350 OFFCURVE",
"687 467 OFFCURVE",
"687 600 QCURVE SMOOTH",
"687 684 OFFCURVE"
);
}
);
userData = {
assembly = "NPUSHB[ ]	/* 19 values pushed */\01222 1 9 2 71 8 2 3 9 47 1 5 0 48 1 6 5 4 76 \012MPPEM[ ]	/* MeasurePixelPerEm */\012PUSHB[ ]	/* 1 value pushed */\01230 \012LT[ ]	/* LessThan */\012IF[ ]	/* If */\012NPUSHB[ ]	/* 38 values pushed */\0128 1 3 1 1 0 5 3 0 105 0 5 0 6 5 6 101 0 4 4 7 97 0 7 7 31 77 0 9 9 2 97 0 2 2 34 9 78 \012ELSE[ ]	/* Else */\012NPUSHB[ ]	/* 36 values pushed */\0120 2 0 9 3 2 9 105 8 1 3 1 1 0 5 3 0 105 0 5 0 6 5 6 101 0 4 4 7 97 0 7 7 31 4 78 \012EIF[ ]	/* EndIf */\012NPUSHB[ ]	/* 14 values pushed */\01275 73 37 39 37 37 38 40 37 37 36 10 8 31 \012CALL[ ]	/* CallFunction */";
};
width = 1841;
},
{
layerId = "742C6D49-27A7-4CE6-BB95-CE3E85DCFAA1";
paths = (
{
closed = 1;
nodes = (
"1540 1286 OFFCURVE",
"1200 1462 OFFCURVE",
"981 1462 QCURVE SMOOTH",
"780 1462 OFFCURVE",
"454 1329 OFFCURVE",
"225 1090 OFFCURVE",
"102 770 OFFCURVE",
"102 584 QCURVE SMOOTH",
"102 346 OFFCURVE",
"292 8 OFFCURVE",
"653 -172 OFFCURVE",
"907 -172 QCURVE SMOOTH",
"1042 -172 OFFCURVE",
"1284 -123 OFFCURVE",
"1382 -82 QCURVE",
"1382 111 LINE",
"1273 70 OFFCURVE",
"1017 18 OFFCURVE",
"899 18 QCURVE SMOOTH",
"618 18 OFFCURVE",
"323 313 OFFCURVE",
"323 590 QCURVE SMOOTH",
"323 786 OFFCURVE",
"475 1096 OFFCURVE",
"768 1274 OFFCURVE",
"983 1274 QCURVE SMOOTH",
"1134 1274 OFFCURVE",
"1376 1147 OFFCURVE",
"1515 905 OFFCURVE",
"1515 735 QCURVE SMOOTH",
"1515 643 OFFCURVE",
"1484 489 OFFCURVE",
"1421 397 OFFCURVE",
"1376 397 QCURVE SMOOTH",
"1347 397 OFFCURVE",
"1300 453 OFFCURVE",
"1300 537 QCURVE SMOOTH",
"1300 543 OFFCURVE",
"1300 586 OFFCURVE",
"1302 606 QCURVE SMOOTH",
"1323 1026 LINE",
"1265 1047 OFFCURVE",
"1058 1081 OFFCURVE",
"962 1081 QCURVE SMOOTH",
"815 1081 OFFCURVE",
"598 961 OFFCURVE",
"479 750 OFFCURVE",
"479 612 QCURVE SMOOTH",
"479 434 OFFCURVE",
"677 215 OFFCURVE",
"860 215 QCURVE SMOOTH",
"956 215 OFFCURVE",
"1093 293 OFFCURVE",
"1134 344 QCURVE",
"1151 344 LINE",
"1173 287 OFFCURVE",
"1288 215 OFFCURVE",
"1364 215 QCURVE SMOOTH",
"1458 215 OFFCURVE",
"1597 303 OFFCURVE",
"1689 455 OFFCURVE",
"1734 639 OFFCURVE",
"1734 733 QCURVE SMOOTH",
"1734 958 OFFCURVE"
);
},
{
closed = 1;
nodes = (
"761 815 OFFCURVE",
"876 899 OFFCURVE",
"974 899 QCURVE SMOOTH",
"1007 899 OFFCURVE",
"1067 893 OFFCURVE",
"1089 889 QCURVE",
"1077 668 LINE SMOOTH",
"1069 547 OFFCURVE",
"985 397 OFFCURVE",
"882 397 QCURVE SMOOTH",
"804 397 OFFCURVE",
"710 496 OFFCURVE",
"710 608 QCURVE SMOOTH",
"710 680 OFFCURVE"
);
}
);
width = 1837;
},
{
layerId = "1AE80326-82F5-491E-9ED8-F639C1D819D6";
paths = (
{
closed = 1;
nodes = (
"1558 1305 OFFCURVE",
"1203 1481 OFFCURVE",
"968 1481 QCURVE SMOOTH",
"765 1481 OFFCURVE",
"437 1348 OFFCURVE",
"206 1112 OFFCURVE",
"81 795 OFFCURVE",
"81 610 QCURVE SMOOTH",
"81 373 OFFCURVE",
"278 31 OFFCURVE",
"650 -154 OFFCURVE",
"912 -154 QCURVE SMOOTH",
"1050 -154 OFFCURVE",
"1306 -104 OFFCURVE",
"1412 -59 QCURVE",
"1412 170 LINE",
"1289 125 OFFCURVE",
"1011 74 OFFCURVE",
"898 74 QCURVE SMOOTH",
"626 74 OFFCURVE",
"353 365 OFFCURVE",
"353 606 QCURVE SMOOTH",
"353 795 OFFCURVE",
"493 1090 OFFCURVE",
"769 1257 OFFCURVE",
"972 1257 QCURVE SMOOTH",
"1230 1257 OFFCURVE",
"1490 987 OFFCURVE",
"1490 758 QCURVE SMOOTH",
"1490 676 OFFCURVE",
"1461 535 OFFCURVE",
"1410 451 OFFCURVE",
"1373 451 QCURVE SMOOTH",
"1351 451 OFFCURVE",
"1324 489 OFFCURVE",
"1324 537 QCURVE SMOOTH",
"1324 565 OFFCURVE",
"1326 621 OFFCURVE",
"1326 631 QCURVE SMOOTH",
"1347 1053 LINE",
"1281 1075 OFFCURVE",
"1091 1114 OFFCURVE",
"990 1114 QCURVE SMOOTH",
"822 1114 OFFCURVE",
"595 989 OFFCURVE",
"478 774 OFFCURVE",
"478 639 QCURVE SMOOTH",
"478 457 OFFCURVE",
"667 233 OFFCURVE",
"857 233 QCURVE SMOOTH",
"941 233 OFFCURVE",
"1072 301 OFFCURVE",
"1117 352 QCURVE",
"1132 352 LINE",
"1171 295 OFFCURVE",
"1302 233 OFFCURVE",
"1375 233 QCURVE SMOOTH",
"1467 233 OFFCURVE",
"1609 324 OFFCURVE",
"1705 473 OFFCURVE",
"1754 659 OFFCURVE",
"1754 756 QCURVE SMOOTH",
"1754 979 OFFCURVE"
);
},
{
closed = 1;
nodes = (
"872 895 OFFCURVE",
"994 895 QCURVE SMOOTH",
"1013 895 OFFCURVE",
"1042 893 OFFCURVE",
"1062 889 QCURVE",
"1052 733 LINE SMOOTH",
"1044 582 OFFCURVE",
"974 451 OFFCURVE",
"892 451 QCURVE SMOOTH",
"833 451 OFFCURVE",
"759 541 OFFCURVE",
"759 641 QCURVE SMOOTH",
"759 743 OFFCURVE"
);
}
);
width = 1837;
}
);
note = at;
unicode = 0040;
},
{
glyphname = A;
lastChange = "2020-10-12 02:38:09 +0000";
layers = (
{
layerId = "89D8C5C7-992A-4B79-A2F2-D8D3CE0BA992";
paths = (
{
closed = 1;
nodes = (
"629 1466 LINE",
"578 1466 LINE",
"0 0 LINE",
"57 0 LINE",
"276 555 LINE",
"911 555 LINE",
"1124 0 LINE",
"1182 0 LINE"
);
},
{
closed = 1;
nodes = (
"532 1214 LINE SMOOTH",
"549 1255 OFFCURVE",
"586 1352 OFFCURVE",
"600 1397 QCURVE",
"621 1339 OFFCURVE",
"653 1251 OFFCURVE",
"666 1217 QCURVE SMOOTH",
"891 606 LINE",
"295 606 LINE"
);
}
);
width = 1181;
},
{
layerId = "963BFE9B-9129-4C18-A3F3-46AD815B745B";
paths = (
{
closed = 1;
nodes = (
"684 1466 LINE",
"573 1466 LINE",
"0 0 LINE",
"121 0 LINE",
"319 504 LINE",
"926 504 LINE",
"1120 0 LINE",
"1245 0 LINE"
);
},
{
closed = 1;
nodes = (
"561 1137 LINE",
"573 1176 OFFCURVE",
"610 1284 OFFCURVE",
"627 1337 QCURVE",
"643 1290 OFFCURVE",
"684 1167 OFFCURVE",
"692 1139 QCURVE",
"889 610 LINE",
"358 610 LINE"
);
}
);
width = 1245;
},
{
layerId = "A10A3B8F-5047-4E3E-80F3-6554B53DC79D";
paths = (
{
closed = 1;
nodes = (
"600 1094 OFFCURVE",
"635 1214 OFFCURVE",
"651 1278 QCURVE",
"659 1253 OFFCURVE",
"686 1161 OFFCURVE",
"715 1075 OFFCURVE",
"721 1059 QCURVE SMOOTH",
"885 616 LINE",
"422 616 LINE",
"588 1059 LINE SMOOTH"
);
},
{
closed = 1;
nodes = (
"0 0 LINE",
"186 0 LINE",
"360 453 LINE",
"940 453 LINE",
"1116 0 LINE",
"1307 0 LINE",
"737 1468 LINE",
"571 1468 LINE"
);
}
);
userData = {
assembly = "NPUSHB[ ]	/* 40 values pushed */\0126 1 0 4 1 76 0 0 0 2 1 0 2 104 5 1 4 4 31 77 3 1 1 1 32 1 78 10 10 10 17 10 17 17 17 26 16 6 8 26 \012CALL[ ]	/* CallFunction */";
};
width = 1308;
},
{
layerId = "742C6D49-27A7-4CE6-BB95-CE3E85DCFAA1";
paths = (
{
closed = 1;
nodes = (
"895 1468 LINE",
"516 1468 LINE",
"0 0 LINE",
"334 0 LINE",
"440 348 LINE",
"973 348 LINE",
"1079 0 LINE",
"1413 0 LINE"
);
},
{
closed = 1;
nodes = (
"623 948 LINE SMOOTH",
"631 971 OFFCURVE",
"662 1079 OFFCURVE",
"696 1200 OFFCURVE",
"707 1241 QCURVE",
"717 1200 OFFCURVE",
"750 1090 OFFCURVE",
"782 983 OFFCURVE",
"793 948 QCURVE SMOOTH",
"899 608 LINE",
"518 608 LINE"
);
}
);
width = 1413;
},
{
layerId = "1AE80326-82F5-491E-9ED8-F639C1D819D6";
paths = (
{
closed = 1;
nodes = (
"1004 1468 LINE",
"477 1468 LINE",
"0 0 LINE",
"434 0 LINE",
"508 274 LINE",
"983 274 LINE",
"1055 0 LINE",
"1487 0 LINE"
);
},
{
closed = 1;
nodes = (
"653 838 LINE SMOOTH",
"666 885 OFFCURVE",
"700 1030 OFFCURVE",
"733 1176 OFFCURVE",
"743 1227 QCURVE",
"754 1176 OFFCURVE",
"791 1022 OFFCURVE",
"827 877 OFFCURVE",
"838 838 QCURVE SMOOTH",
"901 598 LINE",
"590 598 LINE"
);
}
);
width = 1486;
}
);
note = A;
unicode = 0041;
},
{
glyphname = B;
lastChange = "2020-10-12 02:38:09 +0000";
layers = (
{
layerId = "89D8C5C7-992A-4B79-A2F2-D8D3CE0BA992";
paths = (
{
closed = 1;
nodes = (
"620 0 LINE SMOOTH",
"769 0 OFFCURVE",
"1005 82 OFFCURVE",
"1140 266 OFFCURVE",
"1140 416 QCURVE SMOOTH",
"1140 553 OFFCURVE",
"994 741 OFFCURVE",
"814 768 QCURVE",
"814 772 LINE",
"955 797 OFFCURVE",
"1103 985 OFFCURVE",
"1103 1110 QCURVE SMOOTH",
"1103 1286 OFFCURVE",
"869 1462 OFFCURVE",
"601 1462 QCURVE SMOOTH",
"210 1462 LINE",
"210 0 LINE"
);
},
{
closed = 1;
nodes = (
"595 1411 LINE SMOOTH",
"833 1411 OFFCURVE",
"1048 1270 OFFCURVE",
"1048 1108 QCURVE SMOOTH",
"1048 795 OFFCURVE",
"620 795 QCURVE SMOOTH",
"263 795 LINE",
"263 1411 LINE"
);
},
{
closed = 1;
nodes = (
"761 743 OFFCURVE",
"972 684 OFFCURVE",
"1084 541 OFFCURVE",
"1084 414 QCURVE SMOOTH",
"1084 225 OFFCURVE",
"845 51 OFFCURVE",
"636 51 QCURVE SMOOTH",
"263 51 LINE",
"263 743 LINE",
"613 743 LINE SMOOTH"
);
}
);
width = 1255;
},
{
layerId = "963BFE9B-9129-4C18-A3F3-46AD815B745B";
paths = (
{
closed = 1;
nodes = (
"667 0 LINE SMOOTH",
"818 0 OFFCURVE",
"1050 90 OFFCURVE",
"1179 274 OFFCURVE",
"1179 416 QCURVE SMOOTH",
"1179 571 OFFCURVE",
"1013 741 OFFCURVE",
"853 766 QCURVE",
"853 774 LINE",
"990 799 OFFCURVE",
"1138 979 OFFCURVE",
"1138 1106 QCURVE SMOOTH",
"1138 1294 OFFCURVE",
"880 1462 OFFCURVE",
"610 1462 QCURVE SMOOTH",
"204 1462 LINE",
"204 0 LINE"
);
},
{
closed = 1;
nodes = (
"610 1358 LINE SMOOTH",
"822 1358 OFFCURVE",
"1015 1235 OFFCURVE",
"1015 1094 QCURVE SMOOTH",
"1015 956 OFFCURVE",
"837 817 OFFCURVE",
"636 817 QCURVE SMOOTH",
"323 817 LINE",
"323 1358 LINE"
);
},
{
closed = 1;
nodes = (
"851 715 OFFCURVE",
"1054 573 OFFCURVE",
"1054 422 QCURVE SMOOTH",
"1054 102 OFFCURVE",
"657 102 QCURVE SMOOTH",
"323 102 LINE",
"323 715 LINE",
"638 715 LINE SMOOTH"
);
}
);
width = 1294;
},
{
layerId = "A10A3B8F-5047-4E3E-80F3-6554B53DC79D";
paths = (
{
closed = 1;
nodes = (
"948 0 OFFCURVE",
"1220 217 OFFCURVE",
"1220 416 QCURVE SMOOTH",
"1220 528 OFFCURVE",
"1134 672 OFFCURVE",
"984 750 OFFCURVE",
"892 766 QCURVE",
"892 776 LINE",
"1027 801 OFFCURVE",
"1171 971 OFFCURVE",
"1171 1100 QCURVE SMOOTH",
"1171 1298 OFFCURVE",
"888 1462 OFFCURVE",
"616 1462 QCURVE SMOOTH",
"198 1462 LINE",
"198 0 LINE",
"712 0 LINE SMOOTH"
);
},
{
closed = 1;
nodes = (
"810 1305 OFFCURVE",
"980 1200 OFFCURVE",
"980 1079 QCURVE SMOOTH",
"980 961 OFFCURVE",
"839 840 OFFCURVE",
"653 840 QCURVE SMOOTH",
"382 840 LINE",
"382 1305 LINE",
"624 1305 LINE SMOOTH"
);
},
{
closed = 1;
nodes = (
"1023 545 OFFCURVE",
"1023 430 QCURVE SMOOTH",
"1023 307 OFFCURVE",
"872 156 OFFCURVE",
"677 156 QCURVE SMOOTH",
"382 156 LINE",
"382 686 LINE",
"663 686 LINE SMOOTH",
"866 686 OFFCURVE"
);
}
);
userData = {
assembly = "NPUSHB[ ]	/* 64 values pushed */\0128 1 4 2 1 76 0 2 8 1 4 5 2 4 103 7 1 3 3 0 95 0 0 0 31 77 0 5 5 1 95 6 1 1 1 32 1 78 27 26 17 17 0 0 30 28 26 34 27 34 17 25 17 24 20 18 0 16 0 15 33 9 8 23 \012CALL[ ]	/* CallFunction */";
};
width = 1331;
},
{
layerId = "742C6D49-27A7-4CE6-BB95-CE3E85DCFAA1";
paths = (
{
closed = 1;
nodes = (
"731 0 LINE SMOOTH",
"979 0 OFFCURVE",
"1267 225 OFFCURVE",
"1267 424 QCURVE SMOOTH",
"1267 539 OFFCURVE",
"1198 678 OFFCURVE",
"1077 750 OFFCURVE",
"1005 766 QCURVE",
"1005 776 LINE",
"1114 795 OFFCURVE",
"1231 967 OFFCURVE",
"1231 1092 QCURVE SMOOTH",
"1231 1298 OFFCURVE",
"929 1462 OFFCURVE",
"639 1462 QCURVE SMOOTH",
"184 1462 LINE",
"184 0 LINE"
);
},
{
closed = 1;
nodes = (
"657 1208 LINE SMOOTH",
"790 1208 OFFCURVE",
"913 1135 OFFCURVE",
"913 1051 QCURVE SMOOTH",
"913 967 OFFCURVE",
"809 883 OFFCURVE",
"673 883 QCURVE SMOOTH",
"493 883 LINE",
"493 1208 LINE"
);
},
{
closed = 1;
nodes = (
"833 637 OFFCURVE",
"946 537 OFFCURVE",
"946 455 QCURVE SMOOTH",
"946 365 OFFCURVE",
"835 256 OFFCURVE",
"696 256 QCURVE SMOOTH",
"493 256 LINE",
"493 637 LINE",
"686 637 LINE SMOOTH"
);
}
);
width = 1376;
},
{
layerId = "1AE80326-82F5-491E-9ED8-F639C1D819D6";
paths = (
{
closed = 1;
nodes = (
"726 0 LINE SMOOTH",
"984 0 OFFCURVE",
"1283 229 OFFCURVE",
"1283 428 QCURVE SMOOTH",
"1283 545 OFFCURVE",
"1204 682 OFFCURVE",
"1085 750 OFFCURVE",
"1025 766 QCURVE",
"1025 776 LINE",
"1081 791 OFFCURVE",
"1185 868 OFFCURVE",
"1255 1001 OFFCURVE",
"1255 1098 QCURVE SMOOTH",
"1255 1274 OFFCURVE",
"982 1462 OFFCURVE",
"667 1462 QCURVE SMOOTH",
"157 1462 LINE",
"157 0 LINE"
);
},
{
closed = 1;
nodes = (
"663 1163 LINE SMOOTH",
"849 1163 OFFCURVE",
"849 1040 QCURVE SMOOTH",
"849 983 OFFCURVE",
"769 901 OFFCURVE",
"671 901 QCURVE SMOOTH",
"552 901 LINE",
"552 1163 LINE"
);
},
{
closed = 1;
nodes = (
"794 612 OFFCURVE",
"876 520 OFFCURVE",
"876 461 QCURVE SMOOTH",
"876 393 OFFCURVE",
"794 305 OFFCURVE",
"692 305 QCURVE SMOOTH",
"552 305 LINE",
"552 612 LINE",
"683 612 LINE SMOOTH"
);
}
);
width = 1380;
}
);
note = B;
unicode = 0042;
},
{
glyphname = C;
lastChange = "2020-10-12 02:38:09 +0000";
layers = (
{
layerId = "89D8C5C7-992A-4B79-A2F2-D8D3CE0BA992";
paths = (
{
closed = 1;
nodes = (
"1085 1401 OFFCURVE",
"1173 1356 QCURVE",
"1194 1407 LINE",
"1028 1483 OFFCURVE",
"829 1483 QCURVE SMOOTH",
"610 1483 OFFCURVE",
"297 1288 OFFCURVE",
"129 950 OFFCURVE",
"129 737 QCURVE SMOOTH",
"129 510 OFFCURVE",
"279 170 OFFCURVE",
"573 -20 OFFCURVE",
"791 -20 QCURVE SMOOTH",
"911 -20 OFFCURVE",
"1100 16 OFFCURVE",
"1167 43 QCURVE",
"1167 90 LINE",
"1094 63 OFFCURVE",
"909 31 OFFCURVE",
"791 31 QCURVE SMOOTH",
"590 31 OFFCURVE",
"319 207 OFFCURVE",
"184 524 OFFCURVE",
"184 737 QCURVE SMOOTH",
"184 938 OFFCURVE",
"336 1251 OFFCURVE",
"623 1432 OFFCURVE",
"829 1432 QCURVE SMOOTH",
"913 1432 OFFCURVE"
);
}
);
width = 1257;
},
{
layerId = "963BFE9B-9129-4C18-A3F3-46AD815B745B";
paths = (
{
closed = 1;
nodes = (
"1164 1298 QCURVE",
"1211 1401 LINE",
"1041 1483 OFFCURVE",
"826 1483 QCURVE SMOOTH",
"605 1483 OFFCURVE",
"292 1290 OFFCURVE",
"126 952 OFFCURVE",
"126 735 QCURVE SMOOTH",
"126 508 OFFCURVE",
"276 168 OFFCURVE",
"572 -20 OFFCURVE",
"794 -20 QCURVE SMOOTH",
"912 -20 OFFCURVE",
"1095 12 OFFCURVE",
"1170 41 QCURVE",
"1170 143 LINE",
"1091 119 OFFCURVE",
"912 86 OFFCURVE",
"806 86 QCURVE SMOOTH",
"622 86 OFFCURVE",
"376 246 OFFCURVE",
"251 537 OFFCURVE",
"251 733 QCURVE SMOOTH",
"251 926 OFFCURVE",
"388 1214 OFFCURVE",
"646 1376 OFFCURVE",
"826 1376 QCURVE SMOOTH",
"1005 1376 OFFCURVE"
);
}
);
width = 1275;
},
{
layerId = "A10A3B8F-5047-4E3E-80F3-6554B53DC79D";
paths = (
{
closed = 1;
nodes = (
"1089 1272 OFFCURVE",
"1156 1241 QCURVE",
"1230 1397 LINE",
"1058 1483 OFFCURVE",
"826 1483 QCURVE SMOOTH",
"601 1483 OFFCURVE",
"286 1292 OFFCURVE",
"124 954 OFFCURVE",
"124 733 QCURVE SMOOTH",
"124 504 OFFCURVE",
"274 164 OFFCURVE",
"573 -20 OFFCURVE",
"796 -20 QCURVE SMOOTH",
"917 -20 OFFCURVE",
"1091 8 OFFCURVE",
"1173 39 QCURVE",
"1173 199 LINE",
"1089 174 OFFCURVE",
"917 141 OFFCURVE",
"822 141 QCURVE SMOOTH",
"570 141 OFFCURVE",
"319 459 OFFCURVE",
"319 731 QCURVE SMOOTH",
"319 1006 OFFCURVE",
"589 1321 OFFCURVE",
"824 1321 QCURVE SMOOTH",
"923 1321 OFFCURVE"
);
}
);
userData = {
assembly = "NPUSHB[ ]	/* 52 values pushed */\01223 1 0 3 24 9 2 1 0 10 1 2 1 3 76 4 1 0 0 3 97 0 3 3 37 77 0 1 1 2 97 0 2 2 38 2 78 1 0 22 20 14 12 7 5 0 26 1 26 5 8 22 \012CALL[ ]	/* CallFunction */";
};
width = 1294;
},
{
layerId = "742C6D49-27A7-4CE6-BB95-CE3E85DCFAA1";
paths = (
{
closed = 1;
nodes = (
"1050 1167 OFFCURVE",
"1132 1128 QCURVE",
"1232 1380 LINE",
"1132 1427 OFFCURVE",
"913 1483 OFFCURVE",
"804 1483 QCURVE SMOOTH",
"583 1483 OFFCURVE",
"278 1290 OFFCURVE",
"118 950 OFFCURVE",
"118 729 QCURVE SMOOTH",
"118 504 OFFCURVE",
"257 166 OFFCURVE",
"548 -20 OFFCURVE",
"775 -20 QCURVE SMOOTH",
"892 -20 OFFCURVE",
"1081 16 OFFCURVE",
"1177 55 QCURVE",
"1177 315 LINE",
"1072 279 OFFCURVE",
"892 238 OFFCURVE",
"804 238 QCURVE SMOOTH",
"612 238 OFFCURVE",
"437 494 OFFCURVE",
"437 727 QCURVE SMOOTH",
"437 958 OFFCURVE",
"626 1225 OFFCURVE",
"804 1225 QCURVE SMOOTH",
"884 1225 OFFCURVE"
);
}
);
width = 1304;
},
{
layerId = "1AE80326-82F5-491E-9ED8-F639C1D819D6";
paths = (
{
closed = 1;
nodes = (
"1065 1108 OFFCURVE",
"1144 1069 QCURVE",
"1265 1380 LINE",
"1153 1434 OFFCURVE",
"919 1483 OFFCURVE",
"813 1483 QCURVE SMOOTH",
"585 1483 OFFCURVE",
"268 1288 OFFCURVE",
"104 948 OFFCURVE",
"104 727 QCURVE SMOOTH",
"104 506 OFFCURVE",
"247 168 OFFCURVE",
"548 -20 OFFCURVE",
"788 -20 QCURVE SMOOTH",
"901 -20 OFFCURVE",
"1105 18 OFFCURVE",
"1202 61 QCURVE",
"1202 395 LINE",
"1110 356 OFFCURVE",
"927 303 OFFCURVE",
"831 303 QCURVE SMOOTH",
"667 303 OFFCURVE",
"510 518 OFFCURVE",
"510 725 QCURVE SMOOTH",
"510 930 OFFCURVE",
"669 1159 OFFCURVE",
"809 1159 QCURVE SMOOTH",
"901 1159 OFFCURVE"
);
}
);
width = 1329;
}
);
note = C;
unicode = 0043;
},
{
glyphname = D;
lastChange = "2020-10-12 02:38:09 +0000";
layers = (
{
layerId = "89D8C5C7-992A-4B79-A2F2-D8D3CE0BA992";
paths = (
{
closed = 1;
nodes = (
"935 1462 OFFCURVE",
"572 1462 QCURVE SMOOTH",
"210 1462 LINE",
"210 0 LINE",
"525 0 LINE SMOOTH",
"908 0 OFFCURVE",
"1285 379 OFFCURVE",
"1285 745 QCURVE SMOOTH",
"1285 1094 OFFCURVE"
);
},
{
closed = 1;
nodes = (
"532 51 QCURVE SMOOTH",
"263 51 LINE",
"263 1411 LINE",
"552 1411 LINE SMOOTH",
"908 1411 OFFCURVE",
"1230 1069 OFFCURVE",
"1230 743 QCURVE SMOOTH",
"1230 51 OFFCURVE"
);
}
);
width = 1417;
},
{
layerId = "963BFE9B-9129-4C18-A3F3-46AD815B745B";
paths = (
{
closed = 1;
nodes = (
"958 1462 OFFCURVE",
"610 1462 QCURVE SMOOTH",
"204 1462 LINE",
"204 0 LINE",
"564 0 LINE SMOOTH",
"937 0 OFFCURVE",
"1326 377 OFFCURVE",
"1326 745 QCURVE SMOOTH",
"1326 1096 OFFCURVE"
);
},
{
closed = 1;
nodes = (
"556 104 QCURVE SMOOTH",
"323 104 LINE",
"323 1358 LINE",
"587 1358 LINE SMOOTH",
"1203 1358 OFFCURVE",
"1203 741 QCURVE SMOOTH",
"1203 104 OFFCURVE"
);
}
);
width = 1456;
},
{
layerId = "A10A3B8F-5047-4E3E-80F3-6554B53DC79D";
paths = (
{
closed = 1;
nodes = (
"1193 1298 OFFCURVE",
"868 1462 OFFCURVE",
"649 1462 QCURVE SMOOTH",
"198 1462 LINE",
"198 0 LINE",
"606 0 LINE SMOOTH",
"966 0 OFFCURVE",
"1369 375 OFFCURVE",
"1369 745 QCURVE SMOOTH",
"1369 979 OFFCURVE"
);
},
{
closed = 1;
nodes = (
"581 158 QCURVE SMOOTH",
"382 158 LINE",
"382 1305 LINE",
"622 1305 LINE SMOOTH",
"886 1305 OFFCURVE",
"1175 1032 OFFCURVE",
"1175 739 QCURVE SMOOTH",
"1175 158 OFFCURVE"
);
}
);
userData = {
assembly = "NPUSHB[ ]	/* 28 values pushed */\0120 2 2 1 95 0 1 1 31 77 0 3 3 0 95 0 0 0 32 0 78 33 37 33 34 4 8 26 \012CALL[ ]	/* CallFunction */";
};
width = 1495;
},
{
layerId = "742C6D49-27A7-4CE6-BB95-CE3E85DCFAA1";
paths = (
{
closed = 1;
nodes = (
"1210 1298 OFFCURVE",
"872 1462 OFFCURVE",
"643 1462 QCURVE SMOOTH",
"184 1462 LINE",
"184 0 LINE",
"598 0 LINE SMOOTH",
"975 0 OFFCURVE",
"1396 375 OFFCURVE",
"1396 745 QCURVE SMOOTH",
"1396 979 OFFCURVE"
);
},
{
closed = 1;
nodes = (
"626 256 QCURVE SMOOTH",
"493 256 LINE",
"493 1208 LINE",
"659 1208 LINE SMOOTH",
"862 1208 OFFCURVE",
"1075 979 OFFCURVE",
"1075 737 QCURVE SMOOTH",
"1075 256 OFFCURVE"
);
}
);
width = 1515;
},
{
layerId = "1AE80326-82F5-491E-9ED8-F639C1D819D6";
paths = (
{
closed = 1;
nodes = (
"1015 1462 OFFCURVE",
"663 1462 QCURVE SMOOTH",
"157 1462 LINE",
"157 0 LINE",
"630 0 LINE SMOOTH",
"864 0 OFFCURVE",
"1208 168 OFFCURVE",
"1398 508 OFFCURVE",
"1398 762 QCURVE SMOOTH",
"1398 1102 OFFCURVE"
);
},
{
closed = 1;
nodes = (
"821 324 OFFCURVE",
"640 324 QCURVE SMOOTH",
"552 324 LINE",
"552 1143 LINE",
"667 1143 LINE SMOOTH",
"988 1143 OFFCURVE",
"988 748 QCURVE SMOOTH",
"988 532 OFFCURVE"
);
}
);
width = 1503;
}
);
note = D;
unicode = 0044;
},
{
glyphname = E;
lastChange = "2020-10-12 02:38:09 +0000";
layers = (
{
layerId = "89D8C5C7-992A-4B79-A2F2-D8D3CE0BA992";
paths = (
{
closed = 1;
nodes = (
"263 51 LINE",
"263 745 LINE",
"958 745 LINE",
"958 797 LINE",
"263 797 LINE",
"263 1411 LINE",
"998 1411 LINE",
"998 1462 LINE",
"210 1462 LINE",
"210 0 LINE",
"998 0 LINE",
"998 51 LINE"
);
}
);
width = 1126;
},
{
layerId = "963BFE9B-9129-4C18-A3F3-46AD815B745B";
paths = (
{
closed = 1;
nodes = (
"323 106 LINE",
"323 715 LINE",
"968 715 LINE",
"968 819 LINE",
"323 819 LINE",
"323 1356 LINE",
"1007 1356 LINE",
"1007 1462 LINE",
"204 1462 LINE",
"204 0 LINE",
"1007 0 LINE",
"1007 106 LINE"
);
}
);
width = 1132;
},
{
layerId = "A10A3B8F-5047-4E3E-80F3-6554B53DC79D";
paths = (
{
closed = 1;
nodes = (
"978 684 LINE",
"978 844 LINE",
"382 844 LINE",
"382 1300 LINE",
"1015 1300 LINE",
"1015 1462 LINE",
"198 1462 LINE",
"198 0 LINE",
"1015 0 LINE",
"1015 162 LINE",
"382 162 LINE",
"382 684 LINE"
);
}
);
userData = {
assembly = "NPUSHB[ ]	/* 38 values pushed */\0120 4 0 5 0 4 5 103 0 3 3 2 95 0 2 2 31 77 0 0 0 1 95 0 1 1 32 1 78 17 17 17 17 17 16 6 8 28 \012CALL[ ]	/* CallFunction */";
};
width = 1138;
},
{
layerId = "742C6D49-27A7-4CE6-BB95-CE3E85DCFAA1";
paths = (
{
closed = 1;
nodes = (
"493 256 LINE",
"493 633 LINE",
"989 633 LINE",
"989 887 LINE",
"493 887 LINE",
"493 1208 LINE",
"1026 1208 LINE",
"1026 1462 LINE",
"184 1462 LINE",
"184 0 LINE",
"1026 0 LINE",
"1026 256 LINE"
);
}
);
width = 1146;
},
{
layerId = "1AE80326-82F5-491E-9ED8-F639C1D819D6";
paths = (
{
closed = 1;
nodes = (
"552 322 LINE",
"552 598 LINE",
"991 598 LINE",
"991 915 LINE",
"552 915 LINE",
"552 1145 LINE",
"1025 1145 LINE",
"1025 1462 LINE",
"157 1462 LINE",
"157 0 LINE",
"1025 0 LINE",
"1025 322 LINE"
);
}
);
width = 1124;
}
);
note = E;
unicode = 0045;
},
{
glyphname = F;
lastChange = "2020-10-12 02:38:09 +0000";
layers = (
{
layerId = "89D8C5C7-992A-4B79-A2F2-D8D3CE0BA992";
paths = (
{
closed = 1;
nodes = (
"962 674 LINE",
"962 725 LINE",
"263 725 LINE",
"263 1411 LINE",
"1001 1411 LINE",
"1001 1462 LINE",
"210 1462 LINE",
"210 0 LINE",
"263 0 LINE",
"263 674 LINE"
);
}
);
width = 1007;
},
{
layerId = "963BFE9B-9129-4C18-A3F3-46AD815B745B";
paths = (
{
closed = 1;
nodes = (
"970 647 LINE",
"970 754 LINE",
"323 754 LINE",
"323 1356 LINE",
"1007 1356 LINE",
"1007 1462 LINE",
"204 1462 LINE",
"204 0 LINE",
"323 0 LINE",
"323 647 LINE"
);
}
);
width = 1036;
},
{
layerId = "A10A3B8F-5047-4E3E-80F3-6554B53DC79D";
paths = (
{
closed = 1;
nodes = (
"382 782 LINE",
"382 1300 LINE",
"1015 1300 LINE",
"1015 1462 LINE",
"198 1462 LINE",
"198 0 LINE",
"382 0 LINE",
"382 621 LINE",
"976 621 LINE",
"976 782 LINE"
);
}
);
userData = {
assembly = "NPUSHB[ ]	/* 32 values pushed */\0120 4 0 0 1 4 0 103 0 3 3 2 95 0 2 2 31 77 0 1 1 32 1 78 17 17 17 17 16 5 8 27 \012CALL[ ]	/* CallFunction */";
};
width = 1062;
},
{
layerId = "742C6D49-27A7-4CE6-BB95-CE3E85DCFAA1";
paths = (
{
closed = 1;
nodes = (
"985 578 LINE",
"985 831 LINE",
"489 831 LINE",
"489 1208 LINE",
"1022 1208 LINE",
"1022 1462 LINE",
"184 1462 LINE",
"184 0 LINE",
"489 0 LINE",
"489 578 LINE"
);
}
);
width = 1124;
},
{
layerId = "1AE80326-82F5-491E-9ED8-F639C1D819D6";
paths = (
{
closed = 1;
nodes = (
"984 549 LINE",
"984 866 LINE",
"546 866 LINE",
"546 1145 LINE",
"1021 1145 LINE",
"1021 1462 LINE",
"157 1462 LINE",
"157 0 LINE",
"546 0 LINE",
"546 549 LINE"
);
}
);
width = 1103;
}
);
note = F;
unicode = 0046;
},
{
glyphname = G;
lastChange = "2020-10-12 02:38:09 +0000";
layers = (
{
layerId = "89D8C5C7-992A-4B79-A2F2-D8D3CE0BA992";
paths = (
{
closed = 1;
nodes = (
"1255 666 LINE",
"1255 102 LINE",
"1176 70 OFFCURVE",
"977 31 OFFCURVE",
"858 31 QCURVE SMOOTH",
"653 31 OFFCURVE",
"350 174 OFFCURVE",
"184 481 OFFCURVE",
"184 729 QCURVE SMOOTH",
"184 932 OFFCURVE",
"348 1251 OFFCURVE",
"655 1436 OFFCURVE",
"866 1436 QCURVE SMOOTH",
"965 1436 OFFCURVE",
"1163 1397 OFFCURVE",
"1268 1346 QCURVE",
"1292 1397 LINE",
"1196 1444 OFFCURVE",
"985 1487 OFFCURVE",
"868 1487 QCURVE SMOOTH",
"639 1487 OFFCURVE",
"307 1286 OFFCURVE",
"129 942 OFFCURVE",
"129 727 QCURVE SMOOTH",
"129 369 OFFCURVE",
"500 -20 OFFCURVE",
"854 -20 QCURVE SMOOTH",
"975 -20 OFFCURVE",
"1210 27 OFFCURVE",
"1309 74 QCURVE",
"1309 717 LINE",
"752 717 LINE",
"752 666 LINE"
);
}
);
width = 1474;
},
{
layerId = "963BFE9B-9129-4C18-A3F3-46AD815B745B";
paths = (
{
closed = 1;
nodes = (
"1203 637 LINE",
"1203 137 LINE",
"1136 115 OFFCURVE",
"970 84 OFFCURVE",
"863 84 QCURVE SMOOTH",
"562 84 OFFCURVE",
"249 414 OFFCURVE",
"249 729 QCURVE SMOOTH",
"249 922 OFFCURVE",
"398 1214 OFFCURVE",
"675 1378 OFFCURVE",
"867 1378 QCURVE SMOOTH",
"1070 1378 OFFCURVE",
"1256 1290 QCURVE",
"1306 1397 LINE",
"1211 1440 OFFCURVE",
"994 1485 OFFCURVE",
"876 1485 QCURVE SMOOTH",
"640 1485 OFFCURVE",
"304 1292 OFFCURVE",
"126 950 OFFCURVE",
"126 729 QCURVE SMOOTH",
"126 377 OFFCURVE",
"491 -20 OFFCURVE",
"839 -20 QCURVE SMOOTH",
"978 -20 OFFCURVE",
"1216 23 OFFCURVE",
"1322 66 QCURVE",
"1322 745 LINE",
"792 745 LINE",
"792 637 LINE"
);
}
);
width = 1482;
},
{
layerId = "A10A3B8F-5047-4E3E-80F3-6554B53DC79D";
paths = (
{
closed = 1;
nodes = (
"1154 174 LINE",
"1099 160 OFFCURVE",
"964 139 OFFCURVE",
"867 139 QCURVE SMOOTH",
"671 139 OFFCURVE",
"429 289 OFFCURVE",
"317 557 OFFCURVE",
"317 731 QCURVE SMOOTH",
"317 1004 OFFCURVE",
"609 1321 OFFCURVE",
"872 1321 QCURVE SMOOTH",
"976 1321 OFFCURVE",
"1171 1270 OFFCURVE",
"1248 1237 QCURVE",
"1318 1397 LINE",
"1224 1438 OFFCURVE",
"1005 1483 OFFCURVE",
"882 1483 QCURVE SMOOTH",
"642 1483 OFFCURVE",
"302 1296 OFFCURVE",
"124 958 OFFCURVE",
"124 731 QCURVE SMOOTH",
"124 500 OFFCURVE",
"286 162 OFFCURVE",
"597 -20 OFFCURVE",
"824 -20 QCURVE SMOOTH",
"978 -20 OFFCURVE",
"1220 16 OFFCURVE",
"1338 55 QCURVE",
"1338 772 LINE",
"833 772 LINE",
"833 608 LINE",
"1154 608 LINE"
);
}
);
userData = {
assembly = "NPUSHB[ ]	/* 62 values pushed */\01217 1 3 2 18 1 0 3 31 1 4 5 3 1 1 4 4 76 0 0 6 1 5 4 0 5 103 0 3 3 2 97 0 2 2 37 77 0 4 4 1 97 0 1 1 38 1 78 0 0 0 32 0 32 37 37 38 35 17 7 8 27 \012CALL[ ]	/* CallFunction */";
};
width = 1490;
},
{
layerId = "742C6D49-27A7-4CE6-BB95-CE3E85DCFAA1";
paths = (
{
closed = 1;
nodes = (
"1015 563 LINE",
"1015 258 LINE",
"974 250 OFFCURVE",
"884 238 OFFCURVE",
"818 238 QCURVE SMOOTH",
"683 238 OFFCURVE",
"515 362 OFFCURVE",
"437 584 OFFCURVE",
"437 727 QCURVE SMOOTH",
"437 877 OFFCURVE",
"546 1102 OFFCURVE",
"745 1225 OFFCURVE",
"880 1225 QCURVE SMOOTH",
"974 1225 OFFCURVE",
"1146 1180 OFFCURVE",
"1214 1145 QCURVE",
"1316 1393 LINE",
"1224 1434 OFFCURVE",
"999 1483 OFFCURVE",
"882 1483 QCURVE SMOOTH",
"636 1483 OFFCURVE",
"294 1298 OFFCURVE",
"118 963 OFFCURVE",
"118 733 QCURVE SMOOTH",
"118 365 OFFCURVE",
"470 -20 OFFCURVE",
"798 -20 QCURVE SMOOTH",
"954 -20 OFFCURVE",
"1203 25 OFFCURVE",
"1318 63 QCURVE",
"1318 821 LINE",
"739 821 LINE",
"739 563 LINE"
);
}
);
width = 1482;
},
{
layerId = "1AE80326-82F5-491E-9ED8-F639C1D819D6";
paths = (
{
closed = 1;
nodes = (
"1005 551 LINE",
"1005 322 LINE",
"978 315 OFFCURVE",
"878 305 OFFCURVE",
"843 305 QCURVE SMOOTH",
"684 305 OFFCURVE",
"512 520 OFFCURVE",
"512 725 QCURVE SMOOTH",
"512 844 OFFCURVE",
"583 1040 OFFCURVE",
"743 1159 OFFCURVE",
"874 1159 QCURVE SMOOTH",
"970 1159 OFFCURVE",
"1142 1120 OFFCURVE",
"1220 1081 QCURVE",
"1345 1391 LINE",
"1255 1430 OFFCURVE",
"1009 1483 OFFCURVE",
"872 1483 QCURVE SMOOTH",
"622 1483 OFFCURVE",
"280 1300 OFFCURVE",
"104 965 OFFCURVE",
"104 735 QCURVE SMOOTH",
"104 479 OFFCURVE",
"282 143 OFFCURVE",
"600 -20 OFFCURVE",
"811 -20 QCURVE SMOOTH",
"970 -20 OFFCURVE",
"1261 29 OFFCURVE",
"1376 68 QCURVE",
"1376 856 LINE",
"745 856 LINE",
"745 551 LINE"
);
}
);
width = 1515;
}
);
note = G;
unicode = 0047;
},
{
glyphname = H;
lastChange = "2020-10-12 02:38:09 +0000";
layers = (
{
layerId = "89D8C5C7-992A-4B79-A2F2-D8D3CE0BA992";
paths = (
{
closed = 1;
nodes = (
"1181 1462 LINE",
"1181 795 LINE",
"263 795 LINE",
"263 1462 LINE",
"210 1462 LINE",
"210 0 LINE",
"263 0 LINE",
"263 743 LINE",
"1181 743 LINE",
"1181 0 LINE",
"1234 0 LINE",
"1234 1462 LINE"
);
}
);
width = 1445;
},
{
layerId = "963BFE9B-9129-4C18-A3F3-46AD815B745B";
paths = (
{
closed = 1;
nodes = (
"1156 1462 LINE",
"1156 819 LINE",
"323 819 LINE",
"323 1462 LINE",
"204 1462 LINE",
"204 0 LINE",
"323 0 LINE",
"323 713 LINE",
"1156 713 LINE",
"1156 0 LINE",
"1275 0 LINE",
"1275 1462 LINE"
);
}
);
width = 1482;
},
{
layerId = "A10A3B8F-5047-4E3E-80F3-6554B53DC79D";
paths = (
{
closed = 1;
nodes = (
"382 844 LINE",
"382 1462 LINE",
"198 1462 LINE",
"198 0 LINE",
"382 0 LINE",
"382 682 LINE",
"1132 682 LINE",
"1132 0 LINE",
"1316 0 LINE",
"1316 1462 LINE",
"1132 1462 LINE",
"1132 844 LINE"
);
}
);
userData = {
assembly = "NPUSHB[ ]	/* 30 values pushed */\0120 5 0 2 1 5 2 103 4 1 0 0 31 77 3 1 1 1 32 1 78 17 17 17 17 17 16 6 8 28 \012CALL[ ]	/* CallFunction */";
};
width = 1517;
},
{
layerId = "742C6D49-27A7-4CE6-BB95-CE3E85DCFAA1";
paths = (
{
closed = 1;
nodes = (
"1073 1462 LINE",
"1073 889 LINE",
"493 889 LINE",
"493 1462 LINE",
"184 1462 LINE",
"184 0 LINE",
"493 0 LINE",
"493 631 LINE",
"1073 631 LINE",
"1073 0 LINE",
"1382 0 LINE",
"1382 1462 LINE"
);
}
);
width = 1566;
},
{
layerId = "1AE80326-82F5-491E-9ED8-F639C1D819D6";
paths = (
{
closed = 1;
nodes = (
"1013 1462 LINE",
"1013 920 LINE",
"554 920 LINE",
"554 1462 LINE",
"157 1462 LINE",
"157 0 LINE",
"554 0 LINE",
"554 596 LINE",
"1013 596 LINE",
"1013 0 LINE",
"1410 0 LINE",
"1410 1462 LINE"
);
}
);
width = 1568;
}
);
note = H;
unicode = 0048;
},
{
glyphname = I;
lastChange = "2020-10-12 02:38:09 +0000";
layers = (
{
layerId = "89D8C5C7-992A-4B79-A2F2-D8D3CE0BA992";
paths = (
{
closed = 1;
nodes = (
"317 47 LINE",
"317 1413 LINE",
"456 1421 LINE",
"456 1462 LINE",
"124 1462 LINE",
"124 1421 LINE",
"263 1413 LINE",
"263 47 LINE",
"124 41 LINE",
"124 0 LINE",
"456 0 LINE",
"456 41 LINE"
);
}
);
width = 579;
},
{
layerId = "963BFE9B-9129-4C18-A3F3-46AD815B745B";
paths = (
{
closed = 1;
nodes = (
"376 96 LINE",
"376 1364 LINE",
"532 1389 LINE",
"532 1462 LINE",
"102 1462 LINE",
"102 1389 LINE",
"258 1364 LINE",
"258 96 LINE",
"102 74 LINE",
"102 0 LINE",
"532 0 LINE",
"532 74 LINE"
);
}
);
width = 636;
},
{
layerId = "A10A3B8F-5047-4E3E-80F3-6554B53DC79D";
paths = (
{
closed = 1;
nodes = (
"609 1356 LINE",
"609 1462 LINE",
"81 1462 LINE",
"81 1356 LINE",
"253 1315 LINE",
"253 145 LINE",
"81 106 LINE",
"81 0 LINE",
"609 0 LINE",
"609 106 LINE",
"437 145 LINE",
"437 1315 LINE"
);
}
);
userData = {
assembly = "NPUSHB[ ]	/* 29 values pushed */\01211 10 7 6 5 4 1 0 8 0 1 1 76 0 1 1 31 77 0 0 0 32 0 78 21 18 2 8 24 \012CALL[ ]	/* CallFunction */";
};
width = 694;
},
{
layerId = "742C6D49-27A7-4CE6-BB95-CE3E85DCFAA1";
paths = (
{
closed = 1;
nodes = (
"552 258 LINE",
"552 1204 LINE",
"731 1286 LINE",
"731 1462 LINE",
"65 1462 LINE",
"65 1286 LINE",
"243 1204 LINE",
"243 258 LINE",
"65 176 LINE",
"65 0 LINE",
"731 0 LINE",
"731 176 LINE"
);
}
);
width = 796;
},
{
layerId = "1AE80326-82F5-491E-9ED8-F639C1D819D6";
paths = (
{
closed = 1;
nodes = (
"649 295 LINE",
"649 1169 LINE",
"831 1237 LINE",
"831 1462 LINE",
"69 1462 LINE",
"69 1237 LINE",
"251 1169 LINE",
"251 295 LINE",
"69 225 LINE",
"69 0 LINE",
"831 0 LINE",
"831 225 LINE"
);
}
);
width = 901;
}
);
note = I;
unicode = 0049;
},
{
glyphname = J;
lastChange = "2020-10-12 02:38:09 +0000";
layers = (
{
layerId = "89D8C5C7-992A-4B79-A2F2-D8D3CE0BA992";
paths = (
{
closed = 1;
nodes = (
"212 -260 OFFCURVE",
"271 -98 OFFCURVE",
"271 4 QCURVE SMOOTH",
"271 1462 LINE",
"218 1462 LINE",
"218 10 LINE SMOOTH",
"218 -129 OFFCURVE",
"109 -303 OFFCURVE",
"-38 -303 QCURVE SMOOTH",
"-85 -303 OFFCURVE",
"-171 -287 OFFCURVE",
"-200 -274 QCURVE",
"-200 -332 LINE",
"-173 -340 OFFCURVE",
"-96 -356 OFFCURVE",
"-38 -356 QCURVE SMOOTH",
"76 -356 OFFCURVE"
);
}
);
width = 473;
},
{
layerId = "963BFE9B-9129-4C18-A3F3-46AD815B745B";
paths = (
{
closed = 1;
nodes = (
"322 -168 OFFCURVE",
"322 12 QCURVE SMOOTH",
"322 1462 LINE",
"203 1462 LINE",
"203 8 LINE SMOOTH",
"203 -266 OFFCURVE",
"-26 -266 QCURVE SMOOTH",
"-71 -266 OFFCURVE",
"-149 -250 OFFCURVE",
"-180 -242 QCURVE",
"-180 -348 LINE",
"-151 -356 OFFCURVE",
"-78 -373 OFFCURVE",
"-24 -373 QCURVE SMOOTH",
"148 -373 OFFCURVE"
);
}
);
width = 516;
},
{
layerId = "A10A3B8F-5047-4E3E-80F3-6554B53DC79D";
paths = (
{
closed = 1;
nodes = (
"373 -188 OFFCURVE",
"373 23 QCURVE SMOOTH",
"373 1462 LINE",
"189 1462 LINE",
"189 8 LINE SMOOTH",
"189 -86 OFFCURVE",
"132 -186 OFFCURVE",
"40 -227 OFFCURVE",
"-12 -227 QCURVE SMOOTH",
"-53 -227 OFFCURVE",
"-126 -217 OFFCURVE",
"-159 -207 QCURVE",
"-159 -362 LINE",
"-130 -375 OFFCURVE",
"-57 -389 OFFCURVE",
"-7 -389 QCURVE SMOOTH",
"165 -389 OFFCURVE"
);
}
);
userData = {
assembly = "NPUSHB[ ]	/* 37 values pushed */\0124 1 1 2 3 1 0 1 2 76 0 1 3 1 0 1 0 101 0 2 2 31 2 78 1 0 13 12 8 6 0 16 1 16 4 8 22 \012CALL[ ]	/* CallFunction */";
};
width = 559;
},
{
layerId = "742C6D49-27A7-4CE6-BB95-CE3E85DCFAA1";
paths = (
{
closed = 1;
nodes = (
"377 -326 OFFCURVE",
"494 -94 OFFCURVE",
"494 94 QCURVE SMOOTH",
"494 1462 LINE",
"185 1462 LINE",
"185 92 LINE SMOOTH",
"185 -16 OFFCURVE",
"136 -129 OFFCURVE",
"48 -170 OFFCURVE",
"-6 -170 QCURVE SMOOTH",
"-47 -170 OFFCURVE",
"-118 -158 OFFCURVE",
"-151 -150 QCURVE",
"-151 -408 LINE",
"-118 -418 OFFCURVE",
"-28 -430 OFFCURVE",
"31 -430 QCURVE SMOOTH",
"168 -430 OFFCURVE"
);
}
);
width = 677;
},
{
layerId = "1AE80326-82F5-491E-9ED8-F639C1D819D6";
paths = (
{
closed = 1;
nodes = (
"431 -342 OFFCURVE",
"564 -78 OFFCURVE",
"564 143 QCURVE SMOOTH",
"564 1462 LINE",
"167 1462 LINE",
"167 109 LINE SMOOTH",
"167 -23 OFFCURVE",
"91 -152 OFFCURVE",
"-16 -152 QCURVE SMOOTH",
"-57 -152 OFFCURVE",
"-128 -137 OFFCURVE",
"-161 -131 QCURVE",
"-161 -438 LINE",
"-124 -446 OFFCURVE",
"-24 -459 OFFCURVE",
"44 -459 QCURVE SMOOTH",
"197 -459 OFFCURVE"
);
}
);
width = 720;
}
);
note = J;
unicode = 004A;
},
{
glyphname = K;
lastChange = "2020-10-12 02:38:09 +0000";
layers = (
{
layerId = "89D8C5C7-992A-4B79-A2F2-D8D3CE0BA992";
paths = (
{
closed = 1;
nodes = (
"1130 1462 LINE",
"1052 1462 LINE",
"366 770 LINE SMOOTH",
"339 741 OFFCURVE",
"286 690 OFFCURVE",
"263 664 QCURVE",
"263 1462 LINE",
"210 1462 LINE",
"210 0 LINE",
"263 0 LINE",
"263 600 LINE",
"478 815 LINE",
"1072 0 LINE",
"1142 0 LINE",
"519 854 LINE"
);
}
);
width = 1142;
},
{
layerId = "963BFE9B-9129-4C18-A3F3-46AD815B745B";
paths = (
{
closed = 1;
nodes = (
"1187 1462 LINE",
"1040 1462 LINE",
"499 895 LINE SMOOTH",
"454 846 OFFCURVE",
"364 750 OFFCURVE",
"323 702 QCURVE",
"323 1462 LINE",
"204 1462 LINE",
"204 0 LINE",
"323 0 LINE",
"323 584 LINE",
"505 758 LINE",
"1060 0 LINE",
"1203 0 LINE",
"593 840 LINE"
);
}
);
width = 1204;
},
{
layerId = "A10A3B8F-5047-4E3E-80F3-6554B53DC79D";
paths = (
{
closed = 1;
nodes = (
"1029 1462 LINE",
"634 1020 LINE SMOOTH",
"571 950 OFFCURVE",
"444 811 OFFCURVE",
"382 741 QCURVE",
"382 1462 LINE",
"198 1462 LINE",
"198 0 LINE",
"382 0 LINE",
"382 567 LINE",
"532 698 LINE",
"1050 0 LINE",
"1267 0 LINE",
"665 825 LINE",
"1245 1462 LINE"
);
}
);
userData = {
assembly = "NPUSHB[ ]	/* 28 values pushed */\0129 4 3 3 0 2 1 76 3 1 2 2 31 77 1 1 0 0 32 0 78 21 17 19 17 4 8 26 \012CALL[ ]	/* CallFunction */";
};
width = 1267;
},
{
layerId = "742C6D49-27A7-4CE6-BB95-CE3E85DCFAA1";
paths = (
{
closed = 1;
nodes = (
"1355 1462 LINE",
"1011 1462 LINE",
"616 965 LINE",
"585 922 OFFCURVE",
"524 836 OFFCURVE",
"493 793 QCURVE",
"493 1462 LINE",
"184 1462 LINE",
"184 0 LINE",
"493 0 LINE",
"493 522 LINE",
"624 616 LINE",
"1007 0 LINE",
"1360 0 LINE",
"846 815 LINE"
);
}
);
width = 1359;
},
{
layerId = "1AE80326-82F5-491E-9ED8-F639C1D819D6";
paths = (
{
closed = 1;
nodes = (
"1414 1462 LINE",
"982 1462 LINE",
"675 1014 LINE SMOOTH",
"644 971 OFFCURVE",
"579 874 OFFCURVE",
"554 827 QCURVE",
"554 1462 LINE",
"157 1462 LINE",
"157 0 LINE",
"554 0 LINE",
"554 489 LINE",
"671 559 LINE",
"960 0 LINE",
"1406 0 LINE",
"954 807 LINE"
);
}
);
width = 1406;
}
);
note = K;
unicode = 004B;
},
{
glyphname = L;
lastChange = "2020-10-12 02:38:09 +0000";
layers = (
{
layerId = "89D8C5C7-992A-4B79-A2F2-D8D3CE0BA992";
paths = (
{
closed = 1;
nodes = (
"994 51 LINE",
"263 51 LINE",
"263 1462 LINE",
"210 1462 LINE",
"210 0 LINE",
"994 0 LINE"
);
}
);
width = 1036;
},
{
layerId = "963BFE9B-9129-4C18-A3F3-46AD815B745B";
paths = (
{
closed = 1;
nodes = (
"1007 106 LINE",
"323 106 LINE",
"323 1462 LINE",
"204 1462 LINE",
"204 0 LINE",
"1007 0 LINE"
);
}
);
width = 1054;
},
{
layerId = "A10A3B8F-5047-4E3E-80F3-6554B53DC79D";
paths = (
{
closed = 1;
nodes = (
"382 1462 LINE",
"198 1462 LINE",
"198 0 LINE",
"1021 0 LINE",
"1021 164 LINE",
"382 164 LINE"
);
}
);
userData = {
assembly = "NPUSHB[ ]	/* 28 values pushed */\0120 1 1 31 77 3 1 2 2 0 96 0 0 0 32 0 78 0 0 0 5 0 5 17 17 4 8 24 \012CALL[ ]	/* CallFunction */";
};
width = 1073;
},
{
layerId = "742C6D49-27A7-4CE6-BB95-CE3E85DCFAA1";
paths = (
{
closed = 1;
nodes = (
"1087 256 LINE",
"493 256 LINE",
"493 1462 LINE",
"184 1462 LINE",
"184 0 LINE",
"1087 0 LINE"
);
}
);
width = 1157;
},
{
layerId = "1AE80326-82F5-491E-9ED8-F639C1D819D6";
paths = (
{
closed = 1;
nodes = (
"1115 319 LINE",
"552 319 LINE",
"552 1462 LINE",
"157 1462 LINE",
"157 0 LINE",
"1115 0 LINE"
);
}
);
width = 1191;
}
);
note = L;
unicode = 004C;
},
{
glyphname = M;
lastChange = "2020-10-12 02:38:09 +0000";
layers = (
{
layerId = "89D8C5C7-992A-4B79-A2F2-D8D3CE0BA992";
paths = (
{
closed = 1;
nodes = (
"1445 1389 LINE",
"1449 1389 LINE",
"1447 1337 OFFCURVE",
"1447 1264 OFFCURVE",
"1447 1233 QCURVE SMOOTH",
"1447 0 LINE",
"1500 0 LINE",
"1500 1462 LINE",
"1418 1462 LINE",
"859 98 LINE",
"853 98 LINE",
"296 1462 LINE",
"210 1462 LINE",
"210 0 LINE",
"263 0 LINE",
"263 1221 LINE SMOOTH",
"263 1266 OFFCURVE",
"263 1339 OFFCURVE",
"261 1391 QCURVE",
"265 1391 LINE",
"835 0 LINE",
"876 0 LINE"
);
}
);
width = 1714;
},
{
layerId = "963BFE9B-9129-4C18-A3F3-46AD815B745B";
paths = (
{
closed = 1;
nodes = (
"1464 1335 LINE",
"1470 1335 LINE",
"1466 1278 OFFCURVE",
"1461 1135 OFFCURVE",
"1461 1065 QCURVE SMOOTH",
"1461 0 LINE",
"1580 0 LINE",
"1580 1462 LINE",
"1404 1462 LINE",
"894 180 LINE",
"888 180 LINE",
"384 1462 LINE",
"204 1462 LINE",
"204 0 LINE",
"315 0 LINE",
"315 1053 LINE SMOOTH",
"315 1135 OFFCURVE",
"310 1280 OFFCURVE",
"306 1335 QCURVE",
"315 1335 LINE",
"839 0 LINE",
"935 0 LINE"
);
}
);
width = 1785;
},
{
layerId = "A10A3B8F-5047-4E3E-80F3-6554B53DC79D";
paths = (
{
closed = 1;
nodes = (
"1490 1280 LINE",
"1486 1214 OFFCURVE",
"1476 1006 OFFCURVE",
"1476 899 QCURVE SMOOTH",
"1476 0 LINE",
"1658 0 LINE",
"1658 1462 LINE",
"1388 1462 LINE",
"929 264 LINE",
"921 264 LINE",
"470 1462 LINE",
"198 1462 LINE",
"198 0 LINE",
"368 0 LINE",
"368 887 LINE SMOOTH",
"368 1004 OFFCURVE",
"360 1219 OFFCURVE",
"354 1282 QCURVE",
"362 1282 LINE",
"843 0 LINE",
"995 0 LINE",
"1482 1280 LINE"
);
}
);
userData = {
assembly = "NPUSHB[ ]	/* 30 values pushed */\01220 11 2 3 0 2 1 76 3 1 2 2 31 77 4 1 2 0 0 32 0 78 17 19 17 22 16 5 8 27 \012CALL[ ]	/* CallFunction */";
};
width = 1857;
},
{
layerId = "742C6D49-27A7-4CE6-BB95-CE3E85DCFAA1";
paths = (
{
closed = 1;
nodes = (
"1464 1145 LINE",
"1472 1145 LINE",
"1470 1104 OFFCURVE",
"1464 942 OFFCURVE",
"1458 762 OFFCURVE",
"1458 692 QCURVE SMOOTH",
"1458 0 LINE",
"1747 0 LINE",
"1747 1462 LINE",
"1325 1462 LINE",
"958 344 LINE",
"952 344 LINE",
"606 1462 LINE",
"184 1462 LINE",
"184 0 LINE",
"460 0 LINE",
"460 680 LINE SMOOTH",
"460 754 OFFCURVE",
"452 942 OFFCURVE",
"444 1106 OFFCURVE",
"442 1147 QCURVE",
"450 1147 LINE",
"802 0 LINE",
"1087 0 LINE"
);
}
);
width = 1931;
},
{
layerId = "1AE80326-82F5-491E-9ED8-F639C1D819D6";
paths = (
{
closed = 1;
nodes = (
"1466 1051 LINE",
"1474 1051 LINE",
"1470 1010 OFFCURVE",
"1464 868 OFFCURVE",
"1460 709 OFFCURVE",
"1460 641 QCURVE SMOOTH",
"1460 0 LINE",
"1822 0 LINE",
"1822 1462 LINE",
"1296 1462 LINE",
"997 424 LINE",
"988 424 LINE",
"683 1462 LINE",
"157 1462 LINE",
"157 0 LINE",
"507 0 LINE",
"507 635 LINE SMOOTH",
"507 709 OFFCURVE",
"499 872 OFFCURVE",
"491 1012 OFFCURVE",
"487 1053 QCURVE",
"495 1053 LINE",
"794 0 LINE",
"1171 0 LINE"
);
}
);
width = 1980;
}
);
note = M;
unicode = 004D;
},
{
glyphname = N;
lastChange = "2020-10-12 02:38:09 +0000";
layers = (
{
layerId = "89D8C5C7-992A-4B79-A2F2-D8D3CE0BA992";
paths = (
{
closed = 1;
nodes = (
"1162 1462 LINE",
"1162 432 LINE SMOOTH",
"1162 360 OFFCURVE",
"1162 201 OFFCURVE",
"1164 125 QCURVE",
"1160 125 LINE",
"251 1462 LINE",
"210 1462 LINE",
"210 0 LINE",
"263 0 LINE",
"263 1028 LINE SMOOTH",
"263 1110 OFFCURVE",
"263 1253 OFFCURVE",
"261 1341 QCURVE",
"265 1341 LINE",
"1177 0 LINE",
"1216 0 LINE",
"1216 1462 LINE"
);
}
);
width = 1429;
},
{
layerId = "963BFE9B-9129-4C18-A3F3-46AD815B745B";
paths = (
{
closed = 1;
nodes = (
"1175 1462 LINE",
"1175 535 LINE SMOOTH",
"1175 451 OFFCURVE",
"1179 252 OFFCURVE",
"1183 188 QCURVE",
"1175 188 LINE",
"331 1462 LINE",
"204 1462 LINE",
"204 0 LINE",
"315 0 LINE",
"315 922 LINE SMOOTH",
"315 1020 OFFCURVE",
"310 1198 OFFCURVE",
"306 1278 QCURVE",
"313 1278 LINE",
"1158 0 LINE",
"1285 0 LINE",
"1285 1462 LINE"
);
}
);
width = 1492;
},
{
layerId = "A10A3B8F-5047-4E3E-80F3-6554B53DC79D";
paths = (
{
closed = 1;
nodes = (
"1185 637 LINE SMOOTH",
"1185 569 OFFCURVE",
"1191 416 OFFCURVE",
"1197 285 OFFCURVE",
"1199 252 QCURVE",
"1191 252 LINE",
"411 1462 LINE",
"198 1462 LINE",
"198 0 LINE",
"368 0 LINE",
"368 817 LINE SMOOTH",
"368 930 OFFCURVE",
"356 1143 OFFCURVE",
"352 1214 QCURVE",
"360 1214 LINE",
"1142 0 LINE",
"1357 0 LINE",
"1357 1462 LINE",
"1185 1462 LINE"
);
}
);
userData = {
assembly = "NPUSHB[ ]	/* 32 values pushed */\0123 1 0 2 1 76 4 3 2 2 2 31 77 1 1 0 0 32 0 78 0 0 0 18 0 18 17 22 17 5 8 25 \012CALL[ ]	/* CallFunction */";
};
width = 1556;
},
{
layerId = "742C6D49-27A7-4CE6-BB95-CE3E85DCFAA1";
paths = (
{
closed = 1;
nodes = (
"1202 1462 LINE",
"1202 770 LINE SMOOTH",
"1204 668 OFFCURVE",
"1212 467 OFFCURVE",
"1216 367 QCURVE",
"1210 367 LINE",
"575 1462 LINE",
"184 1462 LINE",
"184 0 LINE",
"460 0 LINE",
"460 688 LINE",
"456 793 OFFCURVE",
"446 1001 OFFCURVE",
"442 1106 QCURVE",
"450 1106 LINE",
"1087 0 LINE",
"1480 0 LINE",
"1480 1462 LINE"
);
}
);
width = 1665;
},
{
layerId = "1AE80326-82F5-491E-9ED8-F639C1D819D6";
paths = (
{
closed = 1;
nodes = (
"1197 1462 LINE",
"1197 801 LINE SMOOTH",
"1197 750 OFFCURVE",
"1201 627 OFFCURVE",
"1208 516 OFFCURVE",
"1212 446 OFFCURVE",
"1212 446 QCURVE",
"1206 446 LINE",
"673 1462 LINE",
"157 1462 LINE",
"157 0 LINE",
"507 0 LINE",
"507 659 LINE SMOOTH",
"507 715 OFFCURVE",
"501 844 OFFCURVE",
"495 958 OFFCURVE",
"489 1030 OFFCURVE",
"489 1030 QCURVE",
"497 1030 LINE",
"1031 0 LINE",
"1550 0 LINE",
"1550 1462 LINE"
);
}
);
width = 1708;
}
);
note = N;
unicode = 004E;
},
{
glyphname = O;
lastChange = "2020-10-12 02:38:09 +0000";
layers = (
{
layerId = "89D8C5C7-992A-4B79-A2F2-D8D3CE0BA992";
paths = (
{
closed = 1;
nodes = (
"1085 1485 OFFCURVE",
"782 1485 QCURVE SMOOTH",
"573 1485 OFFCURVE",
"281 1294 OFFCURVE",
"129 954 OFFCURVE",
"129 735 QCURVE SMOOTH",
"129 514 OFFCURVE",
"272 172 OFFCURVE",
"557 -20 OFFCURVE",
"770 -20 QCURVE SMOOTH",
"987 -20 OFFCURVE",
"1272 172 OFFCURVE",
"1413 512 OFFCURVE",
"1413 733 QCURVE SMOOTH",
"1413 1090 OFFCURVE"
);
},
{
closed = 1;
nodes = (
"315 1253 OFFCURVE",
"582 1434 OFFCURVE",
"782 1434 QCURVE SMOOTH",
"1059 1434 OFFCURVE",
"1358 1067 OFFCURVE",
"1358 733 QCURVE SMOOTH",
"1358 526 OFFCURVE",
"1233 209 OFFCURVE",
"973 31 OFFCURVE",
"772 31 QCURVE SMOOTH",
"573 31 OFFCURVE",
"311 213 OFFCURVE",
"184 530 OFFCURVE",
"184 735 QCURVE SMOOTH",
"184 938 OFFCURVE"
);
}
);
width = 1544;
},
{
layerId = "963BFE9B-9129-4C18-A3F3-46AD815B745B";
paths = (
{
closed = 1;
nodes = (
"1291 1303 OFFCURVE",
"1003 1485 OFFCURVE",
"792 1485 QCURVE SMOOTH",
"572 1485 OFFCURVE",
"276 1294 OFFCURVE",
"126 958 OFFCURVE",
"126 735 QCURVE SMOOTH",
"126 512 OFFCURVE",
"271 170 OFFCURVE",
"564 -20 OFFCURVE",
"785 -20 QCURVE SMOOTH",
"1003 -20 OFFCURVE",
"1295 170 OFFCURVE",
"1443 510 OFFCURVE",
"1443 733 QCURVE SMOOTH",
"1443 967 OFFCURVE"
);
},
{
closed = 1;
nodes = (
"368 1217 OFFCURVE",
"609 1378 OFFCURVE",
"792 1378 QCURVE SMOOTH",
"1054 1378 OFFCURVE",
"1318 1036 OFFCURVE",
"1318 733 QCURVE SMOOTH",
"1318 537 OFFCURVE",
"1205 246 OFFCURVE",
"970 84 OFFCURVE",
"785 84 QCURVE SMOOTH",
"603 84 OFFCURVE",
"366 246 OFFCURVE",
"251 539 OFFCURVE",
"251 733 QCURVE SMOOTH",
"251 926 OFFCURVE"
);
}
);
width = 1572;
},
{
layerId = "A10A3B8F-5047-4E3E-80F3-6554B53DC79D";
paths = (
{
closed = 1;
nodes = (
"1320 1298 OFFCURVE",
"1021 1485 OFFCURVE",
"802 1485 QCURVE SMOOTH",
"573 1485 OFFCURVE",
"271 1296 OFFCURVE",
"124 958 OFFCURVE",
"124 735 QCURVE SMOOTH",
"124 508 OFFCURVE",
"271 168 OFFCURVE",
"573 -20 OFFCURVE",
"800 -20 QCURVE SMOOTH",
"1019 -20 OFFCURVE",
"1320 168 OFFCURVE",
"1474 506 OFFCURVE",
"1474 733 QCURVE SMOOTH",
"1474 961 OFFCURVE"
);
},
{
closed = 1;
nodes = (
"552 1323 OFFCURVE",
"802 1323 QCURVE SMOOTH",
"1050 1323 OFFCURVE",
"1279 1010 OFFCURVE",
"1279 733 QCURVE SMOOTH",
"1279 457 OFFCURVE",
"1048 139 OFFCURVE",
"800 139 QCURVE SMOOTH",
"552 139 OFFCURVE",
"319 457 OFFCURVE",
"319 733 QCURVE SMOOTH",
"319 1010 OFFCURVE"
);
}
);
userData = {
assembly = "NPUSHB[ ]	/* 28 values pushed */\0120 3 3 1 97 0 1 1 37 77 0 2 2 0 97 0 0 0 38 0 78 36 37 38 35 4 8 26 \012CALL[ ]	/* CallFunction */";
};
width = 1599;
},
{
layerId = "742C6D49-27A7-4CE6-BB95-CE3E85DCFAA1";
paths = (
{
closed = 1;
nodes = (
"1361 1298 OFFCURVE",
"1054 1485 OFFCURVE",
"816 1485 QCURVE SMOOTH",
"577 1485 OFFCURVE",
"268 1298 OFFCURVE",
"118 963 OFFCURVE",
"118 735 QCURVE SMOOTH",
"118 508 OFFCURVE",
"268 168 OFFCURVE",
"577 -20 OFFCURVE",
"814 -20 QCURVE SMOOTH",
"1052 -20 OFFCURVE",
"1361 168 OFFCURVE",
"1511 506 OFFCURVE",
"1511 733 QCURVE SMOOTH",
"1511 961 OFFCURVE"
);
},
{
closed = 1;
nodes = (
"620 1227 OFFCURVE",
"816 1227 QCURVE SMOOTH",
"1013 1227 OFFCURVE",
"1185 963 OFFCURVE",
"1185 733 QCURVE SMOOTH",
"1185 504 OFFCURVE",
"1013 240 OFFCURVE",
"814 240 QCURVE SMOOTH",
"620 240 OFFCURVE",
"444 504 OFFCURVE",
"444 733 QCURVE SMOOTH",
"444 963 OFFCURVE"
);
}
);
width = 1630;
},
{
layerId = "1AE80326-82F5-491E-9ED8-F639C1D819D6";
paths = (
{
closed = 1;
nodes = (
"1380 1298 OFFCURVE",
"1067 1485 OFFCURVE",
"817 1485 QCURVE SMOOTH",
"569 1485 OFFCURVE",
"256 1298 OFFCURVE",
"104 963 OFFCURVE",
"104 735 QCURVE SMOOTH",
"104 508 OFFCURVE",
"254 168 OFFCURVE",
"569 -20 OFFCURVE",
"815 -20 QCURVE SMOOTH",
"1065 -20 OFFCURVE",
"1380 168 OFFCURVE",
"1525 506 OFFCURVE",
"1525 733 QCURVE SMOOTH",
"1525 961 OFFCURVE"
);
},
{
closed = 1;
nodes = (
"655 1161 OFFCURVE",
"817 1161 QCURVE SMOOTH",
"978 1161 OFFCURVE",
"1110 932 OFFCURVE",
"1110 733 QCURVE SMOOTH",
"1110 535 OFFCURVE",
"978 309 OFFCURVE",
"815 309 QCURVE SMOOTH",
"657 309 OFFCURVE",
"520 535 OFFCURVE",
"520 733 QCURVE SMOOTH",
"520 932 OFFCURVE"
);
}
);
width = 1632;
}
);
note = O;
unicode = 004F;
},
{
glyphname = P;
lastChange = "2020-10-12 02:38:09 +0000";
layers = (
{
layerId = "89D8C5C7-992A-4B79-A2F2-D8D3CE0BA992";
paths = (
{
closed = 1;
nodes = (
"210 0 LINE",
"263 0 LINE",
"263 625 LINE",
"523 625 LINE SMOOTH",
"685 625 OFFCURVE",
"925 711 OFFCURVE",
"1056 905 OFFCURVE",
"1056 1063 QCURVE SMOOTH",
"1056 1276 OFFCURVE",
"796 1462 OFFCURVE",
"552 1462 QCURVE SMOOTH",
"210 1462 LINE"
);
},
{
closed = 1;
nodes = (
"1001 1247 OFFCURVE",
"1001 1061 QCURVE SMOOTH",
"1001 911 OFFCURVE",
"880 743 OFFCURVE",
"663 676 OFFCURVE",
"519 676 QCURVE SMOOTH",
"263 676 LINE",
"263 1411 LINE",
"544 1411 LINE SMOOTH",
"777 1411 OFFCURVE"
);
}
);
width = 1173;
},
{
layerId = "963BFE9B-9129-4C18-A3F3-46AD815B745B";
paths = (
{
closed = 1;
nodes = (
"204 0 LINE",
"323 0 LINE",
"323 598 LINE",
"536 598 LINE SMOOTH",
"822 598 OFFCURVE",
"1095 838 OFFCURVE",
"1095 1049 QCURVE SMOOTH",
"1095 1462 OFFCURVE",
"569 1462 QCURVE SMOOTH",
"204 1462 LINE"
);
},
{
closed = 1;
nodes = (
"972 1206 OFFCURVE",
"972 1042 QCURVE SMOOTH",
"972 850 OFFCURVE",
"736 700 OFFCURVE",
"523 700 QCURVE SMOOTH",
"323 700 LINE",
"323 1358 LINE",
"556 1358 LINE SMOOTH",
"769 1358 OFFCURVE"
);
}
);
width = 1206;
},
{
layerId = "A10A3B8F-5047-4E3E-80F3-6554B53DC79D";
paths = (
{
closed = 1;
nodes = (
"382 0 LINE",
"382 569 LINE",
"550 569 LINE SMOOTH",
"769 569 OFFCURVE",
"1025 700 OFFCURVE",
"1134 911 OFFCURVE",
"1134 1032 QCURVE SMOOTH",
"1134 1237 OFFCURVE",
"872 1462 OFFCURVE",
"585 1462 QCURVE SMOOTH",
"198 1462 LINE",
"198 0 LINE"
);
},
{
closed = 1;
nodes = (
"943 1165 OFFCURVE",
"943 1024 QCURVE SMOOTH",
"943 862 OFFCURVE",
"739 727 OFFCURVE",
"530 727 QCURVE SMOOTH",
"382 727 LINE",
"382 1305 LINE",
"569 1305 LINE SMOOTH",
"761 1305 OFFCURVE"
);
}
);
userData = {
assembly = "NPUSHB[ ]	/* 39 values pushed */\0120 4 0 1 2 4 1 103 5 1 3 3 0 95 0 0 0 31 77 0 2 2 32 2 78 13 12 16 14 12 20 13 20 17 37 32 6 8 25 \012CALL[ ]	/* CallFunction */";
};
width = 1239;
},
{
layerId = "742C6D49-27A7-4CE6-BB95-CE3E85DCFAA1";
paths = (
{
closed = 1;
nodes = (
"184 0 LINE",
"493 0 LINE",
"493 520 LINE",
"626 520 LINE SMOOTH",
"839 520 OFFCURVE",
"1087 655 OFFCURVE",
"1194 877 OFFCURVE",
"1194 1006 QCURVE SMOOTH",
"1194 1219 OFFCURVE",
"934 1462 OFFCURVE",
"651 1462 QCURVE SMOOTH",
"184 1462 LINE"
);
},
{
closed = 1;
nodes = (
"880 995 QCURVE SMOOTH",
"880 879 OFFCURVE",
"727 774 OFFCURVE",
"596 774 QCURVE SMOOTH",
"493 774 LINE",
"493 1208 LINE",
"635 1208 LINE SMOOTH",
"880 1208 OFFCURVE"
);
}
);
width = 1286;
},
{
layerId = "1AE80326-82F5-491E-9ED8-F639C1D819D6";
paths = (
{
closed = 1;
nodes = (
"157 0 LINE",
"552 0 LINE",
"552 485 LINE",
"663 485 LINE SMOOTH",
"819 485 OFFCURVE",
"1031 569 OFFCURVE",
"1161 715 OFFCURVE",
"1218 897 OFFCURVE",
"1218 997 QCURVE SMOOTH",
"1218 1221 OFFCURVE",
"941 1462 OFFCURVE",
"663 1462 QCURVE SMOOTH",
"157 1462 LINE"
);
},
{
closed = 1;
nodes = (
"823 1057 OFFCURVE",
"823 987 QCURVE SMOOTH",
"823 887 OFFCURVE",
"708 807 OFFCURVE",
"630 807 QCURVE SMOOTH",
"552 807 LINE",
"552 1143 LINE",
"655 1143 LINE SMOOTH",
"741 1143 OFFCURVE"
);
}
);
width = 1294;
}
);
note = P;
unicode = 0050;
},
{
glyphname = Q;
lastChange = "2020-10-12 02:38:09 +0000";
layers = (
{
layerId = "89D8C5C7-992A-4B79-A2F2-D8D3CE0BA992";
paths = (
{
closed = 1;
nodes = (
"1085 1485 OFFCURVE",
"782 1485 QCURVE SMOOTH",
"573 1485 OFFCURVE",
"281 1294 OFFCURVE",
"129 954 OFFCURVE",
"129 735 QCURVE SMOOTH",
"129 514 OFFCURVE",
"272 172 OFFCURVE",
"557 -20 OFFCURVE",
"770 -20 QCURVE SMOOTH",
"791 -20 OFFCURVE",
"827 -18 OFFCURVE",
"846 -16 QCURVE",
"1124 -348 LINE",
"1198 -348 LINE",
"907 -8 LINE",
"1077 20 OFFCURVE",
"1300 223 OFFCURVE",
"1413 539 OFFCURVE",
"1413 733 QCURVE SMOOTH",
"1413 1090 OFFCURVE"
);
},
{
closed = 1;
nodes = (
"315 1253 OFFCURVE",
"582 1434 OFFCURVE",
"782 1434 QCURVE SMOOTH",
"1059 1434 OFFCURVE",
"1358 1067 OFFCURVE",
"1358 733 QCURVE SMOOTH",
"1358 526 OFFCURVE",
"1233 209 OFFCURVE",
"973 31 OFFCURVE",
"772 31 QCURVE SMOOTH",
"573 31 OFFCURVE",
"311 213 OFFCURVE",
"184 530 OFFCURVE",
"184 735 QCURVE SMOOTH",
"184 938 OFFCURVE"
);
}
);
width = 1544;
},
{
layerId = "963BFE9B-9129-4C18-A3F3-46AD815B745B";
paths = (
{
closed = 1;
nodes = (
"1291 1303 OFFCURVE",
"1003 1485 OFFCURVE",
"792 1485 QCURVE SMOOTH",
"572 1485 OFFCURVE",
"276 1294 OFFCURVE",
"126 958 OFFCURVE",
"126 735 QCURVE SMOOTH",
"126 512 OFFCURVE",
"271 170 OFFCURVE",
"564 -20 OFFCURVE",
"785 -20 QCURVE SMOOTH",
"802 -20 OFFCURVE",
"831 -18 OFFCURVE",
"847 -16 QCURVE",
"1130 -348 LINE",
"1297 -348 LINE",
"978 4 LINE",
"1132 41 OFFCURVE",
"1338 244 OFFCURVE",
"1443 547 OFFCURVE",
"1443 733 QCURVE SMOOTH",
"1443 967 OFFCURVE"
);
},
{
closed = 1;
nodes = (
"368 1217 OFFCURVE",
"609 1378 OFFCURVE",
"792 1378 QCURVE SMOOTH",
"1054 1378 OFFCURVE",
"1318 1036 OFFCURVE",
"1318 733 QCURVE SMOOTH",
"1318 537 OFFCURVE",
"1205 246 OFFCURVE",
"970 84 OFFCURVE",
"785 84 QCURVE SMOOTH",
"603 84 OFFCURVE",
"366 246 OFFCURVE",
"251 539 OFFCURVE",
"251 733 QCURVE SMOOTH",
"251 926 OFFCURVE"
);
}
);
width = 1572;
},
{
layerId = "A10A3B8F-5047-4E3E-80F3-6554B53DC79D";
paths = (
{
closed = 1;
nodes = (
"1320 1298 OFFCURVE",
"1021 1485 OFFCURVE",
"802 1485 QCURVE SMOOTH",
"573 1485 OFFCURVE",
"271 1296 OFFCURVE",
"124 958 OFFCURVE",
"124 735 QCURVE SMOOTH",
"124 508 OFFCURVE",
"271 168 OFFCURVE",
"573 -20 OFFCURVE",
"800 -20 QCURVE SMOOTH",
"812 -20 OFFCURVE",
"839 -18 OFFCURVE",
"851 -18 QCURVE",
"1134 -348 LINE",
"1398 -348 LINE",
"1048 16 LINE",
"1259 86 OFFCURVE",
"1474 465 OFFCURVE",
"1474 733 QCURVE SMOOTH",
"1474 961 OFFCURVE"
);
},
{
closed = 1;
nodes = (
"552 1323 OFFCURVE",
"802 1323 QCURVE SMOOTH",
"1050 1323 OFFCURVE",
"1279 1010 OFFCURVE",
"1279 733 QCURVE SMOOTH",
"1279 457 OFFCURVE",
"1048 139 OFFCURVE",
"800 139 QCURVE SMOOTH",
"552 139 OFFCURVE",
"319 457 OFFCURVE",
"319 733 QCURVE SMOOTH",
"319 1010 OFFCURVE"
);
}
);
userData = {
assembly = "NPUSHB[ ]	/* 40 values pushed */\0123 1 1 3 1 76 0 0 1 0 134 0 4 4 2 97 0 2 2 37 77 0 3 3 1 97 0 1 1 38 1 78 36 37 38 65 20 5 8 27 \012CALL[ ]	/* CallFunction */";
};
width = 1599;
},
{
layerId = "742C6D49-27A7-4CE6-BB95-CE3E85DCFAA1";
paths = (
{
closed = 1;
nodes = (
"1361 1298 OFFCURVE",
"1054 1485 OFFCURVE",
"816 1485 QCURVE SMOOTH",
"577 1485 OFFCURVE",
"268 1298 OFFCURVE",
"118 963 OFFCURVE",
"118 735 QCURVE SMOOTH",
"118 508 OFFCURVE",
"268 168 OFFCURVE",
"577 -20 OFFCURVE",
"814 -20 QCURVE SMOOTH",
"837 -20 LINE",
"1105 -348 LINE",
"1502 -348 LINE",
"1150 45 LINE",
"1335 127 OFFCURVE",
"1511 487 OFFCURVE",
"1511 733 QCURVE SMOOTH",
"1511 961 OFFCURVE"
);
},
{
closed = 1;
nodes = (
"620 1227 OFFCURVE",
"816 1227 QCURVE SMOOTH",
"1013 1227 OFFCURVE",
"1185 963 OFFCURVE",
"1185 733 QCURVE SMOOTH",
"1185 504 OFFCURVE",
"1013 240 OFFCURVE",
"814 240 QCURVE SMOOTH",
"620 240 OFFCURVE",
"444 504 OFFCURVE",
"444 733 QCURVE SMOOTH",
"444 963 OFFCURVE"
);
}
);
width = 1630;
},
{
layerId = "1AE80326-82F5-491E-9ED8-F639C1D819D6";
paths = (
{
closed = 1;
nodes = (
"1380 1298 OFFCURVE",
"1067 1485 OFFCURVE",
"817 1485 QCURVE SMOOTH",
"569 1485 OFFCURVE",
"256 1298 OFFCURVE",
"104 963 OFFCURVE",
"104 735 QCURVE SMOOTH",
"104 508 OFFCURVE",
"254 168 OFFCURVE",
"569 -20 OFFCURVE",
"815 -20 QCURVE SMOOTH",
"829 -20 LINE",
"1075 -348 LINE",
"1566 -348 LINE",
"1210 63 LINE",
"1378 156 OFFCURVE",
"1525 504 OFFCURVE",
"1525 733 QCURVE SMOOTH",
"1525 961 OFFCURVE"
);
},
{
closed = 1;
nodes = (
"655 1161 OFFCURVE",
"817 1161 QCURVE SMOOTH",
"978 1161 OFFCURVE",
"1110 932 OFFCURVE",
"1110 733 QCURVE SMOOTH",
"1110 535 OFFCURVE",
"978 309 OFFCURVE",
"815 309 QCURVE SMOOTH",
"657 309 OFFCURVE",
"520 535 OFFCURVE",
"520 733 QCURVE SMOOTH",
"520 932 OFFCURVE"
);
}
);
width = 1632;
}
);
note = Q;
unicode = 0051;
},
{
glyphname = R;
lastChange = "2020-10-12 02:38:09 +0000";
layers = (
{
layerId = "89D8C5C7-992A-4B79-A2F2-D8D3CE0BA992";
paths = (
{
closed = 1;
nodes = (
"210 0 LINE",
"263 0 LINE",
"263 655 LINE",
"669 655 LINE",
"1060 0 LINE",
"1128 0 LINE",
"726 670 LINE",
"882 711 OFFCURVE",
"1056 913 OFFCURVE",
"1056 1075 QCURVE SMOOTH",
"1056 1227 OFFCURVE",
"937 1395 OFFCURVE",
"704 1462 OFFCURVE",
"536 1462 QCURVE SMOOTH",
"210 1462 LINE"
);
},
{
closed = 1;
nodes = (
"896 1352 OFFCURVE",
"1001 1204 OFFCURVE",
"1001 1073 QCURVE SMOOTH",
"1001 897 OFFCURVE",
"775 707 OFFCURVE",
"597 707 QCURVE SMOOTH",
"263 707 LINE",
"263 1411 LINE",
"525 1411 LINE SMOOTH",
"685 1411 OFFCURVE"
);
}
);
width = 1181;
},
{
layerId = "963BFE9B-9129-4C18-A3F3-46AD815B745B";
paths = (
{
closed = 1;
nodes = (
"204 0 LINE",
"323 0 LINE",
"323 631 LINE",
"671 631 LINE",
"1044 0 LINE",
"1185 0 LINE",
"784 664 LINE",
"917 705 OFFCURVE",
"1095 893 OFFCURVE",
"1095 1061 QCURVE SMOOTH",
"1095 1278 OFFCURVE",
"831 1462 OFFCURVE",
"569 1462 QCURVE SMOOTH",
"204 1462 LINE"
);
},
{
closed = 1;
nodes = (
"972 1225 OFFCURVE",
"972 1057 QCURVE SMOOTH",
"972 901 OFFCURVE",
"777 733 OFFCURVE",
"599 733 QCURVE SMOOTH",
"323 733 LINE",
"323 1356 LINE",
"558 1356 LINE SMOOTH",
"769 1356 OFFCURVE"
);
}
);
width = 1228;
},
{
layerId = "A10A3B8F-5047-4E3E-80F3-6554B53DC79D";
paths = (
{
closed = 1;
nodes = (
"382 0 LINE",
"382 604 LINE",
"673 604 LINE",
"1027 0 LINE",
"1242 0 LINE",
"841 655 LINE",
"915 680 OFFCURVE",
"1048 774 OFFCURVE",
"1134 930 OFFCURVE",
"1134 1047 QCURVE SMOOTH",
"1134 1255 OFFCURVE",
"874 1462 OFFCURVE",
"601 1462 QCURVE SMOOTH",
"198 1462 LINE",
"198 0 LINE"
);
},
{
closed = 1;
nodes = (
"943 1182 OFFCURVE",
"943 1038 QCURVE SMOOTH",
"943 901 OFFCURVE",
"780 760 OFFCURVE",
"601 760 QCURVE SMOOTH",
"382 760 LINE",
"382 1303 LINE",
"591 1303 LINE SMOOTH",
"771 1303 OFFCURVE"
);
}
);
userData = {
assembly = "NPUSHB[ ]	/* 47 values pushed */\0128 1 2 5 1 76 0 5 0 2 1 5 2 103 6 1 4 4 0 95 0 0 0 31 77 3 1 1 1 32 1 78 16 15 19 17 15 23 16 23 17 17 23 32 7 8 26 \012CALL[ ]	/* CallFunction */";
};
width = 1273;
},
{
layerId = "742C6D49-27A7-4CE6-BB95-CE3E85DCFAA1";
paths = (
{
closed = 1;
nodes = (
"184 0 LINE",
"493 0 LINE",
"493 561 LINE",
"659 561 LINE",
"1007 0 LINE",
"1351 0 LINE",
"921 637 LINE",
"993 670 OFFCURVE",
"1118 774 OFFCURVE",
"1194 924 OFFCURVE",
"1194 1024 QCURVE SMOOTH",
"1194 1245 OFFCURVE",
"909 1462 OFFCURVE",
"610 1462 QCURVE SMOOTH",
"184 1462 LINE"
);
},
{
closed = 1;
nodes = (
"880 1120 OFFCURVE",
"880 1016 QCURVE SMOOTH",
"880 915 OFFCURVE",
"747 813 OFFCURVE",
"594 813 QCURVE SMOOTH",
"493 813 LINE",
"493 1208 LINE",
"587 1208 LINE SMOOTH",
"737 1208 OFFCURVE"
);
}
);
width = 1351;
},
{
layerId = "1AE80326-82F5-491E-9ED8-F639C1D819D6";
paths = (
{
closed = 1;
nodes = (
"157 0 LINE",
"552 0 LINE",
"552 532 LINE",
"653 532 LINE",
"962 0 LINE",
"1410 0 LINE",
"984 637 LINE",
"1099 700 OFFCURVE",
"1232 897 OFFCURVE",
"1232 1030 QCURVE SMOOTH",
"1232 1462 OFFCURVE",
"636 1462 QCURVE SMOOTH",
"157 1462 LINE"
);
},
{
closed = 1;
nodes = (
"833 1081 OFFCURVE",
"833 1012 QCURVE SMOOTH",
"833 909 OFFCURVE",
"716 829 OFFCURVE",
"626 829 QCURVE SMOOTH",
"552 829 LINE",
"552 1163 LINE",
"630 1163 LINE SMOOTH",
"737 1163 OFFCURVE"
);
}
);
width = 1386;
}
);
note = R;
unicode = 0052;
},
{
glyphname = S;
lastChange = "2020-10-12 02:38:09 +0000";
layers = (
{
layerId = "89D8C5C7-992A-4B79-A2F2-D8D3CE0BA992";
paths = (
{
closed = 1;
nodes = (
"892 635 OFFCURVE",
"696 727 OFFCURVE",
"567 768 QCURVE SMOOTH",
"462 801 OFFCURVE",
"288 877 OFFCURVE",
"186 1008 OFFCURVE",
"186 1118 QCURVE SMOOTH",
"186 1229 OFFCURVE",
"298 1366 OFFCURVE",
"483 1432 OFFCURVE",
"591 1432 QCURVE SMOOTH",
"673 1432 OFFCURVE",
"847 1401 OFFCURVE",
"941 1360 QCURVE",
"964 1407 LINE",
"874 1446 OFFCURVE",
"692 1483 OFFCURVE",
"595 1483 QCURVE SMOOTH",
"466 1483 OFFCURVE",
"255 1401 OFFCURVE",
"130 1237 OFFCURVE",
"130 1114 QCURVE SMOOTH",
"130 991 OFFCURVE",
"235 848 OFFCURVE",
"419 758 OFFCURVE",
"538 721 QCURVE SMOOTH",
"663 680 OFFCURVE",
"847 598 OFFCURVE",
"945 471 OFFCURVE",
"945 371 QCURVE SMOOTH",
"945 252 OFFCURVE",
"827 102 OFFCURVE",
"630 31 OFFCURVE",
"515 31 QCURVE SMOOTH",
"390 31 OFFCURVE",
"196 70 OFFCURVE",
"114 98 QCURVE",
"114 39 LINE",
"188 16 OFFCURVE",
"370 -20 OFFCURVE",
"511 -20 QCURVE SMOOTH",
"644 -20 OFFCURVE",
"868 63 OFFCURVE",
"1001 238 OFFCURVE",
"1001 369 QCURVE SMOOTH",
"1001 489 OFFCURVE"
);
}
);
width = 1112;
},
{
layerId = "963BFE9B-9129-4C18-A3F3-46AD815B745B";
paths = (
{
closed = 1;
nodes = (
"913 645 OFFCURVE",
"726 745 OFFCURVE",
"597 791 QCURVE SMOOTH",
"485 829 OFFCURVE",
"329 907 OFFCURVE",
"247 1020 OFFCURVE",
"247 1114 QCURVE SMOOTH",
"247 1243 OFFCURVE",
"438 1376 OFFCURVE",
"589 1376 QCURVE SMOOTH",
"765 1376 OFFCURVE",
"937 1303 QCURVE",
"978 1405 LINE",
"892 1442 OFFCURVE",
"700 1483 OFFCURVE",
"593 1483 QCURVE SMOOTH",
"458 1483 OFFCURVE",
"247 1397 OFFCURVE",
"126 1233 OFFCURVE",
"126 1112 QCURVE SMOOTH",
"126 995 OFFCURVE",
"221 842 OFFCURVE",
"397 741 OFFCURVE",
"520 698 QCURVE SMOOTH",
"649 655 OFFCURVE",
"815 571 OFFCURVE",
"894 459 OFFCURVE",
"894 373 QCURVE SMOOTH",
"894 229 OFFCURVE",
"683 84 OFFCURVE",
"516 84 QCURVE SMOOTH",
"395 84 OFFCURVE",
"188 131 OFFCURVE",
"110 162 QCURVE",
"110 45 LINE",
"180 16 OFFCURVE",
"376 -20 OFFCURVE",
"507 -20 QCURVE SMOOTH",
"655 -20 OFFCURVE",
"884 72 OFFCURVE",
"1015 250 OFFCURVE",
"1015 381 QCURVE SMOOTH",
"1015 498 OFFCURVE"
);
}
);
width = 1118;
},
{
layerId = "A10A3B8F-5047-4E3E-80F3-6554B53DC79D";
paths = (
{
closed = 1;
nodes = (
"935 657 OFFCURVE",
"757 766 OFFCURVE",
"628 813 QCURVE SMOOTH",
"510 856 OFFCURVE",
"370 936 OFFCURVE",
"309 1034 OFFCURVE",
"309 1108 QCURVE SMOOTH",
"309 1204 OFFCURVE",
"448 1321 OFFCURVE",
"585 1321 QCURVE SMOOTH",
"679 1321 OFFCURVE",
"860 1276 OFFCURVE",
"935 1243 QCURVE",
"993 1401 LINE",
"909 1438 OFFCURVE",
"708 1483 OFFCURVE",
"589 1483 QCURVE SMOOTH",
"450 1483 OFFCURVE",
"241 1393 OFFCURVE",
"122 1225 OFFCURVE",
"122 1110 QCURVE SMOOTH",
"122 940 OFFCURVE",
"311 743 OFFCURVE",
"499 676 QCURVE SMOOTH",
"630 627 OFFCURVE",
"782 545 OFFCURVE",
"843 446 OFFCURVE",
"843 375 QCURVE SMOOTH",
"843 266 OFFCURVE",
"675 139 OFFCURVE",
"514 139 QCURVE SMOOTH",
"397 139 OFFCURVE",
"178 193 OFFCURVE",
"104 225 QCURVE",
"104 49 LINE",
"174 16 OFFCURVE",
"383 -20 OFFCURVE",
"505 -20 QCURVE SMOOTH",
"745 -20 OFFCURVE",
"1028 197 OFFCURVE",
"1028 391 QCURVE SMOOTH",
"1028 506 OFFCURVE"
);
}
);
userData = {
assembly = "NPUSHB[ ]	/* 43 values pushed */\01227 1 3 2 28 7 2 1 3 6 1 0 1 3 76 0 3 3 2 97 0 2 2 37 77 0 1 1 0 97 0 0 0 38 0 78 37 44 37 34 4 8 26 \012CALL[ ]	/* CallFunction */";
};
width = 1124;
},
{
layerId = "742C6D49-27A7-4CE6-BB95-CE3E85DCFAA1";
paths = (
{
closed = 1;
nodes = (
"960 676 OFFCURVE",
"803 791 OFFCURVE",
"690 844 QCURVE SMOOTH",
"553 909 OFFCURVE",
"413 999 OFFCURVE",
"413 1077 QCURVE SMOOTH",
"413 1143 OFFCURVE",
"508 1225 OFFCURVE",
"596 1225 QCURVE SMOOTH",
"680 1225 OFFCURVE",
"839 1180 OFFCURVE",
"940 1139 QCURVE",
"1040 1380 LINE",
"925 1430 OFFCURVE",
"721 1483 OFFCURVE",
"606 1483 QCURVE SMOOTH",
"377 1483 OFFCURVE",
"110 1264 OFFCURVE",
"110 1067 QCURVE SMOOTH",
"110 967 OFFCURVE",
"180 823 OFFCURVE",
"289 723 OFFCURVE",
"407 655 OFFCURVE",
"459 631 QCURVE SMOOTH",
"540 592 OFFCURVE",
"667 524 OFFCURVE",
"743 446 OFFCURVE",
"743 391 QCURVE SMOOTH",
"743 324 OFFCURVE",
"647 236 OFFCURVE",
"532 236 QCURVE SMOOTH",
"422 236 OFFCURVE",
"198 311 OFFCURVE",
"94 356 QCURVE",
"94 68 LINE",
"276 -20 OFFCURVE",
"508 -20 QCURVE SMOOTH",
"766 -20 OFFCURVE",
"1046 211 OFFCURVE",
"1046 406 QCURVE SMOOTH",
"1046 520 OFFCURVE"
);
}
);
width = 1128;
},
{
layerId = "1AE80326-82F5-491E-9ED8-F639C1D819D6";
paths = (
{
closed = 1;
nodes = (
"1034 713 OFFCURVE",
"885 823 OFFCURVE",
"778 872 QCURVE SMOOTH",
"670 922 OFFCURVE",
"545 985 OFFCURVE",
"491 1038 OFFCURVE",
"491 1073 QCURVE SMOOTH",
"491 1114 OFFCURVE",
"561 1167 OFFCURVE",
"639 1167 QCURVE SMOOTH",
"717 1167 OFFCURVE",
"899 1116 OFFCURVE",
"993 1073 QCURVE",
"1114 1378 LINE",
"1024 1417 OFFCURVE",
"795 1483 OFFCURVE",
"651 1483 QCURVE SMOOTH",
"487 1483 OFFCURVE",
"240 1386 OFFCURVE",
"100 1196 OFFCURVE",
"100 1055 QCURVE SMOOTH",
"100 930 OFFCURVE",
"186 766 OFFCURVE",
"346 651 OFFCURVE",
"455 602 QCURVE SMOOTH",
"598 537 OFFCURVE",
"719 467 OFFCURVE",
"719 410 QCURVE SMOOTH",
"719 362 OFFCURVE",
"637 301 OFFCURVE",
"549 301 QCURVE SMOOTH",
"450 301 OFFCURVE",
"209 365 OFFCURVE",
"90 424 QCURVE",
"90 72 LINE",
"160 39 OFFCURVE",
"291 -2 OFFCURVE",
"440 -20 OFFCURVE",
"541 -20 QCURVE SMOOTH",
"741 -20 OFFCURVE",
"993 113 OFFCURVE",
"1114 324 OFFCURVE",
"1114 444 QCURVE SMOOTH",
"1114 557 OFFCURVE"
);
}
);
width = 1181;
}
);
note = S;
unicode = 0053;
},
{
glyphname = T;
lastChange = "2020-10-12 02:38:09 +0000";
layers = (
{
layerId = "89D8C5C7-992A-4B79-A2F2-D8D3CE0BA992";
paths = (
{
closed = 1;
nodes = (
"1030 1411 LINE",
"1030 1462 LINE",
"4 1462 LINE",
"4 1411 LINE",
"489 1411 LINE",
"489 0 LINE",
"543 0 LINE",
"543 1411 LINE"
);
}
);
width = 1034;
},
{
layerId = "963BFE9B-9129-4C18-A3F3-46AD815B745B";
paths = (
{
closed = 1;
nodes = (
"1073 1356 LINE",
"1073 1462 LINE",
"12 1462 LINE",
"12 1356 LINE",
"483 1356 LINE",
"483 0 LINE",
"602 0 LINE",
"602 1356 LINE"
);
}
);
width = 1085;
},
{
layerId = "A10A3B8F-5047-4E3E-80F3-6554B53DC79D";
paths = (
{
closed = 1;
nodes = (
"20 1462 LINE",
"20 1300 LINE",
"477 1300 LINE",
"477 0 LINE",
"661 0 LINE",
"661 1300 LINE",
"1116 1300 LINE",
"1116 1462 LINE"
);
}
);
userData = {
assembly = "NPUSHB[ ]	/* 24 values pushed */\0122 1 0 0 3 95 0 3 3 31 77 0 1 1 32 1 78 17 17 17 16 4 8 26 \012CALL[ ]	/* CallFunction */";
};
width = 1138;
},
{
layerId = "742C6D49-27A7-4CE6-BB95-CE3E85DCFAA1";
paths = (
{
closed = 1;
nodes = (
"1144 1204 LINE",
"1144 1462 LINE",
"40 1462 LINE",
"40 1204 LINE",
"437 1204 LINE",
"437 0 LINE",
"747 0 LINE",
"747 1204 LINE"
);
}
);
width = 1185;
},
{
layerId = "1AE80326-82F5-491E-9ED8-F639C1D819D6";
paths = (
{
closed = 1;
nodes = (
"1159 1139 LINE",
"1159 1462 LINE",
"51 1462 LINE",
"51 1139 LINE",
"407 1139 LINE",
"407 0 LINE",
"803 0 LINE",
"803 1139 LINE"
);
}
);
width = 1210;
}
);
note = T;
unicode = 0054;
},
{
glyphname = U;
lastChange = "2020-10-12 02:38:09 +0000";
layers = (
{
layerId = "89D8C5C7-992A-4B79-A2F2-D8D3CE0BA992";
paths = (
{
closed = 1;
nodes = (
"1212 500 LINE SMOOTH",
"1212 266 OFFCURVE",
"946 31 OFFCURVE",
"729 31 QCURVE SMOOTH",
"499 31 OFFCURVE",
"247 279 OFFCURVE",
"247 524 QCURVE SMOOTH",
"247 1462 LINE",
"194 1462 LINE",
"194 520 LINE SMOOTH",
"194 254 OFFCURVE",
"473 -20 OFFCURVE",
"726 -20 QCURVE SMOOTH",
"884 -20 OFFCURVE",
"1128 96 OFFCURVE",
"1265 334 OFFCURVE",
"1265 516 QCURVE SMOOTH",
"1265 1462 LINE",
"1212 1462 LINE"
);
}
);
width = 1458;
},
{
layerId = "963BFE9B-9129-4C18-A3F3-46AD815B745B";
paths = (
{
closed = 1;
nodes = (
"1171 508 LINE SMOOTH",
"1171 307 OFFCURVE",
"948 84 OFFCURVE",
"741 84 QCURVE SMOOTH",
"528 84 OFFCURVE",
"307 307 OFFCURVE",
"307 520 QCURVE SMOOTH",
"307 1462 LINE",
"188 1462 LINE",
"188 520 LINE SMOOTH",
"188 266 OFFCURVE",
"471 -20 OFFCURVE",
"733 -20 QCURVE SMOOTH",
"997 -20 OFFCURVE",
"1288 266 OFFCURVE",
"1288 516 QCURVE SMOOTH",
"1288 1462 LINE",
"1171 1462 LINE"
);
}
);
width = 1478;
},
{
layerId = "A10A3B8F-5047-4E3E-80F3-6554B53DC79D";
paths = (
{
closed = 1;
nodes = (
"1128 350 OFFCURVE",
"950 139 OFFCURVE",
"751 139 QCURVE SMOOTH",
"559 139 OFFCURVE",
"368 336 OFFCURVE",
"368 514 QCURVE SMOOTH",
"368 1462 LINE",
"184 1462 LINE",
"184 520 LINE SMOOTH",
"184 276 OFFCURVE",
"467 -20 OFFCURVE",
"741 -20 QCURVE SMOOTH",
"934 -20 OFFCURVE",
"1188 121 OFFCURVE",
"1310 365 OFFCURVE",
"1310 516 QCURVE SMOOTH",
"1310 1462 LINE",
"1128 1462 LINE",
"1128 516 LINE SMOOTH"
);
}
);
userData = {
assembly = "NPUSHB[ ]	/* 24 values pushed */\0122 1 0 0 31 77 0 3 3 1 97 0 1 1 38 1 78 35 19 36 16 4 8 26 \012CALL[ ]	/* CallFunction */";
};
width = 1497;
},
{
layerId = "742C6D49-27A7-4CE6-BB95-CE3E85DCFAA1";
paths = (
{
closed = 1;
nodes = (
"1065 569 LINE SMOOTH",
"1065 399 OFFCURVE",
"928 240 OFFCURVE",
"776 240 QCURVE SMOOTH",
"631 240 OFFCURVE",
"483 385 OFFCURVE",
"483 567 QCURVE SMOOTH",
"483 1462 LINE",
"174 1462 LINE",
"174 520 LINE SMOOTH",
"174 276 OFFCURVE",
"477 -20 OFFCURVE",
"768 -20 QCURVE SMOOTH",
"971 -20 OFFCURVE",
"1241 121 OFFCURVE",
"1374 365 OFFCURVE",
"1374 516 QCURVE SMOOTH",
"1374 1462 LINE",
"1065 1462 LINE"
);
}
);
width = 1548;
},
{
layerId = "1AE80326-82F5-491E-9ED8-F639C1D819D6";
paths = (
{
closed = 1;
nodes = (
"1005 606 LINE SMOOTH",
"1005 451 OFFCURVE",
"897 309 OFFCURVE",
"776 309 QCURVE SMOOTH",
"663 309 OFFCURVE",
"546 449 OFFCURVE",
"546 604 QCURVE SMOOTH",
"546 1462 LINE",
"149 1462 LINE",
"149 573 LINE SMOOTH",
"149 289 OFFCURVE",
"466 -20 OFFCURVE",
"770 -20 QCURVE SMOOTH",
"1085 -20 OFFCURVE",
"1400 305 OFFCURVE",
"1400 582 QCURVE SMOOTH",
"1400 1462 LINE",
"1005 1462 LINE"
);
}
);
width = 1550;
}
);
note = U;
unicode = 0055;
},
{
glyphname = V;
lastChange = "2020-10-12 02:38:09 +0000";
layers = (
{
layerId = "89D8C5C7-992A-4B79-A2F2-D8D3CE0BA992";
paths = (
{
closed = 1;
nodes = (
"655 293 LINE SMOOTH",
"629 223 OFFCURVE",
"594 123 OFFCURVE",
"578 76 QCURVE",
"561 123 OFFCURVE",
"520 233 OFFCURVE",
"500 293 QCURVE",
"57 1462 LINE",
"0 1462 LINE",
"551 0 LINE",
"602 0 LINE",
"1153 1462 LINE",
"1096 1462 LINE"
);
}
);
width = 1153;
},
{
layerId = "963BFE9B-9129-4C18-A3F3-46AD815B745B";
paths = (
{
closed = 1;
nodes = (
"680 410 LINE SMOOTH",
"651 330 OFFCURVE",
"610 199 OFFCURVE",
"596 139 QCURVE",
"582 199 OFFCURVE",
"539 334 OFFCURVE",
"512 408 QCURVE SMOOTH",
"125 1462 LINE",
"0 1462 LINE",
"537 0 LINE",
"655 0 LINE",
"1192 1462 LINE",
"1065 1462 LINE"
);
}
);
width = 1191;
},
{
layerId = "A10A3B8F-5047-4E3E-80F3-6554B53DC79D";
paths = (
{
closed = 1;
nodes = (
"674 436 OFFCURVE",
"629 276 OFFCURVE",
"614 205 QCURVE",
"598 276 OFFCURVE",
"555 434 OFFCURVE",
"522 524 QCURVE SMOOTH",
"193 1462 LINE",
"0 1462 LINE",
"522 0 LINE",
"707 0 LINE",
"1229 1462 LINE",
"1034 1462 LINE",
"707 528 LINE SMOOTH"
);
}
);
userData = {
assembly = "NPUSHB[ ]	/* 24 values pushed */\0129 1 1 0 1 76 2 1 0 0 31 77 0 1 1 32 1 78 17 17 16 3 8 25 \012CALL[ ]	/* CallFunction */";
};
width = 1228;
},
{
layerId = "742C6D49-27A7-4CE6-BB95-CE3E85DCFAA1";
paths = (
{
closed = 1;
nodes = (
"741 592 LINE SMOOTH",
"733 569 OFFCURVE",
"702 449 OFFCURVE",
"672 315 OFFCURVE",
"666 270 QCURVE",
"659 315 OFFCURVE",
"627 449 OFFCURVE",
"594 569 OFFCURVE",
"588 592 QCURVE SMOOTH",
"313 1462 LINE",
"0 1462 LINE",
"496 0 LINE",
"834 0 LINE",
"1331 1462 LINE",
"1018 1462 LINE"
);
}
);
width = 1331;
},
{
layerId = "1AE80326-82F5-491E-9ED8-F639C1D819D6";
paths = (
{
closed = 1;
nodes = (
"776 717 LINE SMOOTH",
"764 676 OFFCURVE",
"737 547 OFFCURVE",
"715 418 OFFCURVE",
"711 377 QCURVE",
"709 418 OFFCURVE",
"682 549 OFFCURVE",
"653 680 OFFCURVE",
"643 721 QCURVE SMOOTH",
"444 1462 LINE",
"0 1462 LINE",
"477 0 LINE",
"942 0 LINE",
"1421 1462 LINE",
"979 1462 LINE"
);
}
);
width = 1421;
}
);
note = V;
unicode = 0056;
},
{
glyphname = W;
lastChange = "2020-10-12 02:38:09 +0000";
layers = (
{
layerId = "89D8C5C7-992A-4B79-A2F2-D8D3CE0BA992";
paths = (
{
closed = 1;
nodes = (
"1347 344 LINE SMOOTH",
"1324 264 OFFCURVE",
"1300 160 OFFCURVE",
"1288 98 QCURVE",
"1273 160 OFFCURVE",
"1247 264 OFFCURVE",
"1224 344 QCURVE SMOOTH",
"911 1462 LINE",
"860 1462 LINE",
"554 350 LINE SMOOTH",
"532 274 OFFCURVE",
"505 164 OFFCURVE",
"491 106 QCURVE",
"477 164 OFFCURVE",
"446 272 OFFCURVE",
"425 348 QCURVE SMOOTH",
"122 1462 LINE",
"67 1462 LINE",
"466 0 LINE",
"516 0 LINE",
"849 1237 LINE SMOOTH",
"860 1272 OFFCURVE",
"872 1331 OFFCURVE",
"882 1382 QCURVE",
"894 1327 OFFCURVE",
"917 1249 OFFCURVE",
"933 1192 QCURVE SMOOTH",
"1263 0 LINE",
"1312 0 LINE",
"1718 1462 LINE",
"1662 1462 LINE"
);
}
);
width = 1779;
},
{
layerId = "963BFE9B-9129-4C18-A3F3-46AD815B745B";
paths = (
{
closed = 1;
nodes = (
"1405 457 LINE SMOOTH",
"1380 369 OFFCURVE",
"1347 227 OFFCURVE",
"1339 160 QCURVE",
"1327 225 OFFCURVE",
"1294 371 OFFCURVE",
"1266 459 QCURVE SMOOTH",
"975 1462 LINE",
"856 1462 LINE",
"573 465 LINE SMOOTH",
"549 381 OFFCURVE",
"516 233 OFFCURVE",
"504 164 QCURVE",
"491 231 OFFCURVE",
"457 373 OFFCURVE",
"434 459 QCURVE SMOOTH",
"170 1462 LINE",
"47 1462 LINE",
"438 0 LINE",
"557 0 LINE",
"862 1094 LINE SMOOTH",
"881 1159 OFFCURVE",
"907 1274 OFFCURVE",
"913 1315 QCURVE",
"934 1227 OFFCURVE",
"975 1075 QCURVE SMOOTH",
"1282 0 LINE",
"1401 0 LINE",
"1798 1462 LINE",
"1675 1462 LINE"
);
}
);
width = 1843;
},
{
layerId = "A10A3B8F-5047-4E3E-80F3-6554B53DC79D";
paths = (
{
closed = 1;
nodes = (
"1435 475 OFFCURVE",
"1396 297 OFFCURVE",
"1388 221 QCURVE",
"1378 291 OFFCURVE",
"1337 479 OFFCURVE",
"1308 573 QCURVE SMOOTH",
"1040 1462 LINE",
"849 1462 LINE",
"591 580 LINE SMOOTH",
"565 489 OFFCURVE",
"524 301 OFFCURVE",
"513 221 QCURVE",
"503 299 OFFCURVE",
"468 475 OFFCURVE",
"444 569 QCURVE SMOOTH",
"217 1462 LINE",
"24 1462 LINE",
"411 0 LINE",
"597 0 LINE",
"874 952 LINE SMOOTH",
"901 1047 OFFCURVE",
"942 1221 OFFCURVE",
"944 1247 QCURVE",
"946 1229 OFFCURVE",
"968 1137 OFFCURVE",
"999 1016 OFFCURVE",
"1017 958 QCURVE SMOOTH",
"1302 0 LINE",
"1488 0 LINE",
"1877 1462 LINE",
"1685 1462 LINE",
"1460 571 LINE SMOOTH"
);
}
);
userData = {
assembly = "NPUSHB[ ]	/* 30 values pushed */\01228 19 8 3 1 0 1 76 4 3 2 0 0 31 77 2 1 1 1 32 1 78 24 17 25 17 16 5 8 27 \012CALL[ ]	/* CallFunction */";
};
width = 1904;
},
{
layerId = "742C6D49-27A7-4CE6-BB95-CE3E85DCFAA1";
paths = (
{
closed = 1;
nodes = (
"1489 664 LINE SMOOTH",
"1479 614 OFFCURVE",
"1448 473 OFFCURVE",
"1423 332 OFFCURVE",
"1417 281 QCURVE",
"1411 330 OFFCURVE",
"1386 473 OFFCURVE",
"1360 606 OFFCURVE",
"1350 643 QCURVE SMOOTH",
"1137 1462 LINE",
"844 1462 LINE",
"631 643 LINE SMOOTH",
"621 606 OFFCURVE",
"594 473 OFFCURVE",
"569 332 OFFCURVE",
"563 281 QCURVE",
"557 330 OFFCURVE",
"532 473 OFFCURVE",
"504 616 OFFCURVE",
"492 664 QCURVE SMOOTH",
"305 1462 LINE",
"0 1462 LINE",
"373 0 LINE",
"725 0 LINE",
"922 766 LINE SMOOTH",
"928 791 OFFCURVE",
"948 883 OFFCURVE",
"969 987 OFFCURVE",
"987 1081 OFFCURVE",
"989 1110 QCURVE",
"991 1081 OFFCURVE",
"1010 987 OFFCURVE",
"1032 881 OFFCURVE",
"1051 791 OFFCURVE",
"1057 768 QCURVE SMOOTH",
"1255 0 LINE",
"1608 0 LINE",
"1980 1462 LINE",
"1675 1462 LINE"
);
}
);
width = 1980;
},
{
layerId = "1AE80326-82F5-491E-9ED8-F639C1D819D6";
paths = (
{
closed = 1;
nodes = (
"1554 727 LINE SMOOTH",
"1546 690 OFFCURVE",
"1517 545 OFFCURVE",
"1488 393 OFFCURVE",
"1482 342 QCURVE",
"1476 401 OFFCURVE",
"1447 561 OFFCURVE",
"1414 725 OFFCURVE",
"1384 866 OFFCURVE",
"1373 909 QCURVE SMOOTH",
"1249 1462 LINE",
"882 1462 LINE",
"753 909 LINE SMOOTH",
"743 864 OFFCURVE",
"712 725 OFFCURVE",
"679 563 OFFCURVE",
"653 403 OFFCURVE",
"644 342 QCURVE",
"640 379 OFFCURVE",
"620 487 OFFCURVE",
"597 602 OFFCURVE",
"577 702 OFFCURVE",
"571 729 QCURVE SMOOTH",
"411 1462 LINE",
"30 1462 LINE",
"392 0 LINE",
"859 0 LINE",
"1001 637 LINE SMOOTH",
"1005 655 OFFCURVE",
"1023 741 OFFCURVE",
"1044 852 OFFCURVE",
"1062 958 OFFCURVE",
"1066 995 QCURVE",
"1070 958 OFFCURVE",
"1087 852 OFFCURVE",
"1109 741 OFFCURVE",
"1126 655 OFFCURVE",
"1130 637 QCURVE SMOOTH",
"1269 0 LINE",
"1736 0 LINE",
"2096 1462 LINE",
"1716 1462 LINE"
);
}
);
width = 2127;
}
);
note = W;
unicode = 0057;
},
{
glyphname = X;
lastChange = "2020-10-12 02:38:09 +0000";
layers = (
{
layerId = "89D8C5C7-992A-4B79-A2F2-D8D3CE0BA992";
paths = (
{
closed = 1;
nodes = (
"1012 1462 LINE",
"948 1462 LINE",
"526 799 LINE",
"109 1462 LINE",
"45 1462 LINE",
"490 758 LINE",
"-6 0 LINE",
"57 0 LINE",
"524 717 LINE",
"985 0 LINE",
"1049 0 LINE",
"561 758 LINE"
);
}
);
width = 1042;
},
{
layerId = "963BFE9B-9129-4C18-A3F3-46AD815B745B";
paths = (
{
closed = 1;
nodes = (
"1085 1462 LINE",
"954 1462 LINE",
"565 844 LINE",
"176 1462 LINE",
"41 1462 LINE",
"492 760 LINE",
"0 0 LINE",
"129 0 LINE",
"561 676 LINE",
"983 0 LINE",
"1120 0 LINE",
"633 762 LINE"
);
}
);
width = 1122;
},
{
layerId = "A10A3B8F-5047-4E3E-80F3-6554B53DC79D";
paths = (
{
closed = 1;
nodes = (
"602 889 LINE",
"244 1462 LINE",
"39 1462 LINE",
"493 762 LINE",
"8 0 LINE",
"203 0 LINE",
"596 635 LINE",
"983 0 LINE",
"1192 0 LINE",
"704 766 LINE",
"1157 1462 LINE",
"962 1462 LINE"
);
}
);
userData = {
assembly = "NPUSHB[ ]	/* 35 values pushed */\01210 7 4 1 4 0 2 1 76 4 3 2 2 2 31 77 1 1 0 0 32 0 78 0 0 0 11 0 11 18 18 18 5 8 25 \012CALL[ ]	/* CallFunction */";
};
width = 1200;
},
{
layerId = "742C6D49-27A7-4CE6-BB95-CE3E85DCFAA1";
paths = (
{
closed = 1;
nodes = (
"1331 1462 LINE",
"997 1462 LINE",
"688 936 LINE",
"373 1462 LINE",
"31 1462 LINE",
"485 754 LINE",
"0 0 LINE",
"332 0 LINE",
"672 553 LINE",
"1012 0 LINE",
"1366 0 LINE",
"872 737 LINE"
);
}
);
width = 1366;
},
{
layerId = "1AE80326-82F5-491E-9ED8-F639C1D819D6";
paths = (
{
closed = 1;
nodes = (
"1440 1462 LINE",
"989 1462 LINE",
"735 1010 LINE",
"471 1462 LINE",
"33 1462 LINE",
"489 748 LINE",
"4 0 LINE",
"450 0 LINE",
"733 457 LINE",
"1018 0 LINE",
"1474 0 LINE",
"977 717 LINE"
);
}
);
width = 1480;
}
);
note = X;
unicode = 0058;
},
{
glyphname = Y;
lastChange = "2020-10-12 02:38:09 +0000";
layers = (
{
layerId = "89D8C5C7-992A-4B79-A2F2-D8D3CE0BA992";
paths = (
{
closed = 1;
nodes = (
"0 1462 LINE",
"494 555 LINE",
"494 0 LINE",
"547 0 LINE",
"547 563 LINE",
"1034 1462 LINE",
"973 1462 LINE",
"518 616 LINE",
"61 1462 LINE"
);
}
);
width = 1034;
},
{
layerId = "963BFE9B-9129-4C18-A3F3-46AD815B745B";
paths = (
{
closed = 1;
nodes = (
"0 1462 LINE",
"492 557 LINE",
"492 0 LINE",
"610 0 LINE",
"610 565 LINE",
"1098 1462 LINE",
"967 1462 LINE",
"549 680 LINE",
"131 1462 LINE"
);
}
);
width = 1097;
},
{
layerId = "A10A3B8F-5047-4E3E-80F3-6554B53DC79D";
paths = (
{
closed = 1;
nodes = (
"487 0 LINE",
"672 0 LINE",
"672 567 LINE",
"1159 1462 LINE",
"961 1462 LINE",
"580 743 LINE",
"201 1462 LINE",
"0 1462 LINE",
"487 559 LINE"
);
}
);
userData = {
assembly = "NPUSHB[ ]	/* 26 values pushed */\0128 5 2 3 2 0 1 76 1 1 0 0 31 77 0 2 2 32 2 78 18 18 16 3 8 25 \012CALL[ ]	/* CallFunction */";
};
width = 1159;
},
{
layerId = "742C6D49-27A7-4CE6-BB95-CE3E85DCFAA1";
paths = (
{
closed = 1;
nodes = (
"0 1462 LINE",
"485 559 LINE",
"485 0 LINE",
"793 0 LINE",
"793 569 LINE",
"1278 1462 LINE",
"944 1462 LINE",
"639 860 LINE",
"336 1462 LINE"
);
}
);
width = 1277;
},
{
layerId = "1AE80326-82F5-491E-9ED8-F639C1D819D6";
paths = (
{
closed = 1;
nodes = (
"0 1462 LINE",
"481 559 LINE",
"481 0 LINE",
"879 0 LINE",
"879 571 LINE",
"1360 1462 LINE",
"932 1462 LINE",
"680 920 LINE",
"430 1462 LINE"
);
}
);
width = 1359;
}
);
note = Y;
unicode = 0059;
},
{
glyphname = Z;
lastChange = "2020-10-12 02:38:09 +0000";
layers = (
{
layerId = "89D8C5C7-992A-4B79-A2F2-D8D3CE0BA992";
paths = (
{
closed = 1;
nodes = (
"149 51 LINE",
"1077 1425 LINE",
"1077 1462 LINE",
"130 1462 LINE",
"130 1411 LINE",
"1001 1411 LINE",
"73 37 LINE",
"73 0 LINE",
"1101 0 LINE",
"1101 51 LINE"
);
}
);
width = 1183;
},
{
layerId = "963BFE9B-9129-4C18-A3F3-46AD815B745B";
paths = (
{
closed = 1;
nodes = (
"225 106 LINE",
"1072 1374 LINE",
"1072 1462 LINE",
"116 1462 LINE",
"116 1356 LINE",
"925 1356 LINE",
"75 88 LINE",
"75 0 LINE",
"1097 0 LINE",
"1097 106 LINE"
);
}
);
width = 1177;
},
{
layerId = "A10A3B8F-5047-4E3E-80F3-6554B53DC79D";
paths = (
{
closed = 1;
nodes = (
"1070 1462 LINE",
"102 1462 LINE",
"102 1298 LINE",
"847 1298 LINE",
"77 139 LINE",
"77 0 LINE",
"1091 0 LINE",
"1091 164 LINE",
"300 164 LINE",
"1070 1323 LINE"
);
}
);
userData = {
assembly = "NPUSHB[ ]	/* 38 values pushed */\0129 1 2 3 4 1 1 0 2 76 0 2 2 3 95 0 3 3 31 77 0 0 0 1 95 0 1 1 32 1 78 17 18 17 16 4 8 26 \012CALL[ ]	/* CallFunction */";
};
width = 1171;
},
{
layerId = "742C6D49-27A7-4CE6-BB95-CE3E85DCFAA1";
paths = (
{
closed = 1;
nodes = (
"418 256 LINE",
"1118 1262 LINE",
"1118 1462 LINE",
"67 1462 LINE",
"67 1206 LINE",
"749 1206 LINE",
"49 201 LINE",
"49 0 LINE",
"1136 0 LINE",
"1136 256 LINE"
);
}
);
width = 1185;
},
{
layerId = "1AE80326-82F5-491E-9ED8-F639C1D819D6";
paths = (
{
closed = 1;
nodes = (
"550 319 LINE",
"1183 1219 LINE",
"1183 1462 LINE",
"75 1462 LINE",
"75 1143 LINE",
"694 1143 LINE",
"61 244 LINE",
"61 0 LINE",
"1200 0 LINE",
"1200 319 LINE"
);
}
);
width = 1251;
}
);
note = Z;
unicode = 005A;
},
{
glyphname = bracketleft;
lastChange = "2020-10-12 02:38:09 +0000";
layers = (
{
layerId = "89D8C5C7-992A-4B79-A2F2-D8D3CE0BA992";
paths = (
{
closed = 1;
nodes = (
"231 -272 LINE",
"231 1411 LINE",
"590 1411 LINE",
"590 1462 LINE",
"180 1462 LINE",
"180 -324 LINE",
"590 -324 LINE",
"590 -272 LINE"
);
}
);
width = 641;
},
{
layerId = "963BFE9B-9129-4C18-A3F3-46AD815B745B";
paths = (
{
closed = 1;
nodes = (
"287 -225 LINE",
"287 1364 LINE",
"606 1364 LINE",
"606 1462 LINE",
"172 1462 LINE",
"172 -324 LINE",
"606 -324 LINE",
"606 -225 LINE"
);
}
);
width = 657;
},
{
layerId = "A10A3B8F-5047-4E3E-80F3-6554B53DC79D";
paths = (
{
closed = 1;
nodes = (
"622 1315 LINE",
"622 1462 LINE",
"163 1462 LINE",
"163 -324 LINE",
"622 -324 LINE",
"622 -176 LINE",
"339 -176 LINE",
"339 1315 LINE"
);
}
);
userData = {
assembly = "NPUSHB[ ]	/* 25 values pushed */\0120 0 0 1 0 1 99 0 3 3 2 95 0 2 2 31 3 78 17 17 17 16 4 8 26 \012CALL[ ]	/* CallFunction */";
};
width = 673;
},
{
layerId = "742C6D49-27A7-4CE6-BB95-CE3E85DCFAA1";
paths = (
{
closed = 1;
nodes = (
"403 -113 LINE",
"403 1251 LINE",
"626 1251 LINE",
"626 1462 LINE",
"143 1462 LINE",
"143 -324 LINE",
"626 -324 LINE",
"626 -113 LINE"
);
}
);
width = 677;
},
{
layerId = "1AE80326-82F5-491E-9ED8-F639C1D819D6";
paths = (
{
closed = 1;
nodes = (
"433 -90 LINE",
"433 1249 LINE",
"616 1249 LINE",
"616 1503 LINE",
"116 1503 LINE",
"116 -344 LINE",
"616 -344 LINE",
"616 -90 LINE"
);
}
);
width = 663;
}
);
note = bracketleft;
unicode = 005B;
},
{
glyphname = backslash;
lastChange = "2020-10-12 02:38:09 +0000";
layers = (
{
layerId = "89D8C5C7-992A-4B79-A2F2-D8D3CE0BA992";
paths = (
{
closed = 1;
nodes = (
"575 0 LINE",
"632 0 LINE",
"83 1462 LINE",
"26 1462 LINE"
);
}
);
width = 659;
},
{
layerId = "963BFE9B-9129-4C18-A3F3-46AD815B745B";
paths = (
{
closed = 1;
nodes = (
"569 0 LINE",
"688 0 LINE",
"139 1462 LINE",
"24 1462 LINE"
);
}
);
width = 710;
},
{
layerId = "A10A3B8F-5047-4E3E-80F3-6554B53DC79D";
paths = (
{
closed = 1;
nodes = (
"196 1462 LINE",
"20 1462 LINE",
"565 0 LINE",
"743 0 LINE"
);
}
);
userData = {
assembly = "NPUSHB[ ]	/* 22 values pushed */\0120 0 0 31 77 2 1 1 1 32 1 78 0 0 0 3 0 3 17 3 8 23 \012CALL[ ]	/* CallFunction */";
};
width = 761;
},
{
layerId = "742C6D49-27A7-4CE6-BB95-CE3E85DCFAA1";
paths = (
{
closed = 1;
nodes = (
"557 0 LINE",
"833 0 LINE",
"288 1462 LINE",
"12 1462 LINE"
);
}
);
width = 845;
},
{
layerId = "1AE80326-82F5-491E-9ED8-F639C1D819D6";
paths = (
{
closed = 1;
nodes = (
"551 -20 LINE",
"897 -20 LINE",
"352 1483 LINE",
"6 1483 LINE"
);
}
);
width = 905;
}
);
note = backslash;
unicode = 005C;
},
{
glyphname = bracketright;
lastChange = "2020-10-12 02:38:09 +0000";
layers = (
{
layerId = "89D8C5C7-992A-4B79-A2F2-D8D3CE0BA992";
paths = (
{
closed = 1;
nodes = (
"461 -324 LINE",
"461 1462 LINE",
"51 1462 LINE",
"51 1411 LINE",
"409 1411 LINE",
"409 -272 LINE",
"51 -272 LINE",
"51 -324 LINE"
);
}
);
width = 641;
},
{
layerId = "963BFE9B-9129-4C18-A3F3-46AD815B745B";
paths = (
{
closed = 1;
nodes = (
"485 -324 LINE",
"485 1462 LINE",
"51 1462 LINE",
"51 1364 LINE",
"373 1364 LINE",
"373 -225 LINE",
"51 -225 LINE",
"51 -324 LINE"
);
}
);
width = 657;
},
{
layerId = "A10A3B8F-5047-4E3E-80F3-6554B53DC79D";
paths = (
{
closed = 1;
nodes = (
"51 1462 LINE",
"51 1315 LINE",
"334 1315 LINE",
"334 -176 LINE",
"51 -176 LINE",
"51 -324 LINE",
"510 -324 LINE",
"510 1462 LINE"
);
}
);
userData = {
assembly = "NPUSHB[ ]	/* 25 values pushed */\0120 1 0 0 1 0 99 0 2 2 3 95 0 3 3 31 2 78 17 17 17 16 4 8 26 \012CALL[ ]	/* CallFunction */";
};
width = 673;
},
{
layerId = "742C6D49-27A7-4CE6-BB95-CE3E85DCFAA1";
paths = (
{
closed = 1;
nodes = (
"534 -324 LINE",
"534 1462 LINE",
"51 1462 LINE",
"51 1251 LINE",
"274 1251 LINE",
"274 -113 LINE",
"51 -113 LINE",
"51 -324 LINE"
);
}
);
width = 677;
},
{
layerId = "1AE80326-82F5-491E-9ED8-F639C1D819D6";
paths = (
{
closed = 1;
nodes = (
"547 -344 LINE",
"547 1503 LINE",
"47 1503 LINE",
"47 1249 LINE",
"229 1249 LINE",
"229 -90 LINE",
"47 -90 LINE",
"47 -344 LINE"
);
}
);
width = 663;
}
);
note = bracketright;
unicode = 005D;
},
{
glyphname = asciicircum;
lastChange = "2020-10-12 02:38:09 +0000";
layers = (
{
layerId = "89D8C5C7-992A-4B79-A2F2-D8D3CE0BA992";
paths = (
{
closed = 1;
nodes = (
"598 1405 LINE",
"1014 569 LINE",
"1073 569 LINE",
"624 1473 LINE",
"577 1473 LINE",
"94 569 LINE",
"153 569 LINE"
);
}
);
width = 1167;
},
{
layerId = "963BFE9B-9129-4C18-A3F3-46AD815B745B";
paths = (
{
closed = 1;
nodes = (
"582 1343 LINE",
"975 557 LINE",
"1083 557 LINE",
"618 1473 LINE",
"545 1473 LINE",
"86 557 LINE",
"195 557 LINE"
);
}
);
width = 1169;
},
{
layerId = "A10A3B8F-5047-4E3E-80F3-6554B53DC79D";
paths = (
{
closed = 1;
nodes = (
"1093 547 LINE",
"614 1473 LINE",
"511 1473 LINE",
"77 547 LINE",
"237 547 LINE",
"564 1282 LINE",
"933 547 LINE"
);
}
);
userData = {
assembly = "PUSHB[ ]	/* 2 values pushed */\0126 100 \012WCVTP[ ]	/* WriteCVTInPixels */\012NPUSHB[ ]	/* 16 values pushed */\0120 1 0 1 133 2 1 0 0 118 17 17 17 3 8 25 \012CALL[ ]	/* CallFunction */\012PUSHB[ ]	/* 2 values pushed */\0126 0 \012WCVTP[ ]	/* WriteCVTInPixels */";
};
width = 1171;
},
{
layerId = "742C6D49-27A7-4CE6-BB95-CE3E85DCFAA1";
paths = (
{
closed = 1;
nodes = (
"563 1163 LINE",
"885 520 LINE",
"1124 520 LINE",
"629 1470 LINE",
"485 1470 LINE",
"47 520 LINE",
"283 520 LINE"
);
}
);
width = 1171;
},
{
layerId = "1AE80326-82F5-491E-9ED8-F639C1D819D6";
paths = (
{
closed = 1;
nodes = (
"519 1079 LINE",
"807 502 LINE",
"1102 502 LINE",
"594 1468 LINE",
"424 1468 LINE",
"-16 502 LINE",
"271 502 LINE"
);
}
);
width = 1075;
}
);
note = asciicircum;
unicode = 005E;
},
{
glyphname = underscore;
lastChange = "2020-10-12 02:38:09 +0000";
layers = (
{
layerId = "89D8C5C7-992A-4B79-A2F2-D8D3CE0BA992";
paths = (
{
closed = 1;
nodes = (
"-4 -186 LINE",
"-4 -238 LINE",
"805 -238 LINE",
"805 -186 LINE"
);
}
);
width = 800;
},
{
layerId = "963BFE9B-9129-4C18-A3F3-46AD815B745B";
paths = (
{
closed = 1;
nodes = (
"-4 -184 LINE",
"-4 -276 LINE",
"860 -276 LINE",
"860 -184 LINE"
);
}
);
width = 856;
},
{
layerId = "A10A3B8F-5047-4E3E-80F3-6554B53DC79D";
paths = (
{
closed = 1;
nodes = (
"914 -315 LINE",
"914 -184 LINE",
"-4 -184 LINE",
"-4 -315 LINE"
);
}
);
userData = {
assembly = "PUSHB[ ]	/* 2 values pushed */\0126 100 \012WCVTP[ ]	/* WriteCVTInPixels */\012NPUSHB[ ]	/* 21 values pushed */\0120 0 1 1 0 87 0 0 0 1 95 0 1 0 1 79 17 16 2 8 24 \012CALL[ ]	/* CallFunction */\012PUSHB[ ]	/* 2 values pushed */\0126 0 \012WCVTP[ ]	/* WriteCVTInPixels */";
};
width = 909;
},
{
layerId = "742C6D49-27A7-4CE6-BB95-CE3E85DCFAA1";
paths = (
{
closed = 1;
nodes = (
"-4 -184 LINE",
"-4 -324 LINE",
"846 -324 LINE",
"846 -184 LINE"
);
}
);
width = 841;
},
{
layerId = "1AE80326-82F5-491E-9ED8-F639C1D819D6";
paths = (
{
closed = 1;
nodes = (
"-4 -133 LINE",
"-4 -379 LINE",
"1028 -379 LINE",
"1028 -133 LINE"
);
}
);
width = 1024;
}
);
note = underscore;
unicode = 005F;
},
{
glyphname = grave;
lastChange = "2020-10-12 02:38:09 +0000";
layers = (
{
layerId = "89D8C5C7-992A-4B79-A2F2-D8D3CE0BA992";
paths = (
{
closed = 1;
nodes = (
"81 1554 LINE",
"134 1485 OFFCURVE",
"302 1309 OFFCURVE",
"384 1241 QCURVE",
"427 1241 LINE",
"427 1253 LINE",
"380 1294 OFFCURVE",
"271 1409 OFFCURVE",
"171 1524 OFFCURVE",
"142 1569 QCURVE",
"81 1569 LINE"
);
}
);
width = 509;
},
{
layerId = "963BFE9B-9129-4C18-A3F3-46AD815B745B";
paths = (
{
closed = 1;
nodes = (
"81 1552 LINE",
"110 1509 OFFCURVE",
"212 1395 OFFCURVE",
"327 1282 OFFCURVE",
"378 1241 QCURVE",
"460 1241 LINE",
"460 1260 LINE",
"421 1298 OFFCURVE",
"329 1409 OFFCURVE",
"245 1524 OFFCURVE",
"218 1569 QCURVE",
"81 1569 LINE"
);
}
);
width = 542;
},
{
layerId = "A10A3B8F-5047-4E3E-80F3-6554B53DC79D";
paths = (
{
closed = 1;
nodes = (
"106 1511 OFFCURVE",
"206 1395 OFFCURVE",
"325 1278 OFFCURVE",
"372 1241 QCURVE",
"493 1241 LINE",
"493 1266 LINE",
"462 1303 OFFCURVE",
"386 1411 OFFCURVE",
"319 1524 OFFCURVE",
"296 1569 QCURVE",
"81 1569 LINE",
"81 1548 LINE"
);
}
);
userData = {
assembly = "PUSHB[ ]	/* 2 values pushed */\0126 100 \012WCVTP[ ]	/* WriteCVTInPixels */\012NPUSHB[ ]	/* 21 values pushed */\01211 5 2 1 0 1 76 0 0 1 0 133 0 1 1 118 21 16 2 8 24 \012CALL[ ]	/* CallFunction */\012PUSHB[ ]	/* 2 values pushed */\0126 0 \012WCVTP[ ]	/* WriteCVTInPixels */";
};
width = 575;
},
{
layerId = "742C6D49-27A7-4CE6-BB95-CE3E85DCFAA1";
paths = (
{
closed = 1;
nodes = (
"81 1548 LINE",
"110 1520 OFFCURVE",
"204 1438 OFFCURVE",
"312 1348 OFFCURVE",
"417 1268 OFFCURVE",
"456 1241 QCURVE",
"659 1241 LINE",
"659 1268 LINE",
"626 1307 OFFCURVE",
"538 1411 OFFCURVE",
"454 1524 OFFCURVE",
"423 1569 QCURVE",
"81 1569 LINE"
);
}
);
width = 741;
},
{
layerId = "1AE80326-82F5-491E-9ED8-F639C1D819D6";
paths = (
{
closed = 1;
nodes = (
"81 1548 LINE",
"118 1520 OFFCURVE",
"231 1436 OFFCURVE",
"355 1348 OFFCURVE",
"472 1268 OFFCURVE",
"513 1241 QCURVE",
"773 1241 LINE",
"773 1270 LINE",
"740 1307 OFFCURVE",
"642 1413 OFFCURVE",
"546 1524 OFFCURVE",
"511 1569 QCURVE",
"81 1569 LINE"
);
}
);
width = 856;
}
);
note = grave;
unicode = 0060;
},
